
<svg width="1549px" height="160px" viewBox="0 0 1549 160" version="1.1" xmlns="http://www.w3.org/2000/svg" xmlns:xlink="http://www.w3.org/1999/xlink">
    <!-- Generator: Sketch 46.2 (44496) - http://www.bohemiancoding.com/sketch -->
    <desc>Created with Sketch.</desc>
    <defs>
        <radialGradient cx="49.9989268%" cy="49.9994961%" fx="49.9989268%" fy="49.9994961%" r="41.9991276%" gradientTransform="translate(0.499989,0.499995),scale(1.000000,0.888626),translate(-0.499989,-0.499995)" id="radialGradient-1">
            <stop stop-color="#F68B50" offset="0%"></stop>
            <stop stop-color="#964D22" offset="100%"></stop>
        </radialGradient>
        <radialGradient cx="49.9989268%" cy="49.9994961%" fx="49.9989268%" fy="49.9994961%" r="41.9991276%" gradientTransform="translate(0.499989,0.499995),scale(1.000000,0.955083),translate(-0.499989,-0.499995)" id="radialGradient-2">
            <stop stop-color="#F68B50" offset="0%"></stop>
            <stop stop-color="#964D22" offset="100%"></stop>
        </radialGradient>
        <radialGradient cx="49.9989268%" cy="49.9994961%" fx="49.9989268%" fy="49.9994961%" r="41.9991276%" gradientTransform="translate(0.499989,0.499995),scale(0.902637,1.000000),translate(-0.499989,-0.499995)" id="radialGradient-3">
            <stop stop-color="#F68B50" offset="0%"></stop>
            <stop stop-color="#964D22" offset="100%"></stop>
        </radialGradient>
        <radialGradient cx="49.9989268%" cy="49.9994961%" fx="49.9989268%" fy="49.9994961%" r="41.9991276%" gradientTransform="translate(0.499989,0.499995),scale(1.000000,0.931009),translate(-0.499989,-0.499995)" id="radialGradient-4">
            <stop stop-color="#F68B50" offset="0%"></stop>
            <stop stop-color="#964D22" offset="100%"></stop>
        </radialGradient>
    </defs>
    <g id="Page-1" stroke="none" stroke-width="1" fill="none" fill-rule="evenodd">
        <g id="Artboard" transform="translate(-37.000000, 0.000000)">
            <g id="crooks-1" transform="translate(100.454604, 79.617876) rotate(-11.000000) translate(-100.454604, -79.617876) translate(23.954604, -0.882124)" fill-rule="nonzero">
                <path d="M32.382284,103.092723 C29.8150169,103.025292 28.8336059,109.249912 28.6499976,111.246043 C27.8359464,116.49188 25.53678,129.592859 24.8112833,134.850882 C20.9059501,133.753294 17.0956707,132.053698 13.1700269,131.163279 C10.8976705,131.151905 9.86995124,134.914251 12.2211129,135.655184 C13.6818554,136.448924 19.154359,137.287348 17.9487184,138.000658 C14.2879255,139.203862 10.3484703,139.729502 6.80547923,141.168309 C4.77685076,142.772038 6.72179932,146.389772 9.0534628,145.232877 C13.4860607,144.092231 17.8975355,142.83622 22.3252588,141.654952 C21.5672651,144.028049 19.2250401,146.029868 19.2737857,148.578449 C19.8051125,151.222084 23.811999,151.211523 24.3205778,148.306286 C25.8032558,145.53835 27.1925048,142.714356 28.6499976,139.932608 C32.6552592,138.657099 36.89125,137.973036 40.8055199,136.538291 C42.8438975,135.28228 41.8340516,131.718166 39.4536425,132.231619 C36.1868764,133.000987 32.9371712,133.975899 29.7037145,134.841133 C30.5315769,128.687003 33.0143517,114.683419 33.9429549,108.575598 C33.9738271,107.136791 33.7065389,103.14878 32.382284,103.092723 Z" id="crooks-leg-left" stroke="#010101" stroke-width="2.3705787" fill="#F47521" stroke-linecap="round" transform="translate(23.928349, 126.808362) rotate(15.000000) translate(-23.928349, -126.808362) "></path>
                <path d="M69.6854485,121.165014 C66.8435813,121.770272 67.5983254,125.450563 67.98829,127.6628 C68.1637741,132.488612 68.699163,137.337984 68.9396412,142.17842 C65.430772,141.246567 61.9868969,139.17813 58.3748496,138.962025 C55.6905931,139.494976 56.7703076,143.903201 59.2498327,143.745591 C62.6896457,145.168149 66.7339038,145.859524 69.7975634,147.737853 C71.4906598,151.072051 72.3794542,155.025317 74.5665057,157.99961 C76.4740827,159.483913 79.5881127,156.852464 78.0168802,154.644289 C77.3490658,152.496234 74.0863618,147.880028 78.1972389,150.282373 C82.1756905,151.458766 86.0501515,153.364718 90.0911599,154.1154 C92.6836122,153.969163 92.608869,149.421201 89.9717333,149.396016 C86.5254209,148.206623 83.0782961,147.014794 79.6319837,145.825402 C82.1261325,144.789558 85.3953359,145.21202 87.467023,143.298756 C88.8652086,141.341621 86.1923261,138.642741 84.3204959,139.843507 C80.8189386,140.732301 77.3181936,141.621096 73.8166363,142.50989 C73.2763728,135.818747 73.135823,129.001678 72.17716,122.395027 C71.6905166,121.481048 70.6327376,120.996842 69.6854485,121.165014 Z" id="crooks-leg-right" stroke="#010101" stroke-width="2.3705787" fill="#F47521" stroke-linecap="round" transform="translate(74.400828, 139.782355) rotate(-7.000000) translate(-74.400828, -139.782355) "></path>
                <g id="tail" transform="translate(124.171912, 68.132803) rotate(31.210240) translate(-124.171912, -68.132803) translate(107.171912, 41.132803)" stroke="#010101" stroke-width="3.36092651" fill="#964D22" stroke-linecap="round" stroke-linejoin="round">
                    <path d="M21.0303976,14.6286323 C22.3911068,8.33876776 21.292703,4.53807204 20.0895592,3.58903659 C17.3699624,0.967804314 14.1530783,0.949588662 11.1028674,0.122598077 C9.30042871,0.128973555 7.19196703,-0.524057557 4.99607022,5.40149393 C3.23825984,11.1457997 2.27556265,18.3418929 1.4986651,24.7091739 C-0.00959085383,37.7023982 0.790987037,49.57536 3.95959964,51.3167763 C7.93971953,53.8696999 13.9581708,42.0486527 18.0776405,27.0772086 C19.1751335,23.1398955 20.174262,18.9375447 21.0303976,14.6286323 Z" id="path3971"></path>
                    <path d="M31.7976693,21.6999483 C34.2668009,16.0348806 33.8296252,12.1321772 32.7913331,10.9235687 C30.5307707,7.73947282 27.3093327,6.91794693 24.4012039,5.36415184 C22.5960329,4.91877916 20.5986867,3.76754997 17.359033,8.87430792 C14.5920755,13.9191326 12.361569,20.5478083 10.4671412,26.4314638 C6.67555331,38.4592586 5.39043908,49.9934092 8.25758265,52.4497898 C11.795973,55.8816186 19.901938,46.1043676 26.65448,32.8451947 C28.4450786,29.358719 30.1846733,25.5971869 31.7976693,21.6999483 Z" id="path3975"></path>
                </g>
                <g id="body" transform="translate(17.711742, 29.451778)">
                    <path d="M90.0464685,50.3470459 C90.0545928,77.607198 70.4117497,99.7125052 46.1795104,99.7125052 C21.9480836,99.7125052 2.30442809,77.607198 2.3109275,50.3470459 C2.30442809,23.0844565 21.9472712,0.980774198 46.1795104,0.980774198 C70.4109372,0.980774198 90.0537803,23.0844565 90.0464685,50.3470459 Z" stroke="#010101" stroke-width="3.2497052" fill="url(#radialGradient-1)" stroke-linecap="round" stroke-linejoin="round"></path>
                    <path d="M89.4233375,35.4731452 C89.456647,36.2311389 89.4761452,37.0021315 89.4761452,37.7682495 C89.4761452,65.0097158 68.8307681,87.1166478 43.3888261,87.1166478 C23.5030675,87.1166478 6.53310698,73.6003115 0.0743178945,54.6910893 C1.19140406,80.8739641 21.3972586,101.759819 46.123453,101.759819 C71.5662074,101.759819 92.2115846,79.652075 92.2115846,52.4097963 C92.2107722,46.4620233 91.2277363,40.7547286 89.4233375,35.4731452 Z" id="path3887" fill-opacity="0.3137" fill="#010101"></path>
                </g>
                <g id="head" transform="translate(61.629323, 45.385585) rotate(-2.000000) translate(-61.629323, -45.385585) translate(28.129323, 1.885585)">
                    <path d="M48.9712395,19.0152766 L40.1911022,36.0336996 C45.8306456,33.5347502 51.6046208,31.4028082 57.9633338,31.8712581 C75.692679,33.1735159 60.6239314,11.7345091 48.9712395,19.0152766 Z" id="path4090" stroke="#010101" stroke-width="2.19355101" fill="#ED2224" stroke-linecap="round" stroke-linejoin="round"></path>
                    <path d="M44.2991112,12.321721 L39.5684267,34.6118551 C44.5547793,29.6848835 49.7522642,25.1183215 56.1291214,23.2222539 C73.9087755,17.9348727 54.1085187,-0.213438306 44.2991112,12.321721 Z" id="path4092" stroke="#010101" stroke-width="2.38853332" fill="#ED2224" stroke-linecap="round" stroke-linejoin="round"></path>
                    <path d="M65.2564723,48.9251448 C65.2614208,67.7134508 51.0380273,82.948795 33.4909487,82.948795 C15.94387,82.948795 1.71882713,67.7134508 1.72460028,48.9251448 C1.71882713,30.136014 15.94387,14.9014945 33.4909487,14.9014945 C51.0380273,14.9014945 65.2614208,30.136014 65.2564723,48.9251448 Z" id="path3984" stroke="#010101" stroke-width="2.4372789" fill="#C7612B" stroke-linecap="round" stroke-linejoin="round"></path>
                    <g id="eye-r" transform="translate(39.142728, 33.792781)" stroke="#010101">
                        <path d="M18.6152142,10.5196036 C18.4653591,15.8972305 14.2705584,20.1538035 9.24869458,20.025683 C4.2256868,19.8964187 0.27911954,15.4327939 0.430118635,10.0540231 C0.582261663,4.67639622 4.77477442,0.420967175 9.7977822,0.549087619 C14.82079,0.677208064 18.7696451,5.14197677 18.6152142,10.5196036 Z" id="path4014" stroke-width="3.05333693" fill="#FFFFFF" stroke-linecap="round" stroke-linejoin="round"></path>
                        <path d="M12.5523718,12.0318825 C12.5020387,13.8244247 11.1041532,15.2429011 9.43057986,15.2017195 C7.75586262,15.1582501 6.43919627,13.6699938 6.49067323,11.8774516 C6.54100626,10.0849093 7.93774789,8.66643292 9.61246513,8.70990236 C11.2883263,8.75108393 12.6038487,10.2393402 12.5523718,12.0318825 Z" id="path4016" stroke-width="1.12685892" fill="#010101"></path>
                    </g>
                    <g id="eye-l" transform="translate(14.854436, 22.353456)" stroke="#010101">
                        <path d="M18.1073082,12.192033 C16.4211516,17.0995036 11.3363715,19.9227291 6.75377771,18.4973892 C2.17118396,17.0720492 -0.176165611,11.93808 1.51456668,7.02946546 C3.20072325,2.12199486 8.28435945,-0.701230647 12.8680971,0.72525323 C17.4506909,2.15059317 19.7968965,7.28570635 18.1073082,12.192033 Z" id="path4012" stroke-width="3.05333693" fill="#FFFFFF" stroke-linecap="round" stroke-linejoin="round"></path>
                        <path d="M12.5775383,12.1737301 C12.0147235,13.8106976 10.3194154,14.7510101 8.7922655,14.2762781 C7.26397163,13.8004022 6.48152177,12.0890791 7.04433658,10.4532555 C7.60715139,8.81857595 9.30131548,7.87711947 10.8307533,8.35185147 C12.3567593,8.82772741 13.141497,10.5390505 12.5775383,12.1737301 Z" id="path4018" stroke-width="1.12685892" fill="#010101"></path>
                    </g>
                    <path d="M64.5612201,37.3928642 L63.8156589,38.6077 C63.9138025,40.0146993 63.9525651,41.4447912 63.9525651,42.8955014 C63.9525651,63.5567824 44.7106544,80.7046889 31.410965,78.4564592 C20.3364128,76.5843089 7.11837235,69.4627154 1.16790363,54.4442767 C4.19550871,72.8515547 23.9017457,86.4935094 33.3243521,86.3871185 C54.2182085,86.1520688 65.8651274,70.3171417 65.8651274,49.6558607 C65.8651274,45.3606367 65.4379142,41.2353083 64.5612201,37.3928642 Z" id="path4022" fill-opacity="0.3137" fill="#010101"></path>
                    <path d="M15.8193349,56.0978719 L10.618551,85.0155829 L30.4781888,65.9600625 C32.806418,54.2554122 24.6877189,48.9498868 15.8193349,56.0978719 Z" id="path3454" stroke="#010101" stroke-width="2.19355101" fill="#ED2224" stroke-linecap="round" stroke-linejoin="round"></path>
                    <path d="M19.7995098,47.0348503 L0.0776029133,68.5654029 L27.0588343,69.5517869 C35.228667,61.0438125 31.1289054,48.7181361 19.7995098,47.0348503 Z" id="path4088" stroke="#010101" stroke-width="2.5177091" fill="#FEDA00" stroke-linecap="round" stroke-linejoin="round"></path>
                    <path d="M37.4538042,6.69372393 L39.0232764,33.69145 C42.164695,27.0506774 45.588998,20.7967059 50.7444214,17.4796186 C65.1220404,8.2277325 42.9020088,-9.71274513 37.4538042,6.69372393 Z" id="path4094" stroke="#010101" stroke-width="2.4874056" fill="#ED2224" stroke-linecap="round" stroke-linejoin="round"></path>
                </g>
            </g>
            <g id="crooks-2" transform="translate(235.000000, 1.000000)" fill-rule="nonzero">
                <path d="M30.2720494,107.761201 C27.7047823,107.69377 26.7233713,113.91839 26.539763,115.914522 C25.7257118,121.160358 23.4265454,134.261337 22.7010487,139.51936 C18.7957155,138.421772 14.9854361,136.722176 11.0597922,135.831757 C8.78743588,135.820383 7.75971661,139.582729 10.1108783,140.323662 C11.5716208,141.117403 17.0441244,141.955826 15.8384837,142.669137 C12.1776908,143.87234 8.2382357,144.39798 4.69524461,145.836787 C2.66661614,147.440516 4.6115647,151.058251 6.94322818,149.901356 C11.3758261,148.760709 15.7873009,147.504698 20.2150242,146.32343 C19.4570305,148.696527 17.1148055,150.698346 17.163551,153.246927 C17.6948778,155.890562 21.7017643,155.880001 22.2103432,152.974764 C23.6930212,150.206828 25.0822702,147.382834 26.539763,144.601086 C30.5450246,143.325577 34.7810153,142.641514 38.6952853,141.206769 C40.7336628,139.950758 39.723817,136.386644 37.3434079,136.900098 C34.0766417,137.669465 30.8269365,138.644377 27.5934799,139.509611 C28.4213423,133.355482 30.904117,119.351897 31.8327203,113.244076 C31.8635925,111.805269 31.5963043,107.817259 30.2720494,107.761201 Z" id="crooks-leg-left" stroke="#010101" stroke-width="2.3705787" fill="#F47521" stroke-linecap="round" transform="translate(21.818114, 131.476841) rotate(10.000000) translate(-21.818114, -131.476841) "></path>
                <path d="M65.8979257,120.64709 C63.0560585,121.252348 63.8108025,124.932639 64.2007671,127.144876 C64.3762512,131.970688 64.9116401,136.820061 65.1521183,141.660496 C61.6432491,140.728644 58.199374,138.660206 54.5873267,138.444101 C51.9030702,138.977052 52.9827848,143.385278 55.4623098,143.227667 C58.9021228,144.650225 62.9463809,145.3416 66.0100405,147.21993 C67.7031369,150.554127 68.5919313,154.507394 70.7789829,157.481686 C72.6865598,158.965989 75.8005898,156.33454 74.2293574,154.126366 C73.5615429,151.97831 70.2988389,147.362104 74.409716,149.764449 C78.3881676,150.940842 82.2626286,152.846794 86.303637,153.597476 C88.8960894,153.451239 88.8213461,148.903277 86.1842104,148.878092 C82.737898,147.6887 79.2907732,146.49687 75.8444608,145.307478 C78.3386096,144.271635 81.607813,144.694096 83.6795001,142.780832 C85.0776857,140.823697 82.4048032,138.124817 80.532973,139.325583 C77.0314157,140.214378 73.5306707,141.103172 70.0291134,141.991966 C69.4888499,135.300823 69.3483002,128.483754 68.3896371,121.877104 C67.9029938,120.963124 66.8452147,120.478918 65.8979257,120.64709 Z" id="crooks-leg-right" stroke="#010101" stroke-width="2.3705787" fill="#F47521" stroke-linecap="round" transform="translate(70.613305, 139.264431) rotate(-12.000000) translate(-70.613305, -139.264431) "></path>
                <g id="tail" transform="translate(117.518604, 63.161119) rotate(41.210240) translate(-117.518604, -63.161119) translate(102.518604, 39.161119)" stroke="#010101" stroke-width="3.36092651" fill="#964D22" stroke-linecap="round" stroke-linejoin="round">
                    <path d="M18.7596137,13.0482699 C19.9733786,7.43765367 18.9935925,4.04739857 17.9203773,3.20085032 C15.4944722,0.862687327 12.6249824,0.8464388 9.90416662,0.108755687 C8.2963749,0.114442671 6.41560794,-0.468067012 4.45684804,4.81757873 C2.88886521,9.94155164 2.03013057,16.3605321 1.33713091,22.0402046 C-0.00824710641,33.6302788 0.705875643,44.2210685 3.53230687,45.7744276 C7.08260996,48.0516586 12.4511232,37.5071772 16.1257275,24.1525131 C17.1047012,20.6403941 17.9959329,16.8918589 18.7596137,13.0482699 Z" id="path3971"></path>
                    <path d="M28.3641178,19.355948 C30.5666056,14.3026562 30.176641,10.8214094 29.250475,9.74331961 C27.2340328,6.90307714 24.3604809,6.17026858 21.7664036,4.78426925 C20.1561746,4.38699277 18.3745236,3.36008588 15.4847231,7.91536035 C13.0165719,12.4153898 11.0269398,18.3282287 9.33709304,23.5765028 C5.9549622,34.305405 4.80862864,44.5939722 7.36614675,46.785086 C10.5224231,49.8463084 17.7530175,41.1249117 23.7763463,29.2976091 C25.3735765,26.1876411 26.9253108,22.8323203 28.3641178,19.355948 Z" id="path3975"></path>
                </g>
                <g id="body" transform="translate(10.711742, 36.451778)">
                    <path d="M90.0464685,46.843747 C90.0545928,72.2070557 70.4117497,92.7742092 46.1795104,92.7742092 C21.9480836,92.7742092 2.30442809,72.2070557 2.3109275,46.843747 C2.30442809,21.4781706 21.9472712,0.91252898 46.1795104,0.91252898 C70.4109372,0.91252898 90.0537803,21.4781706 90.0464685,46.843747 Z" stroke="#010101" stroke-width="3.2497052" fill="url(#radialGradient-2)" stroke-linecap="round" stroke-linejoin="round"></path>
                    <path d="M89.4233375,33.0048171 C89.456647,33.7100673 89.4761452,34.4274119 89.4761452,35.1402211 C89.4761452,60.4861442 68.8307681,81.0548095 43.3888261,81.0548095 C23.5030675,81.0548095 6.53310698,68.4789804 0.0743178945,50.8855189 C1.19140406,75.2465105 21.3972586,94.6790652 46.123453,94.6790652 C71.5662074,94.6790652 92.2115846,74.1096441 92.2115846,48.762965 C92.2107722,43.229056 91.2277363,37.918892 89.4233375,33.0048171 Z" id="path3887" fill-opacity="0.3137" fill="#010101"></path>
                </g>
                <g id="head" transform="translate(44.000000, 45.500000) rotate(-5.000000) translate(-44.000000, -45.500000) translate(11.000000, 3.000000)">
                    <path d="M48.8104318,18.4692197 L40,35 C45.6590018,32.572655 51.4528993,30.5018012 57.8335521,30.9568283 C75.6240699,32.2217715 60.5033297,11.3970739 48.8104318,18.4692197 Z" id="path4090" stroke="#010101" stroke-width="2.19355101" fill="#ED2224" stroke-linecap="round" stroke-linejoin="round"></path>
                    <path d="M43.5894504,12.2282085 L39,34 C43.8374856,29.1876019 48.8798002,24.7272323 55.0662769,22.8752566 C72.3151215,17.71083 53.1059991,-0.0154537734 43.5894504,12.2282085 Z" id="path4092" stroke="#010101" stroke-width="2.38853332" fill="#ED2224" stroke-linecap="round" stroke-linejoin="round"></path>
                    <path d="M64.9999987,48.5 C65.0049057,66.9991395 50.9005875,82 33.5004091,82 C16.1002308,82 1.99427692,66.9991395 2.00000174,48.5 C1.99427692,30.0000485 16.1002308,15 33.5004091,15 C50.9005875,15 65.0049057,30.0000485 64.9999987,48.5 Z" id="path3984" stroke="#010101" stroke-width="2.4372789" fill="#C7612B" stroke-linecap="round" stroke-linejoin="round"></path>
                    <g id="eye-r" transform="translate(39.000000, 33.000000)" stroke="#010101">
                        <path d="M18.3373752,10.3625946 C18.1897567,15.6599584 14.057565,19.8530004 9.11065437,19.7267922 C4.16261685,19.5994572 0.274953576,15.2024537 0.423698954,9.90396305 C0.57357119,4.60659926 4.70350913,0.414684082 9.65154665,0.540892281 C14.5995842,0.66710048 18.4895012,5.06523084 18.3373752,10.3625946 Z" id="path4014" stroke-width="3.05333693" fill="#FFFFFF" stroke-linecap="round" stroke-linejoin="round"></path>
                        <path d="M12.3650229,11.8523021 C12.3154411,13.61809 10.9384195,15.0153951 9.28982493,14.9748282 C7.64010348,14.9320075 6.34308886,13.4659641 6.39379751,11.7001762 C6.4433793,9.93438824 7.81927404,8.53708318 9.4689955,8.57990381 C11.1198438,8.62047074 12.4157316,10.0865142 12.3650229,11.8523021 Z" id="path4016" stroke-width="1.12685892" fill="#010101"></path>
                    </g>
                    <g id="eye-l" transform="translate(15.000000, 22.000000)" stroke="#010101">
                        <path d="M17.8370498,12.0100624 C16.1760598,16.8442871 11.1671719,19.6253749 6.65297506,18.2213087 C2.13877823,16.8172425 -0.173536274,11.7598997 1.49196121,6.92454806 C3.15295126,2.0903233 8.1607123,-0.690764518 12.676036,0.714428555 C17.1902328,2.11849477 19.5014205,7.17696446 17.8370498,12.0100624 Z" id="path4012" stroke-width="3.05333693" fill="#FFFFFF" stroke-linecap="round" stroke-linejoin="round"></path>
                        <path d="M12.3898138,11.9920326 C11.8353992,13.6045677 10.1653943,14.5308458 8.66103766,14.0631993 C7.15555414,13.594426 6.38478264,11.9086451 6.93919723,10.2972368 C7.49361182,8.68695541 9.16248988,7.75955052 10.6691003,8.22719697 C12.1723301,8.69597028 12.9453553,10.3817512 12.3898138,11.9920326 Z" id="path4018" stroke-width="1.12685892" fill="#010101"></path>
                    </g>
                    <path d="M63.7101446,37 L62.9726181,38.1901678 C63.069704,39.568597 63.1080488,40.96965 63.1080488,42.3909026 C63.1080488,62.632643 44.0735028,79.4323503 30.9171405,77.2297723 C19.9619356,75.3956373 6.8863422,68.4186523 1,53.7051726 C3.99497744,71.7386791 23.4888458,85.1036251 32.8099075,84.9993946 C53.4785967,84.7691177 65,69.2557289 65,49.0139884 C65,44.8059817 64.5773908,40.7644208 63.7101446,37 Z" id="path4022" fill-opacity="0.3137" fill="#010101"></path>
                    <path d="M15.1331862,55.2220076 L10,84 L29.6015103,65.0365481 C31.8994781,53.3884498 23.8863025,48.1085586 15.1331862,55.2220076 Z" id="path3454" stroke="#010101" stroke-width="2.19355101" fill="#ED2224" stroke-linecap="round" stroke-linejoin="round"></path>
                    <path d="M19.5520028,46 L0,67.0362611 L26.7487881,68 C34.8482378,59.6873489 30.7837956,47.6446414 19.5520028,46 Z" id="path4088" stroke="#010101" stroke-width="2.5177091" fill="#FEDA00" stroke-linecap="round" stroke-linejoin="round"></path>
                    <path d="M37,6.52817177 L38.5645503,33 C41.6961174,26.4885853 45.1096817,20.356437 50.2489376,17.1039643 C64.581468,8.03229886 42.4311189,-9.55871013 37,6.52817177 Z" id="path4094" stroke="#010101" stroke-width="2.4874056" fill="#ED2224" stroke-linecap="round" stroke-linejoin="round"></path>
                </g>
            </g>
            <g id="crooks-4" transform="translate(827.000000, 1.000000)" fill-rule="nonzero">
                <path d="M47.5845608,86.22734 C45.0172937,86.1599086 43.5476742,93.0638915 41.4296835,95.6953478 C39.6202548,100.372578 32.0603497,112.846709 29.0732107,118.64843 C26.2516978,116.498744 21.0994042,113.985116 17.1737603,113.094697 C14.901404,113.083323 13.8736847,116.845669 16.2248464,117.586602 C17.6855889,118.380342 25.5203405,120.465264 24.3146999,121.178575 C20.653907,122.381778 14.3522038,121.66092 10.8092127,123.099727 C8.78058421,124.703456 10.6627759,126.748504 13.0571963,127.164295 C17.4897941,126.023649 22.1594629,126.633768 26.5871862,125.4525 C25.8291925,127.825597 23.4869674,129.827415 23.535713,132.375997 C24.0670398,135.019632 28.0739263,135.00907 28.5825052,132.103834 C30.0651832,129.335898 31.4544322,126.511904 32.9119249,123.730156 C36.9171866,122.454647 41.1531773,121.770584 45.0674472,120.335839 C47.1058248,119.079828 46.0959789,115.515714 43.7155699,116.029167 C40.4488037,116.798535 37.1990985,117.773446 33.9656419,118.63868 C37.5769376,112.089039 44.3988763,99.0704879 47.4822712,94.5437384 C47.5131434,93.1049314 48.9088157,86.2833974 47.5845608,86.22734 Z" id="crooks-leg-left" stroke="#010101" stroke-width="2.3705787" fill="#F47521" stroke-linecap="round" transform="translate(29.050852, 110.274471) rotate(28.000000) translate(-29.050852, -110.274471) "></path>
                <path d="M80.2956618,120.874211 C77.4537946,121.479469 78.2085386,125.15976 78.5985032,127.371997 C78.7739873,132.197809 79.3093762,137.047182 79.5498544,141.887618 C76.0409852,140.955765 72.5971101,138.887327 68.9850628,138.671222 C66.3008063,139.204174 67.3805209,143.612399 69.8600459,143.454788 C73.2998589,144.877346 77.344117,145.568721 80.4077766,147.447051 C82.100873,150.781248 82.9896674,154.734515 85.176719,157.708807 C87.0842959,159.19311 90.1983259,156.561661 88.6270935,154.353487 C87.9592791,152.205432 84.696575,147.589225 88.8074521,149.99157 C92.7859037,151.167963 96.6603647,153.073915 100.701373,153.824597 C103.293825,153.678361 103.219082,149.130398 100.581946,149.105213 C97.1356341,147.915821 93.6885093,146.723991 90.242197,145.534599 C92.7363457,144.498756 96.0055491,144.921217 98.0772362,143.007954 C99.4754219,141.050819 96.8025393,138.351938 94.9307091,139.552704 C91.4291518,140.441499 87.9284069,141.330293 84.4268495,142.219088 C83.886586,135.527945 83.7460363,128.710875 82.7873732,122.104225 C82.3007299,121.190245 81.2429508,120.706039 80.2956618,120.874211 Z" id="crooks-leg-right" stroke="#010101" stroke-width="2.3705787" fill="#F47521" stroke-linecap="round" transform="translate(85.011041, 139.491553) rotate(-8.000000) translate(-85.011041, -139.491553) "></path>
                <g id="tail" transform="translate(129.265392, 55.299218) rotate(31.210240) translate(-129.265392, -55.299218) translate(114.265392, 31.299218)" stroke="#010101" stroke-width="3.36092651" fill="#964D22" stroke-linecap="round" stroke-linejoin="round">
                    <path d="M18.7596137,13.0482699 C19.9733786,7.43765367 18.9935925,4.04739857 17.9203773,3.20085032 C15.4944722,0.862687327 12.6249824,0.8464388 9.90416662,0.108755687 C8.2963749,0.114442671 6.41560794,-0.468067012 4.45684804,4.81757873 C2.88886521,9.94155164 2.03013057,16.3605321 1.33713091,22.0402046 C-0.00824710641,33.6302788 0.705875643,44.2210685 3.53230687,45.7744276 C7.08260996,48.0516586 12.4511232,37.5071772 16.1257275,24.1525131 C17.1047012,20.6403941 17.9959329,16.8918589 18.7596137,13.0482699 Z" id="path3971"></path>
                    <path d="M28.3641178,19.355948 C30.5666056,14.3026562 30.176641,10.8214094 29.250475,9.74331961 C27.2340328,6.90307714 24.3604809,6.17026858 21.7664036,4.78426925 C20.1561746,4.38699277 18.3745236,3.36008588 15.4847231,7.91536035 C13.0165719,12.4153898 11.0269398,18.3282287 9.33709304,23.5765028 C5.9549622,34.305405 4.80862864,44.5939722 7.36614675,46.785086 C10.5224231,49.8463084 17.7530175,41.1249117 23.7763463,29.2976091 C25.3735765,26.1876411 26.9253108,22.8323203 28.3641178,19.355948 Z" id="path3975"></path>
                </g>
                <g id="body" transform="translate(30.858268, 44.000000)">
                    <path d="M87.9681121,39.451572 C87.9760489,60.812425 68.7865809,78.1339799 45.1136443,78.1339799 C21.4415014,78.1339799 2.25123974,60.812425 2.25758914,39.451572 C2.25123974,18.088809 21.4407077,0.768527392 45.1136443,0.768527392 C68.7857872,0.768527392 87.9752552,18.088809 87.9681121,39.451572 Z" stroke="#010101" stroke-width="3.2497052" fill="url(#radialGradient-3)" stroke-linecap="round" stroke-linejoin="round"></path>
                    <path d="M87.3593636,27.7964936 C87.3919043,28.3904519 87.4109525,28.9945959 87.4109525,29.5949203 C87.4109525,50.9411314 67.2420899,68.2639594 42.3873716,68.2639594 C22.9605948,68.2639594 6.38231679,57.6726585 0.0726025683,42.8555322 C1.16390534,63.3722388 20.9033899,79.7382402 45.0588808,79.7382402 C69.9143927,79.7382402 90.0832553,62.4147755 90.0832553,41.0679279 C90.0824617,36.4072971 89.1221152,31.9351032 87.3593636,27.7964936 Z" id="path3887" fill-opacity="0.3137" fill="#010101"></path>
                </g>
                <g id="head" transform="translate(12.000000, 0.000000)">
                    <path d="M56.8104318,20.4692197 L48,37 C53.6590018,34.572655 59.4528993,32.5018012 65.8335521,32.9568283 C83.6240699,34.2217715 68.5033297,13.3970739 56.8104318,20.4692197 Z" id="path4090" stroke="#010101" stroke-width="2.19355101" fill="#ED2224" stroke-linecap="round" stroke-linejoin="round" transform="translate(61.000000, 28.000000) rotate(11.000000) translate(-61.000000, -28.000000) "></path>
                    <path d="M51.5894504,14.2282085 L47,36 C51.8374856,31.1876019 56.8798002,26.7272323 63.0662769,24.8752566 C80.3151215,19.71083 61.1059991,1.98454623 51.5894504,14.2282085 Z" id="path4092" stroke="#010101" stroke-width="2.38853332" fill="#ED2224" stroke-linecap="round" stroke-linejoin="round" transform="translate(58.500000, 23.000000) rotate(11.000000) translate(-58.500000, -23.000000) "></path>
                    <path d="M66.9999988,51.5 C67.0045164,69.9991395 54.0195885,85 38.0003767,85 C21.9811649,85 8.99473114,69.9991395 9.0000016,51.5 C8.99473114,33.0000485 21.9811649,18 38.0003767,18 C54.0195885,18 67.0045164,33.0000485 66.9999988,51.5 Z" id="path3984" stroke="#010101" stroke-width="2.4372789" fill="#C7612B" stroke-linecap="round" stroke-linejoin="round"></path>
                    <g id="eye-r" transform="translate(41.000000, 37.000000)" stroke="#010101">
                        <path d="M18.9955274,11.0129534 C18.8424866,16.660991 14.5585123,21.1316032 9.42989305,20.9970403 C4.30010551,20.8612759 0.269641597,16.1732005 0.423850651,10.5239615 C0.579227955,4.8759239 4.8608657,0.406513188 9.99065324,0.541076091 C15.1204408,0.675638995 19.1532412,5.36491588 18.9955274,11.0129534 Z" id="path4014" stroke-width="3.05333693" fill="#FFFFFF" stroke-linecap="round" stroke-linejoin="round"></path>
                        <path d="M10.5911073,10.2399013 C10.5479501,11.6753341 9.34935789,12.8112223 7.9143821,12.7782449 C6.47842546,12.7434354 5.34947321,11.5516689 5.39361123,10.116236 C5.43676839,8.68080318 6.63437977,7.54491502 8.0703364,7.5797245 C9.50727389,7.6127019 10.6352453,8.80446842 10.5911073,10.2399013 Z" id="path4016" stroke-width="1.12685892" fill="#010101"></path>
                    </g>
                    <g id="eye-l" transform="translate(19.000000, 25.000000)" stroke="#010101">
                        <path d="M17.8370498,12.0100624 C16.1760598,16.8442871 11.1671719,19.6253749 6.65297506,18.2213087 C2.13877823,16.8172425 -0.173536274,11.7598997 1.49196121,6.92454806 C3.15295126,2.0903233 8.1607123,-0.690764518 12.676036,0.714428555 C17.1902328,2.11849477 19.5014205,7.17696446 17.8370498,12.0100624 Z" id="path4012" stroke-width="3.05333693" fill="#FFFFFF" stroke-linecap="round" stroke-linejoin="round"></path>
                        <path d="M10.8450046,10.1965598 C10.3679264,11.5230056 8.93087386,12.2849473 7.63636297,11.9002687 C6.3408824,11.5146632 5.67762738,10.1279665 6.15470555,8.80244764 C6.63178372,7.47785569 8.0678666,6.71498713 9.36431684,7.09966569 C10.6578581,7.48527118 11.3230524,8.87196786 10.8450046,10.1965598 Z" id="path4018" stroke-width="1.12685892" fill="#010101"></path>
                    </g>
                    <path d="M65.8109145,40 L65.1310073,41.1901678 C65.2205084,42.568597 65.2558575,43.96965 65.2558575,45.3909026 C65.2558575,65.632643 47.7083854,82.4323503 35.5798639,80.2297723 C25.4805344,78.3956373 13.4264717,71.4186523 8,56.7051726 C10.7609948,74.7386791 28.7319047,88.1036251 37.3247584,87.9993946 C56.3787064,87.7691177 67,72.2557289 67,52.0139884 C67,47.8059817 66.6104072,43.7644208 65.8109145,40 Z" id="path4022" fill-opacity="0.3137" fill="#010101"></path>
                    <path d="M16.425521,54.0321158 L11.2923347,82.8101083 L30.8938451,63.8466563 C33.1918128,52.1985581 25.1786373,46.9186669 16.425521,54.0321158 Z" id="path3454" stroke="#010101" stroke-width="2.19355101" fill="#ED2224" stroke-linecap="round" stroke-linejoin="round" transform="translate(21.292335, 66.810108) rotate(-4.000000) translate(-21.292335, -66.810108) "></path>
                    <path d="M19.5520028,46 L0,67.0362611 L26.7487881,68 C34.8482378,59.6873489 30.7837956,47.6446414 19.5520028,46 Z" id="path4088" stroke="#010101" stroke-width="2.5177091" fill="#FEDA00" stroke-linecap="round" stroke-linejoin="round"></path>
                    <path d="M45,8.52817177 L46.5645503,35 C49.6961174,28.4885853 53.1096817,22.356437 58.2489376,19.1039643 C72.581468,10.0322989 50.4311189,-7.55871013 45,8.52817177 Z" id="path4094" stroke="#010101" stroke-width="2.4874056" fill="#ED2224" stroke-linecap="round" stroke-linejoin="round" transform="translate(54.000000, 18.500000) rotate(11.000000) translate(-54.000000, -18.500000) "></path>
                </g>
            </g>
            <g id="crooks-4" transform="translate(410.000000, 1.000000)" fill-rule="nonzero">
                <path d="M71.3119546,109.918124 C68.7446875,109.850692 68.3145512,117.997836 68.1309429,119.993967 C67.3168917,125.239804 60.9913756,137.08715 59.8964368,142.281555 C55.9911036,141.183967 52.1808242,139.484371 48.2551804,138.593952 C45.982824,138.582578 44.9551047,142.344924 47.3062664,143.085857 C48.7670089,143.879598 54.2395125,144.718022 53.0338719,145.431332 C49.373079,146.634535 45.4336238,147.160175 41.8906327,148.598982 C39.8620043,150.202711 41.8069528,153.820446 44.1386163,152.663551 C48.5712142,151.522904 52.982689,150.266893 57.4104123,149.085625 C56.6524186,151.458723 54.3101936,153.460541 54.3589392,156.009122 C54.890266,158.652757 58.8971525,158.642196 59.4057313,155.736959 C60.8884093,152.969023 62.2776583,150.145029 63.7351511,147.363282 C67.7404127,146.087772 71.9764035,145.403709 75.8906734,143.968964 C77.929051,142.712953 76.9192051,139.148839 74.538796,139.662293 C71.2720299,140.43166 68.0223247,141.406572 64.788868,142.271806 C66.2165569,136.001906 72.4952969,123.431343 73.4239002,117.323522 C73.4547724,115.884715 72.6362094,109.974181 71.3119546,109.918124 Z" id="crooks-leg-left" stroke="#010101" stroke-width="2.3705787" fill="#F47521" stroke-linecap="round" transform="translate(59.013502, 133.936463) rotate(-16.000000) translate(-59.013502, -133.936463) "></path>
                <path d="M79.4336693,117.0983 C76.8490361,117.635437 81.606981,116.30963 81.9616476,118.272882 C82.3163143,120.236134 84.9741329,129.348475 85.192844,133.644125 C82.001583,132.817151 78.8694332,130.981514 75.5843333,130.789731 C73.1430445,131.2627 74.1250278,135.174784 76.3801166,135.034912 C79.508572,136.297364 83.1867607,136.910925 85.9731106,138.577851 C87.512955,141.536788 88.3212994,145.045119 90.3103882,147.684659 C92.0452992,149.001905 94.8774602,146.666623 93.4484492,144.706975 C92.8410825,142.800681 89.8737049,138.704024 93.6124825,140.835987 C97.2308212,141.879979 101.004045,141.445565 104.679278,142.111758 C107.037073,141.98198 106.969095,137.945886 104.570662,137.923535 C101.436295,136.868008 98.0517268,137.936171 94.9173602,136.880643 C96.6253158,134.626342 98.8411943,131.856459 100.725361,130.158531 C101.996989,128.421669 99.5660442,126.026545 97.8636443,127.092166 C94.6790333,127.880928 92.767291,131.251635 89.6283938,133.938289 C89.3055803,130.037112 88.4185867,121.685648 86.1893118,118.395228 C85.0253611,116.677231 81.9989184,120.201042 81.6998415,118.189877 C81.257247,117.378765 80.2952137,116.949055 79.4336693,117.0983 Z" id="crooks-leg-right" stroke="#010101" stroke-width="2.13352083" fill="#F47521" stroke-linecap="round" transform="translate(90.284438, 132.569008) rotate(13.000000) translate(-90.284438, -132.569008) "></path>
                <g id="tail" transform="translate(127.265392, 54.299218) rotate(31.210240) translate(-127.265392, -54.299218) translate(112.265392, 30.299218)" stroke="#010101" stroke-width="3.36092651" fill="#964D22" stroke-linecap="round" stroke-linejoin="round">
                    <path d="M18.7596137,13.0482699 C19.9733786,7.43765367 18.9935925,4.04739857 17.9203773,3.20085032 C15.4944722,0.862687327 12.6249824,0.8464388 9.90416662,0.108755687 C8.2963749,0.114442671 6.41560794,-0.468067012 4.45684804,4.81757873 C2.88886521,9.94155164 2.03013057,16.3605321 1.33713091,22.0402046 C-0.00824710641,33.6302788 0.705875643,44.2210685 3.53230687,45.7744276 C7.08260996,48.0516586 12.4511232,37.5071772 16.1257275,24.1525131 C17.1047012,20.6403941 17.9959329,16.8918589 18.7596137,13.0482699 Z" id="path3971"></path>
                    <path d="M28.3641178,19.355948 C30.5666056,14.3026562 30.176641,10.8214094 29.250475,9.74331961 C27.2340328,6.90307714 24.3604809,6.17026858 21.7664036,4.78426925 C20.1561746,4.38699277 18.3745236,3.36008588 15.4847231,7.91536035 C13.0165719,12.4153898 11.0269398,18.3282287 9.33709304,23.5765028 C5.9549622,34.305405 4.80862864,44.5939722 7.36614675,46.785086 C10.5224231,49.8463084 17.7530175,41.1249117 23.7763463,29.2976091 C25.3735765,26.1876411 26.9253108,22.8323203 28.3641178,19.355948 Z" id="path3975"></path>
                </g>
                <g id="body" transform="translate(32.858268, 43.000000)">
                    <path d="M87.9681121,39.451572 C87.9760489,60.812425 68.7865809,78.1339799 45.1136443,78.1339799 C21.4415014,78.1339799 2.25123974,60.812425 2.25758914,39.451572 C2.25123974,18.088809 21.4407077,0.768527392 45.1136443,0.768527392 C68.7857872,0.768527392 87.9752552,18.088809 87.9681121,39.451572 Z" stroke="#010101" stroke-width="3.2497052" fill="url(#radialGradient-3)" stroke-linecap="round" stroke-linejoin="round"></path>
                    <path d="M87.3593636,27.7964936 C87.3919043,28.3904519 87.4109525,28.9945959 87.4109525,29.5949203 C87.4109525,50.9411314 67.2420899,68.2639594 42.3873716,68.2639594 C22.9605948,68.2639594 6.38231679,57.6726585 0.0726025683,42.8555322 C1.16390534,63.3722388 20.9033899,79.7382402 45.0588808,79.7382402 C69.9143927,79.7382402 90.0832553,62.4147755 90.0832553,41.0679279 C90.0824617,36.4072971 89.1221152,31.9351032 87.3593636,27.7964936 Z" id="path3887" fill-opacity="0.3137" fill="#010101"></path>
                </g>
                <g id="head">
                    <path d="M58.8104318,22.4692197 L50,39 C55.6590018,36.572655 61.4528993,34.5018012 67.8335521,34.9568283 C85.6240699,36.2217715 70.5033297,15.3970739 58.8104318,22.4692197 Z" id="path4090" stroke="#010101" stroke-width="2.19355101" fill="#ED2224" stroke-linecap="round" stroke-linejoin="round" transform="translate(63.000000, 30.000000) rotate(11.000000) translate(-63.000000, -30.000000) "></path>
                    <path d="M53.5894504,16.2282085 L49,38 C53.8374856,33.1876019 58.8798002,28.7272323 65.0662769,26.8752566 C82.3151215,21.71083 63.1059991,3.98454623 53.5894504,16.2282085 Z" id="path4092" stroke="#010101" stroke-width="2.38853332" fill="#ED2224" stroke-linecap="round" stroke-linejoin="round" transform="translate(60.500000, 25.000000) rotate(11.000000) translate(-60.500000, -25.000000) "></path>
                    <path d="M66.9999988,50.5 C67.0045164,68.9991395 54.0195885,84 38.0003767,84 C21.9811649,84 8.99473114,68.9991395 9.0000016,50.5 C8.99473114,32.0000485 21.9811649,17 38.0003767,17 C54.0195885,17 67.0045164,32.0000485 66.9999988,50.5 Z" id="path3984" stroke="#010101" stroke-width="2.4372789" fill="#C7612B" stroke-linecap="round" stroke-linejoin="round"></path>
                    <g id="eye-r" transform="translate(41.000000, 36.000000)" stroke="#010101">
                        <path d="M18.9955274,11.0129534 C18.8424866,16.660991 14.5585123,21.1316032 9.42989305,20.9970403 C4.30010551,20.8612759 0.269641597,16.1732005 0.423850651,10.5239615 C0.579227955,4.8759239 4.8608657,0.406513188 9.99065324,0.541076091 C15.1204408,0.675638995 19.1532412,5.36491588 18.9955274,11.0129534 Z" id="path4014" stroke-width="3.05333693" fill="#FFFFFF" stroke-linecap="round" stroke-linejoin="round"></path>
                        <path d="M10.5911073,10.2399013 C10.5479501,11.6753341 9.34935789,12.8112223 7.9143821,12.7782449 C6.47842546,12.7434354 5.34947321,11.5516689 5.39361123,10.116236 C5.43676839,8.68080318 6.63437977,7.54491502 8.0703364,7.5797245 C9.50727389,7.6127019 10.6352453,8.80446842 10.5911073,10.2399013 Z" id="path4016" stroke-width="1.12685892" fill="#010101"></path>
                    </g>
                    <g id="eye-l" transform="translate(19.000000, 24.000000)" stroke="#010101">
                        <path d="M17.8370498,12.0100624 C16.1760598,16.8442871 11.1671719,19.6253749 6.65297506,18.2213087 C2.13877823,16.8172425 -0.173536274,11.7598997 1.49196121,6.92454806 C3.15295126,2.0903233 8.1607123,-0.690764518 12.676036,0.714428555 C17.1902328,2.11849477 19.5014205,7.17696446 17.8370498,12.0100624 Z" id="path4012" stroke-width="3.05333693" fill="#FFFFFF" stroke-linecap="round" stroke-linejoin="round"></path>
                        <path d="M10.8450046,10.1965598 C10.3679264,11.5230056 8.93087386,12.2849473 7.63636297,11.9002687 C6.3408824,11.5146632 5.67762738,10.1279665 6.15470555,8.80244764 C6.63178372,7.47785569 8.0678666,6.71498713 9.36431684,7.09966569 C10.6578581,7.48527118 11.3230524,8.87196786 10.8450046,10.1965598 Z" id="path4018" stroke-width="1.12685892" fill="#010101"></path>
                    </g>
                    <path d="M65.8109145,39 L65.1310073,40.1901678 C65.2205084,41.568597 65.2558575,42.96965 65.2558575,44.3909026 C65.2558575,64.632643 47.7083854,81.4323503 35.5798639,79.2297723 C25.4805344,77.3956373 13.4264717,70.4186523 8,55.7051726 C10.7609948,73.7386791 28.7319047,87.1036251 37.3247584,86.9993946 C56.3787064,86.7691177 67,71.2557289 67,51.0139884 C67,46.8059817 66.6104072,42.7644208 65.8109145,39 Z" id="path4022" fill-opacity="0.3137" fill="#010101"></path>
                    <path d="M16.425521,53.0321158 L11.2923347,81.8101083 L30.8938451,62.8466563 C33.1918128,51.1985581 25.1786373,45.9186669 16.425521,53.0321158 Z" id="path3454" stroke="#010101" stroke-width="2.19355101" fill="#ED2224" stroke-linecap="round" stroke-linejoin="round" transform="translate(21.292335, 65.810108) rotate(-4.000000) translate(-21.292335, -65.810108) "></path>
                    <path d="M19.5520028,45 L0,66.0362611 L26.7487881,67 C34.8482378,58.6873489 30.7837956,46.6446414 19.5520028,45 Z" id="path4088" stroke="#010101" stroke-width="2.5177091" fill="#FEDA00" stroke-linecap="round" stroke-linejoin="round"></path>
                    <path d="M45,8.52817177 L46.5645503,35 C49.6961174,28.4885853 53.1096817,22.356437 58.2489376,19.1039643 C72.581468,10.0322989 50.4311189,-7.55871013 45,8.52817177 Z" id="path4094" stroke="#010101" stroke-width="2.4874056" fill="#ED2224" stroke-linecap="round" stroke-linejoin="round" transform="translate(54.000000, 18.500000) rotate(11.000000) translate(-54.000000, -18.500000) "></path>
                </g>
            </g>
            <g id="crooks-5" transform="translate(627.000000, 4.000000)" fill-rule="nonzero">
                <path d="M49.3988804,107.039732 C46.8316133,106.972301 46.4014771,115.119444 46.2178687,117.115576 C45.4038176,122.361412 43.1046512,135.462391 42.3791545,140.720414 C38.4738212,139.622826 34.6635419,137.92323 30.737898,137.032811 C28.4655417,137.021437 27.4378224,140.783783 29.7889841,141.524716 C31.2497266,142.318457 36.7222301,143.156881 35.5165895,143.870191 C31.8557966,145.073394 27.9163415,145.599034 24.3733504,147.037841 C22.3447219,148.64157 24.2896705,152.259305 26.621334,151.10241 C31.0539318,149.961763 35.4654067,148.705752 39.89313,147.524484 C39.1351363,149.897582 36.7929112,151.8994 36.8416568,154.447981 C37.3729836,157.091616 41.3798701,157.081055 41.888449,154.175818 C43.371127,151.407882 44.760376,148.583888 46.2178687,145.802141 C50.2231304,144.526631 54.4591211,143.842568 58.373391,142.407823 C60.4117686,141.151812 59.4019227,137.587698 57.0215137,138.101152 C53.7547475,138.870519 50.5050423,139.845431 47.2715857,140.710665 C48.0994481,134.556536 50.5822228,120.552951 51.5108261,114.44513 C51.5416983,113.006323 50.7231353,107.095789 49.3988804,107.039732 Z" id="crooks-leg-left" stroke="#010101" stroke-width="2.3705787" fill="#F47521" stroke-linecap="round" transform="translate(41.496220, 131.716697) rotate(12.000000) translate(-41.496220, -131.716697) "></path>
                <path d="M71.2739623,115.029292 C68.6893291,115.566429 73.447274,114.240622 73.8019406,116.203874 C74.1566073,118.167126 76.8144259,127.279467 77.033137,131.575118 C73.841876,130.748144 70.7097262,128.912506 67.4246263,128.720723 C64.9833375,129.193692 65.9653208,133.105776 68.2204096,132.965905 C71.348865,134.228356 75.0270538,134.841917 77.8134036,136.508843 C79.353248,139.46778 80.1615924,142.976111 82.1506812,145.615651 C83.8855923,146.932897 86.7177532,144.597615 85.2887422,142.637968 C84.6813755,140.731674 81.7139979,136.635016 85.4527755,138.766979 C89.0711142,139.810971 92.5948752,141.50241 96.2701084,142.168604 C98.6279027,142.038826 98.5599249,138.002731 96.1614917,137.980381 C93.0271252,136.924853 89.8920198,135.867163 86.7576532,134.811636 C89.026042,133.892375 91.2838569,131.629324 93.1680235,129.931395 C94.4396512,128.194534 92.0087069,125.799409 90.3063069,126.865031 C87.121696,127.653792 84.6532978,131.080519 81.4686868,131.869281 C81.1458733,127.968104 80.2588797,119.61664 78.0296048,116.32622 C76.8656541,114.608223 73.8392114,118.132034 73.5401345,116.120869 C73.09754,115.309757 72.1355068,114.880048 71.2739623,115.029292 Z" id="crooks-leg-right" stroke="#010101" stroke-width="2.13352083" fill="#F47521" stroke-linecap="round" transform="translate(82.000000, 130.500000) rotate(-10.000000) translate(-82.000000, -130.500000) "></path>
                <g id="tail" transform="translate(113.265392, 54.299218) rotate(31.210240) translate(-113.265392, -54.299218) translate(98.265392, 30.299218)" stroke="#010101" stroke-width="3.36092651" fill="#964D22" stroke-linecap="round" stroke-linejoin="round">
                    <path d="M18.7596137,13.0482699 C19.9733786,7.43765367 18.9935925,4.04739857 17.9203773,3.20085032 C15.4944722,0.862687327 12.6249824,0.8464388 9.90416662,0.108755687 C8.2963749,0.114442671 6.41560794,-0.468067012 4.45684804,4.81757873 C2.88886521,9.94155164 2.03013057,16.3605321 1.33713091,22.0402046 C-0.00824710641,33.6302788 0.705875643,44.2210685 3.53230687,45.7744276 C7.08260996,48.0516586 12.4511232,37.5071772 16.1257275,24.1525131 C17.1047012,20.6403941 17.9959329,16.8918589 18.7596137,13.0482699 Z" id="path3971"></path>
                    <path d="M28.3641178,19.355948 C30.5666056,14.3026562 30.176641,10.8214094 29.250475,9.74331961 C27.2340328,6.90307714 24.3604809,6.17026858 21.7664036,4.78426925 C20.1561746,4.38699277 18.3745236,3.36008588 15.4847231,7.91536035 C13.0165719,12.4153898 11.0269398,18.3282287 9.33709304,23.5765028 C5.9549622,34.305405 4.80862864,44.5939722 7.36614675,46.785086 C10.5224231,49.8463084 17.7530175,41.1249117 23.7763463,29.2976091 C25.3735765,26.1876411 26.9253108,22.8323203 28.3641178,19.355948 Z" id="path3975"></path>
                </g>
                <g id="body" transform="translate(18.858268, 43.000000)">
                    <path d="M87.9681121,39.451572 C87.9760489,60.812425 68.7865809,78.1339799 45.1136443,78.1339799 C21.4415014,78.1339799 2.25123974,60.812425 2.25758914,39.451572 C2.25123974,18.088809 21.4407077,0.768527392 45.1136443,0.768527392 C68.7857872,0.768527392 87.9752552,18.088809 87.9681121,39.451572 Z" stroke="#010101" stroke-width="3.2497052" fill="url(#radialGradient-3)" stroke-linecap="round" stroke-linejoin="round"></path>
                    <path d="M87.3593636,27.7964936 C87.3919043,28.3904519 87.4109525,28.9945959 87.4109525,29.5949203 C87.4109525,50.9411314 67.2420899,68.2639594 42.3873716,68.2639594 C22.9605948,68.2639594 6.38231679,57.6726585 0.0726025683,42.8555322 C1.16390534,63.3722388 20.9033899,79.7382402 45.0588808,79.7382402 C69.9143927,79.7382402 90.0832553,62.4147755 90.0832553,41.0679279 C90.0824617,36.4072971 89.1221152,31.9351032 87.3593636,27.7964936 Z" id="path3887" fill-opacity="0.3137" fill="#010101"></path>
                </g>
                <g id="head">
                    <path d="M58.8104318,22.4692197 L50,39 C55.6590018,36.572655 61.4528993,34.5018012 67.8335521,34.9568283 C85.6240699,36.2217715 70.5033297,15.3970739 58.8104318,22.4692197 Z" id="path4090" stroke="#010101" stroke-width="2.19355101" fill="#ED2224" stroke-linecap="round" stroke-linejoin="round" transform="translate(63.000000, 30.000000) rotate(11.000000) translate(-63.000000, -30.000000) "></path>
                    <path d="M53.5894504,16.2282085 L49,38 C53.8374856,33.1876019 58.8798002,28.7272323 65.0662769,26.8752566 C82.3151215,21.71083 63.1059991,3.98454623 53.5894504,16.2282085 Z" id="path4092" stroke="#010101" stroke-width="2.38853332" fill="#ED2224" stroke-linecap="round" stroke-linejoin="round" transform="translate(60.500000, 25.000000) rotate(11.000000) translate(-60.500000, -25.000000) "></path>
                    <path d="M66.9999988,50.5 C67.0045164,68.9991395 54.0195885,84 38.0003767,84 C21.9811649,84 8.99473114,68.9991395 9.0000016,50.5 C8.99473114,32.0000485 21.9811649,17 38.0003767,17 C54.0195885,17 67.0045164,32.0000485 66.9999988,50.5 Z" id="path3984" stroke="#010101" stroke-width="2.4372789" fill="#C7612B" stroke-linecap="round" stroke-linejoin="round"></path>
                    <g id="eye-r" transform="translate(41.000000, 36.000000)" stroke="#010101">
                        <path d="M18.9955274,11.0129534 C18.8424866,16.660991 14.5585123,21.1316032 9.42989305,20.9970403 C4.30010551,20.8612759 0.269641597,16.1732005 0.423850651,10.5239615 C0.579227955,4.8759239 4.8608657,0.406513188 9.99065324,0.541076091 C15.1204408,0.675638995 19.1532412,5.36491588 18.9955274,11.0129534 Z" id="path4014" stroke-width="3.05333693" fill="#FFFFFF" stroke-linecap="round" stroke-linejoin="round"></path>
                        <path d="M10.5911073,10.2399013 C10.5479501,11.6753341 9.34935789,12.8112223 7.9143821,12.7782449 C6.47842546,12.7434354 5.34947321,11.5516689 5.39361123,10.116236 C5.43676839,8.68080318 6.63437977,7.54491502 8.0703364,7.5797245 C9.50727389,7.6127019 10.6352453,8.80446842 10.5911073,10.2399013 Z" id="path4016" stroke-width="1.12685892" fill="#010101"></path>
                    </g>
                    <g id="eye-l" transform="translate(19.000000, 24.000000)" stroke="#010101">
                        <path d="M17.8370498,12.0100624 C16.1760598,16.8442871 11.1671719,19.6253749 6.65297506,18.2213087 C2.13877823,16.8172425 -0.173536274,11.7598997 1.49196121,6.92454806 C3.15295126,2.0903233 8.1607123,-0.690764518 12.676036,0.714428555 C17.1902328,2.11849477 19.5014205,7.17696446 17.8370498,12.0100624 Z" id="path4012" stroke-width="3.05333693" fill="#FFFFFF" stroke-linecap="round" stroke-linejoin="round"></path>
                        <path d="M10.8450046,10.1965598 C10.3679264,11.5230056 8.93087386,12.2849473 7.63636297,11.9002687 C6.3408824,11.5146632 5.67762738,10.1279665 6.15470555,8.80244764 C6.63178372,7.47785569 8.0678666,6.71498713 9.36431684,7.09966569 C10.6578581,7.48527118 11.3230524,8.87196786 10.8450046,10.1965598 Z" id="path4018" stroke-width="1.12685892" fill="#010101"></path>
                    </g>
                    <path d="M65.8109145,39 L65.1310073,40.1901678 C65.2205084,41.568597 65.2558575,42.96965 65.2558575,44.3909026 C65.2558575,64.632643 47.7083854,81.4323503 35.5798639,79.2297723 C25.4805344,77.3956373 13.4264717,70.4186523 8,55.7051726 C10.7609948,73.7386791 28.7319047,87.1036251 37.3247584,86.9993946 C56.3787064,86.7691177 67,71.2557289 67,51.0139884 C67,46.8059817 66.6104072,42.7644208 65.8109145,39 Z" id="path4022" fill-opacity="0.3137" fill="#010101"></path>
                    <path d="M16.425521,53.0321158 L11.2923347,81.8101083 L30.8938451,62.8466563 C33.1918128,51.1985581 25.1786373,45.9186669 16.425521,53.0321158 Z" id="path3454" stroke="#010101" stroke-width="2.19355101" fill="#ED2224" stroke-linecap="round" stroke-linejoin="round" transform="translate(21.292335, 65.810108) rotate(-4.000000) translate(-21.292335, -65.810108) "></path>
                    <path d="M19.5520028,45 L0,66.0362611 L26.7487881,67 C34.8482378,58.6873489 30.7837956,46.6446414 19.5520028,45 Z" id="path4088" stroke="#010101" stroke-width="2.5177091" fill="#FEDA00" stroke-linecap="round" stroke-linejoin="round"></path>
                    <path d="M45,8.52817177 L46.5645503,35 C49.6961174,28.4885853 53.1096817,22.356437 58.2489376,19.1039643 C72.581468,10.0322989 50.4311189,-7.55871013 45,8.52817177 Z" id="path4094" stroke="#010101" stroke-width="2.4874056" fill="#ED2224" stroke-linecap="round" stroke-linejoin="round" transform="translate(54.000000, 18.500000) rotate(11.000000) translate(-54.000000, -18.500000) "></path>
                </g>
            </g>
            <g id="crooks-6" transform="translate(1018.000000, -4.000000)" fill-rule="nonzero">
                <path d="M57.3857747,108.955117 C54.5956127,108.881831 53.9031802,116.761955 53.7036306,118.931394 C52.818902,124.632684 60.0303798,139.530199 61.9747012,146.590194 C57.7302997,145.397312 53.5892049,143.550154 49.3227294,142.582427 C46.8530828,142.570065 45.7361351,146.659065 48.291429,147.464327 C49.8789958,148.326982 55.8266322,149.238199 54.5163157,150.01344 C50.537686,151.321108 46.2562001,151.892385 42.4056,153.456112 C40.2008423,155.19908 42.3146548,159.130913 44.8487576,157.873574 C49.6662018,156.633894 54.460689,155.268834 59.2728355,153.985006 C58.4490313,156.56414 55.90345,158.73976 55.9564277,161.509614 C56.5338853,164.382774 60.8886571,164.371296 61.4413917,161.213821 C63.0527985,158.205568 64.5626647,155.13639 66.1466997,152.113125 C70.4997055,150.726874 75.1034728,149.98342 79.3575868,148.424108 C81.5729401,147.059047 80.4754175,143.18549 77.888337,143.743523 C74.3379441,144.579688 70.8060936,145.639243 67.2919022,146.579599 C65.3697478,139.088378 58.4469059,122.667209 59.4561322,116.029096 C59.4896848,114.465369 58.8250038,109.016042 57.3857747,108.955117 Z" id="crooks-leg-left" stroke="#010101" stroke-width="2.3705787" fill="#F47521" stroke-linecap="round" transform="translate(61.015109, 136.289642) rotate(16.000000) translate(-61.015109, -136.289642) "></path>
                <path d="M88.3226358,111.43384 C90.5332981,112.013306 90.2926138,117.290637 90.3008453,118.601808 C90.6073029,122.088947 83.8799647,130.783105 81.8564318,135.41687 C85.2938239,134.615798 88.6946433,133.455398 92.1339678,132.892078 C94.0870652,132.894606 94.6882056,135.223936 92.6127598,135.753327 C91.298343,136.308395 86.5339622,137.04149 87.5163347,137.490286 C90.5713045,138.135622 93.9164308,138.256982 96.8525469,138.90966 C98.4752784,139.707333 96.5333475,142.085619 94.6168018,141.616099 C90.894067,141.298481 87.1981205,140.803718 83.4826161,140.2611 C83.9560834,141.913626 85.8184174,143.134921 85.5856483,144.934267 C84.9311604,146.874038 81.4895221,147.377754 81.2701918,145.280701 C80.2037016,143.354755 79.2216776,141.328683 78.1778592,139.288535 C74.8323624,138.421218 71.2443399,137.948379 67.9889435,136.775505 C66.3317918,135.688931 67.4663335,132.675868 69.4729521,133.18936 C72.221897,133.906503 74.9407889,134.735895 77.6539362,135.423703 C79.6896651,130.27713 86.2938437,120.179134 85.9535344,115.887853 C86.0347788,114.910095 87.1807324,111.146699 88.3226358,111.43384 Z" id="crooks-leg-left" stroke="#010101" stroke-width="2.0149919" fill="#F47521" stroke-linecap="round" transform="translate(82.324866, 129.028083) rotate(-18.000000) translate(-82.324866, -129.028083) "></path>
                <g id="tail" transform="translate(120.265392, 58.299218) rotate(19.210240) translate(-120.265392, -58.299218) translate(105.265392, 34.299218)" stroke="#010101" stroke-width="3.36092651" fill="#964D22" stroke-linecap="round" stroke-linejoin="round">
                    <path d="M18.7596137,13.0482699 C19.9733786,7.43765367 18.9935925,4.04739857 17.9203773,3.20085032 C15.4944722,0.862687327 12.6249824,0.8464388 9.90416662,0.108755687 C8.2963749,0.114442671 6.41560794,-0.468067012 4.45684804,4.81757873 C2.88886521,9.94155164 2.03013057,16.3605321 1.33713091,22.0402046 C-0.00824710641,33.6302788 0.705875643,44.2210685 3.53230687,45.7744276 C7.08260996,48.0516586 12.4511232,37.5071772 16.1257275,24.1525131 C17.1047012,20.6403941 17.9959329,16.8918589 18.7596137,13.0482699 Z" id="path3971"></path>
                    <path d="M28.3641178,19.355948 C30.5666056,14.3026562 30.176641,10.8214094 29.250475,9.74331961 C27.2340328,6.90307714 24.3604809,6.17026858 21.7664036,4.78426925 C20.1561746,4.38699277 18.3745236,3.36008588 15.4847231,7.91536035 C13.0165719,12.4153898 11.0269398,18.3282287 9.33709304,23.5765028 C5.9549622,34.305405 4.80862864,44.5939722 7.36614675,46.785086 C10.5224231,49.8463084 17.7530175,41.1249117 23.7763463,29.2976091 C25.3735765,26.1876411 26.9253108,22.8323203 28.3641178,19.355948 Z" id="path3975"></path>
                </g>
                <g id="body" transform="translate(22.858268, 48.000000)">
                    <path d="M87.9681121,39.451572 C87.9760489,60.812425 68.7865809,78.1339799 45.1136443,78.1339799 C21.4415014,78.1339799 2.25123974,60.812425 2.25758914,39.451572 C2.25123974,18.088809 21.4407077,0.768527392 45.1136443,0.768527392 C68.7857872,0.768527392 87.9752552,18.088809 87.9681121,39.451572 Z" stroke="#010101" stroke-width="3.2497052" fill="url(#radialGradient-3)" stroke-linecap="round" stroke-linejoin="round"></path>
                    <path d="M87.3593636,27.7964936 C87.3919043,28.3904519 87.4109525,28.9945959 87.4109525,29.5949203 C87.4109525,50.9411314 67.2420899,68.2639594 42.3873716,68.2639594 C22.9605948,68.2639594 6.38231679,57.6726585 0.0726025683,42.8555322 C1.16390534,63.3722388 20.9033899,79.7382402 45.0588808,79.7382402 C69.9143927,79.7382402 90.0832553,62.4147755 90.0832553,41.0679279 C90.0824617,36.4072971 89.1221152,31.9351032 87.3593636,27.7964936 Z" id="path3887" fill-opacity="0.3137" fill="#010101"></path>
                </g>
                <g id="head" transform="translate(42.000000, 48.000000) rotate(5.000000) translate(-42.000000, -48.000000) translate(4.000000, 4.000000)">
                    <path d="M56.8104318,20.4692197 L48,37 C53.6590018,34.572655 59.4528993,32.5018012 65.8335521,32.9568283 C83.6240699,34.2217715 68.5033297,13.3970739 56.8104318,20.4692197 Z" id="path4090" stroke="#010101" stroke-width="2.19355101" fill="#ED2224" stroke-linecap="round" stroke-linejoin="round" transform="translate(61.000000, 28.000000) rotate(11.000000) translate(-61.000000, -28.000000) "></path>
                    <path d="M51.5894504,14.2282085 L47,36 C51.8374856,31.1876019 56.8798002,26.7272323 63.0662769,24.8752566 C80.3151215,19.71083 61.1059991,1.98454623 51.5894504,14.2282085 Z" id="path4092" stroke="#010101" stroke-width="2.38853332" fill="#ED2224" stroke-linecap="round" stroke-linejoin="round" transform="translate(58.500000, 23.000000) rotate(11.000000) translate(-58.500000, -23.000000) "></path>
                    <path d="M66.9999988,51.5 C67.0045164,69.9991395 54.0195885,85 38.0003767,85 C21.9811649,85 8.99473114,69.9991395 9.0000016,51.5 C8.99473114,33.0000485 21.9811649,18 38.0003767,18 C54.0195885,18 67.0045164,33.0000485 66.9999988,51.5 Z" id="path3984" stroke="#010101" stroke-width="2.4372789" fill="#C7612B" stroke-linecap="round" stroke-linejoin="round"></path>
                    <g id="eye-r" transform="translate(41.000000, 37.000000)" stroke="#010101">
                        <path d="M18.9955274,11.0129534 C18.8424866,16.660991 14.5585123,21.1316032 9.42989305,20.9970403 C4.30010551,20.8612759 0.269641597,16.1732005 0.423850651,10.5239615 C0.579227955,4.8759239 4.8608657,0.406513188 9.99065324,0.541076091 C15.1204408,0.675638995 19.1532412,5.36491588 18.9955274,11.0129534 Z" id="path4014" stroke-width="3.05333693" fill="#FFFFFF" stroke-linecap="round" stroke-linejoin="round"></path>
                        <path d="M10.5911073,10.2399013 C10.5479501,11.6753341 9.34935789,12.8112223 7.9143821,12.7782449 C6.47842546,12.7434354 5.34947321,11.5516689 5.39361123,10.116236 C5.43676839,8.68080318 6.63437977,7.54491502 8.0703364,7.5797245 C9.50727389,7.6127019 10.6352453,8.80446842 10.5911073,10.2399013 Z" id="path4016" stroke-width="1.12685892" fill="#010101"></path>
                    </g>
                    <g id="eye-l" transform="translate(19.000000, 25.000000)" stroke="#010101">
                        <path d="M17.8370498,12.0100624 C16.1760598,16.8442871 11.1671719,19.6253749 6.65297506,18.2213087 C2.13877823,16.8172425 -0.173536274,11.7598997 1.49196121,6.92454806 C3.15295126,2.0903233 8.1607123,-0.690764518 12.676036,0.714428555 C17.1902328,2.11849477 19.5014205,7.17696446 17.8370498,12.0100624 Z" id="path4012" stroke-width="3.05333693" fill="#FFFFFF" stroke-linecap="round" stroke-linejoin="round"></path>
                        <path d="M10.8450046,10.1965598 C10.3679264,11.5230056 8.93087386,12.2849473 7.63636297,11.9002687 C6.3408824,11.5146632 5.67762738,10.1279665 6.15470555,8.80244764 C6.63178372,7.47785569 8.0678666,6.71498713 9.36431684,7.09966569 C10.6578581,7.48527118 11.3230524,8.87196786 10.8450046,10.1965598 Z" id="path4018" stroke-width="1.12685892" fill="#010101"></path>
                    </g>
                    <path d="M65.8109145,40 L65.1310073,41.1901678 C65.2205084,42.568597 65.2558575,43.96965 65.2558575,45.3909026 C65.2558575,65.632643 47.7083854,82.4323503 35.5798639,80.2297723 C25.4805344,78.3956373 13.4264717,71.4186523 8,56.7051726 C10.7609948,74.7386791 28.7319047,88.1036251 37.3247584,87.9993946 C56.3787064,87.7691177 67,72.2557289 67,52.0139884 C67,47.8059817 66.6104072,43.7644208 65.8109145,40 Z" id="path4022" fill-opacity="0.3137" fill="#010101"></path>
                    <path d="M16.425521,54.0321158 L11.2923347,82.8101083 L30.8938451,63.8466563 C33.1918128,52.1985581 25.1786373,46.9186669 16.425521,54.0321158 Z" id="path3454" stroke="#010101" stroke-width="2.19355101" fill="#ED2224" stroke-linecap="round" stroke-linejoin="round" transform="translate(21.292335, 66.810108) rotate(-4.000000) translate(-21.292335, -66.810108) "></path>
                    <path d="M19.5520028,46 L0,67.0362611 L26.7487881,68 C34.8482378,59.6873489 30.7837956,47.6446414 19.5520028,46 Z" id="path4088" stroke="#010101" stroke-width="2.5177091" fill="#FEDA00" stroke-linecap="round" stroke-linejoin="round"></path>
                    <path d="M45,8.52817177 L46.5645503,35 C49.6961174,28.4885853 53.1096817,22.356437 58.2489376,19.1039643 C72.581468,10.0322989 50.4311189,-7.55871013 45,8.52817177 Z" id="path4094" stroke="#010101" stroke-width="2.4874056" fill="#ED2224" stroke-linecap="round" stroke-linejoin="round" transform="translate(54.000000, 18.500000) rotate(11.000000) translate(-54.000000, -18.500000) "></path>
                </g>
            </g>
            <g id="crooks-7" transform="translate(1229.000000, 2.000000)" fill-rule="nonzero">
                <path d="M52.5531773,104.194029 C49.9859102,104.126597 49.555774,112.273741 49.3721656,114.269872 C48.5581145,119.515709 46.258948,132.616688 45.5334513,137.874711 C41.6281181,136.777123 37.8178388,135.077527 33.8921949,134.187108 C31.6198385,134.175734 30.5921193,137.93808 32.943281,138.679013 C34.4040235,139.472753 39.876527,140.311177 38.6708864,141.024488 C35.0100935,142.227691 31.0706384,142.753331 27.5276473,144.192138 C25.4990188,145.795867 27.4439674,149.413602 29.7756308,148.256707 C34.2082287,147.11606 38.6197035,145.860049 43.0474269,144.678781 C42.2894331,147.051878 39.9472081,149.053697 39.9959537,151.602278 C40.5272805,154.245913 44.534167,154.235352 45.0427459,151.330115 C46.5254239,148.562179 47.9146728,145.738185 49.3721656,142.956437 C53.3774273,141.680928 57.613418,140.996865 61.5276879,139.56212 C63.5660655,138.306109 62.5562196,134.741995 60.1758106,135.255449 C56.9090444,136.024816 53.6593392,136.999728 50.4258825,137.864962 C51.2537449,131.710833 53.7365197,117.707248 54.665123,111.599427 C54.6959952,110.16062 53.8774322,104.250086 52.5531773,104.194029 Z" id="crooks-leg-left" stroke="#010101" stroke-width="2.3705787" fill="#F47521" stroke-linecap="round" transform="translate(44.650517, 128.870994) rotate(14.000000) translate(-44.650517, -128.870994) "></path>
                <path d="M89.2577524,103.222094 C86.4158852,103.827352 87.1706293,107.507643 87.5605939,109.71988 C86.4624667,114.605148 83.4276852,135.382947 83.6681634,140.223383 C80.1592942,139.29153 76.7154191,137.223092 73.1033718,137.006987 C70.4191153,137.539938 71.4988298,141.948164 73.9783549,141.790553 C77.4181679,143.213111 81.462426,143.904486 84.5260856,145.782816 C86.219182,149.117013 87.1079763,153.07028 89.2950279,156.044572 C91.2026049,157.528875 94.3166349,154.897426 92.7454024,152.689252 C92.077588,150.541197 88.814884,145.92499 92.9257611,148.327335 C96.9042127,149.503728 100.778674,151.40968 104.819682,152.160362 C107.412134,152.014125 107.337391,147.466163 104.700255,147.440978 C101.253943,146.251586 97.8068183,145.059756 94.3605059,143.870364 C96.8546547,142.834521 100.123858,143.256982 102.195545,141.343718 C103.593731,139.386583 100.920848,136.687703 99.0490181,137.888469 C95.5474607,138.777264 92.0467158,139.666058 88.5451585,140.554852 C88.2190919,136.51653 90.8582804,122.031516 91.6451261,115.403774 C92.2418121,110.377782 92.0530905,106.959128 91.7494639,104.452108 C91.2628206,103.538128 90.2050415,103.053922 89.2577524,103.222094 Z" id="crooks-leg-right" stroke="#010101" stroke-width="2.3705787" fill="#F47521" stroke-linecap="round" transform="translate(89.129350, 129.833376) rotate(-8.000000) translate(-89.129350, -129.833376) "></path>
                <g id="tail" transform="translate(119.265392, 54.299218) rotate(31.210240) translate(-119.265392, -54.299218) translate(104.265392, 30.299218)" stroke="#010101" stroke-width="3.36092651" fill="#964D22" stroke-linecap="round" stroke-linejoin="round">
                    <path d="M18.7596137,13.0482699 C19.9733786,7.43765367 18.9935925,4.04739857 17.9203773,3.20085032 C15.4944722,0.862687327 12.6249824,0.8464388 9.90416662,0.108755687 C8.2963749,0.114442671 6.41560794,-0.468067012 4.45684804,4.81757873 C2.88886521,9.94155164 2.03013057,16.3605321 1.33713091,22.0402046 C-0.00824710641,33.6302788 0.705875643,44.2210685 3.53230687,45.7744276 C7.08260996,48.0516586 12.4511232,37.5071772 16.1257275,24.1525131 C17.1047012,20.6403941 17.9959329,16.8918589 18.7596137,13.0482699 Z" id="path3971"></path>
                    <path d="M28.3641178,19.355948 C30.5666056,14.3026562 30.176641,10.8214094 29.250475,9.74331961 C27.2340328,6.90307714 24.3604809,6.17026858 21.7664036,4.78426925 C20.1561746,4.38699277 18.3745236,3.36008588 15.4847231,7.91536035 C13.0165719,12.4153898 11.0269398,18.3282287 9.33709304,23.5765028 C5.9549622,34.305405 4.80862864,44.5939722 7.36614675,46.785086 C10.5224231,49.8463084 17.7530175,41.1249117 23.7763463,29.2976091 C25.3735765,26.1876411 26.9253108,22.8323203 28.3641178,19.355948 Z" id="path3975"></path>
                </g>
                <g id="body" transform="translate(24.858268, 39.000000)">
                    <path d="M87.9681121,39.451572 C87.9760489,60.812425 68.7865809,78.1339799 45.1136443,78.1339799 C21.4415014,78.1339799 2.25123974,60.812425 2.25758914,39.451572 C2.25123974,18.088809 21.4407077,0.768527392 45.1136443,0.768527392 C68.7857872,0.768527392 87.9752552,18.088809 87.9681121,39.451572 Z" stroke="#010101" stroke-width="3.2497052" fill="url(#radialGradient-3)" stroke-linecap="round" stroke-linejoin="round"></path>
                    <path d="M87.3593636,27.7964936 C87.3919043,28.3904519 87.4109525,28.9945959 87.4109525,29.5949203 C87.4109525,50.9411314 67.2420899,68.2639594 42.3873716,68.2639594 C22.9605948,68.2639594 6.38231679,57.6726585 0.0726025683,42.8555322 C1.16390534,63.3722388 20.9033899,79.7382402 45.0588808,79.7382402 C69.9143927,79.7382402 90.0832553,62.4147755 90.0832553,41.0679279 C90.0824617,36.4072971 89.1221152,31.9351032 87.3593636,27.7964936 Z" id="path3887" fill-opacity="0.3137" fill="#010101"></path>
                </g>
                <g id="head">
                    <path d="M57.1492946,22.550843 L48,40 C53.8766557,37.4378025 59.8933954,35.2519013 66.5194579,35.7322076 C84.9942264,37.0674254 69.2919193,15.0858003 57.1492946,22.550843 Z" id="path4090" stroke="#010101" stroke-width="2.19355101" fill="#ED2224" stroke-linecap="round" stroke-linejoin="round" transform="translate(61.500000, 30.500000) rotate(1.000000) translate(-61.500000, -30.500000) "></path>
                    <path d="M51.7889917,15.3908319 L47,38 C52.047811,33.0025097 57.3093567,28.3705874 63.7648107,26.4473818 C81.763605,21.0843235 61.7193034,2.67625954 51.7889917,15.3908319 Z" id="path4092" stroke="#010101" stroke-width="2.38853332" fill="#ED2224" stroke-linecap="round" stroke-linejoin="round" transform="translate(59.000000, 24.500000) rotate(1.000000) translate(-59.000000, -24.500000) "></path>
                    <path d="M68.9999988,51.5 C69.0046721,70.5513526 55.5719881,86 39.0003897,86 C22.4287913,86 8.99454945,70.5513526 9.00000166,51.5 C8.99454945,32.4478111 22.4287913,17 39.0003897,17 C55.5719881,17 69.0046721,32.4478111 68.9999988,51.5 Z" id="path3984" stroke="#010101" stroke-width="2.4372789" fill="#C7612B" stroke-linecap="round" stroke-linejoin="round"></path>
                    <g id="eye-r" transform="translate(43.000000, 36.000000)" stroke="#010101">
                        <path d="M19.9453038,11.5373798 C19.7846109,17.4543715 15.286438,22.13787 9.9013877,21.9968993 C4.51511078,21.85467 0.283123677,16.9433529 0.445043183,11.0251025 C0.608189353,5.10811075 5.10390899,0.425870959 10.4901859,0.56684162 C15.8764628,0.70781228 20.1109033,5.62038806 19.9453038,11.5373798 Z" id="path4014" stroke-width="3.05333693" fill="#FFFFFF" stroke-linecap="round" stroke-linejoin="round"></path>
                        <path d="M12.1706626,10.7275156 C12.1253476,12.2313024 10.8668258,13.4212805 9.3601012,13.3867327 C7.85234673,13.3502657 6.66694687,12.1017484 6.71329179,10.5979616 C6.75860681,9.09417476 8.01609876,7.90419669 9.52385322,7.94066376 C11.0326376,7.97521151 12.2170076,9.22372882 12.1706626,10.7275156 Z" id="path4016" stroke-width="1.12685892" fill="#010101"></path>
                    </g>
                    <g id="eye-l" transform="translate(21.000000, 24.000000)" stroke="#010101">
                        <path d="M17.7758419,12.6421709 C16.0274314,17.7308286 10.7549178,20.6582894 6.00313164,19.180325 C1.2513455,17.7023605 -1.18266976,12.3788418 0.570485484,7.28899796 C2.31889606,2.20034031 7.59022347,-0.727120545 12.3431958,0.752030058 C17.0949819,2.22999449 19.527811,7.55469943 17.7758419,12.6421709 Z" id="path4012" stroke-width="3.05333693" fill="#FFFFFF" stroke-linecap="round" stroke-linejoin="round"></path>
                        <path d="M11.4684259,10.7332208 C10.9662383,12.1294796 9.45355143,12.9315234 8.09090838,12.5265986 C6.72724463,12.1206981 6.02908145,10.6610174 6.531269,9.26573436 C7.03345655,7.87142704 8.54512273,7.0684075 9.9098072,7.4733323 C11.2714295,7.87923282 11.9716341,9.33891354 11.4684259,10.7332208 Z" id="path4018" stroke-width="1.12685892" fill="#010101"></path>
                    </g>
                    <path d="M67.7706065,39 L67.0676516,40.2397581 C67.1601866,41.6756219 67.1967341,43.135052 67.1967341,44.6155236 C67.1967341,65.7006698 49.0544323,83.2003649 36.5147745,80.9060128 C26.0730949,78.9954555 13.6104199,71.7277628 8,56.4012214 C10.8545879,75.186124 29.4346812,89.1079428 38.318818,88.9993693 C58.0186625,88.7594976 69,72.5997176 69,51.5145713 C69,47.131231 68.5972006,42.9212716 67.7706065,39 Z" id="path4022" fill-opacity="0.3137" fill="#010101"></path>
                    <path d="M17.3898455,54.3226953 L12,84 L32.5815858,64.4439402 C34.994452,52.4318389 26.5806176,46.9869511 17.3898455,54.3226953 Z" id="path3454" stroke="#010101" stroke-width="2.19355101" fill="#ED2224" stroke-linecap="round" stroke-linejoin="round" transform="translate(22.500000, 67.500000) rotate(-4.000000) translate(-22.500000, -67.500000) "></path>
                    <path d="M20.1827125,46 L0,67.9924548 L27.6116523,69 C35.9723745,60.3095011 31.7768213,47.7193978 20.1827125,46 Z" id="path4088" stroke="#010101" stroke-width="2.5177091" fill="#FEDA00" stroke-linecap="round" stroke-linejoin="round"></path>
                    <path d="M43,7.72599515 L44.6514698,35 C47.9570128,28.2912697 51.5602195,21.9732987 56.9849896,18.6222663 C72.1137718,9.27570186 48.7328478,-8.84836802 43,7.72599515 Z" id="path4094" stroke="#010101" stroke-width="2.4874056" fill="#ED2224" stroke-linecap="round" stroke-linejoin="round" transform="translate(52.500000, 18.000000) rotate(1.000000) translate(-52.500000, -18.000000) "></path>
                </g>
            </g>
            <g id="crooks-8" transform="translate(1516.411886, 78.894593) rotate(-7.000000) translate(-1516.411886, -78.894593) translate(1438.411886, -3.105407)" fill-rule="nonzero">
                <path d="M30.8464578,100.602268 C28.7752621,100.548246 27.9834886,105.535043 27.8353588,107.134225 C27.1786062,111.336878 25.3237063,121.832606 24.7383969,126.045022 C21.5876889,125.1657 18.5136675,123.804085 15.3465734,123.090734 C13.513303,123.081621 12.6841693,126.09579 14.5810175,126.689382 C15.7595016,127.325279 20.1745566,127.996975 19.2018812,128.568437 C16.2484611,129.532372 13.0702245,129.953484 10.2118434,131.10617 C8.57520556,132.390983 10.1443329,135.289298 12.0254505,134.362462 C15.6015402,133.448644 19.1605884,132.442402 22.7327455,131.49604 C22.1212184,133.397225 20.2315801,135.000963 20.2709066,137.042736 C20.6995654,139.160659 23.9322037,139.152198 24.3425102,136.824695 C25.5386912,134.607188 26.6594964,132.344772 27.8353588,130.116201 C31.0666862,129.094338 34.484159,128.546307 37.6420769,127.396875 C39.2865801,126.390633 38.4718661,123.535276 36.551422,123.946625 C33.9158911,124.562997 31.2941244,125.344038 28.6854666,126.037212 C29.3533617,121.106889 31.3563914,109.888047 32.1055612,104.994823 C32.130468,103.842136 31.9148277,100.647178 30.8464578,100.602268 Z" id="crooks-leg-left" stroke="#010101" stroke-width="1.89646296" fill="#F47521" stroke-linecap="round" transform="translate(24.026071, 119.601833) rotate(51.000000) translate(-24.026071, -119.601833) "></path>
                <path d="M59.7652504,108.480478 C56.9233832,109.085736 57.6781272,112.766027 58.0680918,114.978264 C56.9699646,119.863532 53.9351831,140.641331 54.1756613,145.481767 C50.6667921,144.549914 47.222917,142.481476 43.6108697,142.265371 C40.9266132,142.798323 42.0063277,147.206548 44.4858528,147.048937 C47.9256658,148.471495 51.9699239,149.16287 55.0335835,151.0412 C56.7266799,154.375397 57.6154742,158.328664 59.8025258,161.302956 C61.7101028,162.787259 64.8241328,160.155811 63.2529003,157.947636 C62.5850859,155.799581 59.3223819,151.183374 63.433259,153.585719 C67.4117106,154.762112 71.2861716,156.668064 75.32718,157.418746 C77.9196323,157.27251 77.8448891,152.724547 75.2077533,152.699362 C71.761441,151.50997 68.3143162,150.31814 64.8680038,149.128748 C67.3621526,148.092905 70.631356,148.515367 72.7030431,146.602103 C74.1012287,144.644968 71.4283462,141.946087 69.556516,143.146854 C66.0549586,144.035648 62.5542137,144.924442 59.0526564,145.813237 C58.7265898,141.774914 61.3657783,127.2899 62.152624,120.662159 C62.74931,115.636166 62.5605884,112.217513 62.2569618,109.710492 C61.7703185,108.796512 60.7125394,108.312306 59.7652504,108.480478 Z" id="crooks-leg-right" stroke="#010101" stroke-width="2.3705787" fill="#F47521" stroke-linecap="round" transform="translate(59.636848, 135.091760) rotate(-8.000000) translate(-59.636848, -135.091760) "></path>
                <g id="tail" transform="translate(126.561579, 63.848102) rotate(31.210240) translate(-126.561579, -63.848102) translate(109.561579, 36.848102)" stroke="#010101" stroke-width="3.36092651" fill="#964D22" stroke-linecap="round" stroke-linejoin="round">
                    <path d="M21.0303976,14.6286323 C22.3911068,8.33876776 21.292703,4.53807204 20.0895592,3.58903659 C17.3699624,0.967804314 14.1530783,0.949588662 11.1028674,0.122598077 C9.30042871,0.128973555 7.19196703,-0.524057557 4.99607022,5.40149393 C3.23825984,11.1457997 2.27556265,18.3418929 1.4986651,24.7091739 C-0.00959085383,37.7023982 0.790987037,49.57536 3.95959964,51.3167763 C7.93971953,53.8696999 13.9581708,42.0486527 18.0776405,27.0772086 C19.1751335,23.1398955 20.174262,18.9375447 21.0303976,14.6286323 Z" id="path3971"></path>
                    <path d="M31.7976693,21.6999483 C34.2668009,16.0348806 33.8296252,12.1321772 32.7913331,10.9235687 C30.5307707,7.73947282 27.3093327,6.91794693 24.4012039,5.36415184 C22.5960329,4.91877916 20.5986867,3.76754997 17.359033,8.87430792 C14.5920755,13.9191326 12.361569,20.5478083 10.4671412,26.4314638 C6.67555331,38.4592586 5.39043908,49.9934092 8.25758265,52.4497898 C11.795973,55.8816186 19.901938,46.1043676 26.65448,32.8451947 C28.4450786,29.358719 30.1846733,25.5971869 31.7976693,21.6999483 Z" id="path3975"></path>
                </g>
                <g id="body" transform="translate(18.711742, 32.451778)">
                    <path d="M90.0464685,48.0550629 C90.0545928,74.0742325 70.4117497,95.1732247 46.1795104,95.1732247 C21.9480836,95.1732247 2.30442809,74.0742325 2.3109275,48.0550629 C2.30442809,22.0335671 21.9472712,0.936125744 46.1795104,0.936125744 C70.4109372,0.936125744 90.0537803,22.0335671 90.0464685,48.0550629 Z" stroke="#010101" stroke-width="3.2497052" fill="url(#radialGradient-4)" stroke-linecap="round" stroke-linejoin="round"></path>
                    <path d="M89.4233375,33.858277 C89.456647,34.581764 89.4761452,35.3176582 89.4761452,36.0488997 C89.4761452,62.050234 68.8307681,83.1507771 43.3888261,83.1507771 C23.5030675,83.1507771 6.53310698,70.2497542 0.0743178945,52.2013495 C1.19140406,77.1922834 21.3972586,97.1273377 46.123453,97.1273377 C71.5662074,97.1273377 92.2115846,76.0260191 92.2115846,50.0239093 C92.2107722,44.3469009 91.2277363,38.8994232 89.4233375,33.858277 Z" id="path3887" fill-opacity="0.3137" fill="#010101"></path>
                </g>
                <g id="head" transform="translate(47.434482, 45.401593) rotate(-2.000000) translate(-47.434482, -45.401593) translate(13.934482, 1.901593)">
                    <path d="M48.9712395,19.0152766 L40.1911022,36.0336996 C45.8306456,33.5347502 51.6046208,31.4028082 57.9633338,31.8712581 C75.692679,33.1735159 60.6239314,11.7345091 48.9712395,19.0152766 Z" id="path4090" stroke="#010101" stroke-width="2.19355101" fill="#ED2224" stroke-linecap="round" stroke-linejoin="round"></path>
                    <path d="M44.2991112,12.321721 L39.5684267,34.6118551 C44.5547793,29.6848835 49.7522642,25.1183215 56.1291214,23.2222539 C73.9087755,17.9348727 54.1085187,-0.213438306 44.2991112,12.321721 Z" id="path4092" stroke="#010101" stroke-width="2.38853332" fill="#ED2224" stroke-linecap="round" stroke-linejoin="round"></path>
                    <path d="M65.2564723,48.9251448 C65.2614208,67.7134508 51.0380273,82.948795 33.4909487,82.948795 C15.94387,82.948795 1.71882713,67.7134508 1.72460028,48.9251448 C1.71882713,30.136014 15.94387,14.9014945 33.4909487,14.9014945 C51.0380273,14.9014945 65.2614208,30.136014 65.2564723,48.9251448 Z" id="path3984" stroke="#010101" stroke-width="2.4372789" fill="#C7612B" stroke-linecap="round" stroke-linejoin="round"></path>
                    <g id="eye-r" transform="translate(39.142728, 33.792781)" stroke="#010101">
                        <path d="M18.6152142,10.5196036 C18.4653591,15.8972305 14.2705584,20.1538035 9.24869458,20.025683 C4.2256868,19.8964187 0.27911954,15.4327939 0.430118635,10.0540231 C0.582261663,4.67639622 4.77477442,0.420967175 9.7977822,0.549087619 C14.82079,0.677208064 18.7696451,5.14197677 18.6152142,10.5196036 Z" id="path4014" stroke-width="3.05333693" fill="#FFFFFF" stroke-linecap="round" stroke-linejoin="round"></path>
                        <path d="M10.7334295,10.7313252 C10.6830965,12.5238675 9.28521095,13.9423438 7.61163764,13.9011622 C5.9369204,13.8576928 4.62025405,12.3694366 4.67173101,10.5768943 C4.72206405,8.784352 6.11880568,7.36587565 7.79352291,7.40934509 C9.46938409,7.45052666 10.7849065,8.93878289 10.7334295,10.7313252 Z" id="path4016" stroke-width="1.12685892" fill="#010101"></path>
                    </g>
                    <g id="eye-l" transform="translate(14.854436, 22.353456)" stroke="#010101">
                        <path d="M18.1073082,12.192033 C16.4211516,17.0995036 11.3363715,19.9227291 6.75377771,18.4973892 C2.17118396,17.0720492 -0.176165611,11.93808 1.51456668,7.02946546 C3.20072325,2.12199486 8.28435945,-0.701230647 12.8680971,0.72525323 C17.4506909,2.15059317 19.7968965,7.28570635 18.1073082,12.192033 Z" id="path4012" stroke-width="3.05333693" fill="#FFFFFF" stroke-linecap="round" stroke-linejoin="round"></path>
                        <path d="M10.7585961,10.8731728 C10.1957812,12.5101403 8.50047322,13.4504528 6.97332328,12.9757208 C5.44502941,12.4998449 4.66257955,10.7885218 5.22539436,9.15269828 C5.78820917,7.51801868 7.48237326,6.5765622 9.01181107,7.0512942 C10.5378171,7.52717014 11.3225548,9.23849322 10.7585961,10.8731728 Z" id="path4018" stroke-width="1.12685892" fill="#010101"></path>
                    </g>
                    <path d="M64.5612201,37.3928642 L63.8156589,38.6077 C63.9138025,40.0146993 63.9525651,41.4447912 63.9525651,42.8955014 C63.9525651,63.5567824 44.7106544,80.7046889 31.410965,78.4564592 C20.3364128,76.5843089 7.11837235,69.4627154 1.16790363,54.4442767 C4.19550871,72.8515547 23.9017457,86.4935094 33.3243521,86.3871185 C54.2182085,86.1520688 65.8651274,70.3171417 65.8651274,49.6558607 C65.8651274,45.3606367 65.4379142,41.2353083 64.5612201,37.3928642 Z" id="path4022" fill-opacity="0.3137" fill="#010101"></path>
                    <path d="M15.8193349,56.0978719 L10.618551,85.0155829 L30.4781888,65.9600625 C32.806418,54.2554122 24.6877189,48.9498868 15.8193349,56.0978719 Z" id="path3454" stroke="#010101" stroke-width="2.19355101" fill="#ED2224" stroke-linecap="round" stroke-linejoin="round"></path>
                    <path d="M19.7995098,47.0348503 L0.0776029133,68.5654029 L27.0588343,69.5517869 C35.228667,61.0438125 31.1289054,48.7181361 19.7995098,47.0348503 Z" id="path4088" stroke="#010101" stroke-width="2.5177091" fill="#FEDA00" stroke-linecap="round" stroke-linejoin="round"></path>
                    <path d="M37.4538042,6.69372393 L39.0232764,33.69145 C42.164695,27.0506774 45.588998,20.7967059 50.7444214,17.4796186 C65.1220404,8.2277325 42.9020088,-9.71274513 37.4538042,6.69372393 Z" id="path4094" stroke="#010101" stroke-width="2.4874056" fill="#ED2224" stroke-linecap="round" stroke-linejoin="round"></path>
                </g>
            </g>
            <path d="" id="Path-3" stroke="#000000" fill="#F47521"></path>
        </g>
    </g>
</svg>