<svg width="1600px" height="160px" viewBox="0 0 1600 160" version="1.1" xmlns="http://www.w3.org/2000/svg" xmlns:xlink="http://www.w3.org/1999/xlink">
    <desc>Created with Sketch.</desc>
    <defs>
        <radialGradient cx="49.9989268%" cy="49.9994961%" fx="49.9989268%" fy="49.9994961%" r="41.9991276%" gradientTransform="translate(0.499989,0.499995),scale(0.902637,1.000000),translate(-0.499989,-0.499995)" id="radialGradient-1">
            <stop stop-color="#F68B50" offset="0%"></stop>
            <stop stop-color="#964D22" offset="100%"></stop>
        </radialGradient>
        <radialGradient cx="49.9989268%" cy="49.9994961%" fx="49.9989268%" fy="49.9994961%" r="41.9991276%" gradientTransform="translate(0.499989,0.499995),scale(0.893788,1.000000),translate(-0.499989,-0.499995)" id="radialGradient-2">
            <stop stop-color="#F68B50" offset="0%"></stop>
            <stop stop-color="#964D22" offset="100%"></stop>
        </radialGradient>
    </defs>
    <g id="Page-1" stroke="none" stroke-width="1" fill="none" fill-rule="evenodd">
        <g id="Artboard" transform="translate(-23.000000, -1.000000)" fill-rule="nonzero">
            <g id="crooks-2" transform="translate(23.000000, -5.000000)">
                <path d="M80.639689,110.891338 C77.8303827,110.820293 77.3596937,119.404094 77.1587749,121.507211 C76.2679759,127.034205 73.7520465,140.83735 72.9581508,146.377184 C68.6846269,145.220769 64.0862154,139.938462 59.790466,139.00032 C57.3038743,138.988336 56.1792628,142.952331 58.7520895,143.732975 C59.8177293,144.290496 61.7901861,145.749618 64.6694598,148.11034 C59.5999906,148.921891 55.6521292,149.398972 52.8258756,149.541583 C50.6059903,151.231267 51.8571114,154.949799 54.0519753,154.362652 C59.3748295,154.57046 66.5117637,153.733939 70.2377466,153.545928 C69.40829,156.046215 66.8452425,158.155323 66.8985838,160.840499 C67.4800035,163.625824 71.864655,163.614696 72.4211821,160.55375 C74.0436454,157.637462 75.5638713,154.662112 77.1587749,151.731273 C81.5416484,150.387401 86.1770038,149.666674 90.4603068,148.155032 C92.6908605,146.831704 91.5858074,143.076566 88.9809759,143.617538 C85.4062226,144.428141 81.8501386,145.455305 78.3118351,146.366912 C79.2177475,139.882944 81.9345956,125.128817 82.9507466,118.693639 C82.9845294,117.177717 82.0887932,110.9504 80.639689,110.891338 Z" id="crooks-leg-left" stroke="#010101" stroke-width="2.3705787" fill="#F47521" stroke-linecap="round" transform="translate(71.659330, 136.890900) rotate(-4.000000) translate(-71.659330, -136.890900) "></path>
                <path d="M71.9767444,104.099833 C69.799532,104.04245 69.434748,110.97552 69.279036,112.674191 C68.5886668,117.138303 66.6388215,128.286996 66.0235523,132.761477 C62.7115713,131.82745 59.1478024,127.560972 55.8185966,126.803241 C53.891488,126.793562 53.0199141,129.99525 55.0138548,130.62577 C55.8397257,131.076076 57.3683797,132.254597 59.5998168,134.161335 C55.6709782,134.816818 52.6113856,135.202153 50.4210391,135.317339 C48.7006279,136.682083 49.6702467,139.685513 51.3712663,139.211279 C55.4964783,139.379123 61.0276023,138.703472 63.915239,138.551617 C63.2724102,140.571079 61.2860484,142.27459 61.3273879,144.443386 C61.7779882,146.693071 65.176093,146.684084 65.6074016,144.21178 C66.8648106,141.856317 68.0429857,139.45315 69.279036,137.085934 C72.6757629,136.000499 76.2681633,135.418374 79.5877232,134.197432 C81.3164023,133.12859 80.4599862,130.095594 78.4412418,130.532533 C75.6708079,131.187251 72.9148429,132.016883 70.1726577,132.753181 C70.8747398,127.51613 72.980297,115.599335 73.7678141,110.401691 C73.7939957,109.177293 73.0998002,104.147537 71.9767444,104.099833 Z" id="crooks-leg-left" stroke="#010101" stroke-width="2.0149919" fill="#F47521" stroke-linecap="round" transform="translate(65.016966, 125.099479) rotate(37.000000) translate(-65.016966, -125.099479) "></path>
                <g id="tail" transform="translate(127.265392, 56.299218) rotate(31.210240) translate(-127.265392, -56.299218) translate(112.265392, 32.299218)" stroke="#010101" stroke-width="3.36092651" fill="#964D22" stroke-linecap="round" stroke-linejoin="round">
                    <path d="M18.7596137,13.0482699 C19.9733786,7.43765367 18.9935925,4.04739857 17.9203773,3.20085032 C15.4944722,0.862687327 12.6249824,0.8464388 9.90416662,0.108755687 C8.2963749,0.114442671 6.41560794,-0.468067012 4.45684804,4.81757873 C2.88886521,9.94155164 2.03013057,16.3605321 1.33713091,22.0402046 C-0.00824710641,33.6302788 0.705875643,44.2210685 3.53230687,45.7744276 C7.08260996,48.0516586 12.4511232,37.5071772 16.1257275,24.1525131 C17.1047012,20.6403941 17.9959329,16.8918589 18.7596137,13.0482699 Z" id="path3971"></path>
                    <path d="M28.3641178,19.355948 C30.5666056,14.3026562 30.176641,10.8214094 29.250475,9.74331961 C27.2340328,6.90307714 24.3604809,6.17026858 21.7664036,4.78426925 C20.1561746,4.38699277 18.3745236,3.36008588 15.4847231,7.91536035 C13.0165719,12.4153898 11.0269398,18.3282287 9.33709304,23.5765028 C5.9549622,34.305405 4.80862864,44.5939722 7.36614675,46.785086 C10.5224231,49.8463084 17.7530175,41.1249117 23.7763463,29.2976091 C25.3735765,26.1876411 26.9253108,22.8323203 28.3641178,19.355948 Z" id="path3975"></path>
                </g>
                <g id="body" transform="translate(32.000000, 48.000000)">
                    <path d="M87.9681121,39.451572 C87.9760489,60.812425 68.7865809,78.1339799 45.1136443,78.1339799 C21.4415014,78.1339799 2.25123974,60.812425 2.25758914,39.451572 C2.25123974,18.088809 21.4407077,0.768527392 45.1136443,0.768527392 C68.7857872,0.768527392 87.9752552,18.088809 87.9681121,39.451572 Z" stroke="#010101" stroke-width="3.2497052" fill="url(#radialGradient-1)" stroke-linecap="round" stroke-linejoin="round"></path>
                    <path d="M87.3593636,27.7964936 C87.3919043,28.3904519 87.4109525,28.9945959 87.4109525,29.5949203 C87.4109525,50.9411314 67.2420899,68.2639594 42.3873716,68.2639594 C22.9605948,68.2639594 6.38231679,57.6726585 0.0726025683,42.8555322 C1.16390534,63.3722388 20.9033899,79.7382402 45.0588808,79.7382402 C69.9143927,79.7382402 90.0832553,62.4147755 90.0832553,41.0679279 C90.0824617,36.4072971 89.1221152,31.9351032 87.3593636,27.7964936 Z" id="path3887" fill-opacity="0.3137" fill="#010101"></path>
                </g>
                <g id="head" transform="translate(42.000251, 48.000000) rotate(5.000000) translate(-42.000251, -48.000000) translate(4.000251, 4.000000)">
                    <path d="M56.8104318,20.4692197 L48,37 C53.6590018,34.572655 59.4528993,32.5018012 65.8335521,32.9568283 C83.6240699,34.2217715 68.5033297,13.3970739 56.8104318,20.4692197 Z" id="path4090" stroke="#010101" stroke-width="2.19355101" fill="#ED2224" stroke-linecap="round" stroke-linejoin="round" transform="translate(61.000000, 28.000000) rotate(11.000000) translate(-61.000000, -28.000000) "></path>
                    <path d="M51.5894504,14.2282085 L47,36 C51.8374856,31.1876019 56.8798002,26.7272323 63.0662769,24.8752566 C80.3151215,19.71083 61.1059991,1.98454623 51.5894504,14.2282085 Z" id="path4092" stroke="#010101" stroke-width="2.38853332" fill="#ED2224" stroke-linecap="round" stroke-linejoin="round" transform="translate(58.500000, 23.000000) rotate(11.000000) translate(-58.500000, -23.000000) "></path>
                    <path d="M66.9999988,51.5 C67.0045164,69.9991395 54.0195885,85 38.0003767,85 C21.9811649,85 8.99473114,69.9991395 9.0000016,51.5 C8.99473114,33.0000485 21.9811649,18 38.0003767,18 C54.0195885,18 67.0045164,33.0000485 66.9999988,51.5 Z" id="path3984" stroke="#010101" stroke-width="2.4372789" fill="#C7612B" stroke-linecap="round" stroke-linejoin="round"></path>
                    <g id="eye-r" transform="translate(41.000000, 37.000000)" stroke="#010101">
                        <path d="M18.9955274,11.0129534 C18.8424866,16.660991 14.5585123,21.1316032 9.42989305,20.9970403 C4.30010551,20.8612759 0.269641597,16.1732005 0.423850651,10.5239615 C0.579227955,4.8759239 4.8608657,0.406513188 9.99065324,0.541076091 C15.1204408,0.675638995 19.1532412,5.36491588 18.9955274,11.0129534 Z" id="path4014" stroke-width="3.05333693" fill="#FFFFFF" stroke-linecap="round" stroke-linejoin="round"></path>
                        <path d="M10.5911073,10.2399013 C10.5479501,11.6753341 9.34935789,12.8112223 7.9143821,12.7782449 C6.47842546,12.7434354 5.34947321,11.5516689 5.39361123,10.116236 C5.43676839,8.68080318 6.63437977,7.54491502 8.0703364,7.5797245 C9.50727389,7.6127019 10.6352453,8.80446842 10.5911073,10.2399013 Z" id="path4016" stroke-width="1.12685892" fill="#010101"></path>
                    </g>
                    <g id="eye-l" transform="translate(19.000000, 25.000000)" stroke="#010101">
                        <path d="M17.8370498,12.0100624 C16.1760598,16.8442871 11.1671719,19.6253749 6.65297506,18.2213087 C2.13877823,16.8172425 -0.173536274,11.7598997 1.49196121,6.92454806 C3.15295126,2.0903233 8.1607123,-0.690764518 12.676036,0.714428555 C17.1902328,2.11849477 19.5014205,7.17696446 17.8370498,12.0100624 Z" id="path4012" stroke-width="3.05333693" fill="#FFFFFF" stroke-linecap="round" stroke-linejoin="round"></path>
                        <path d="M10.8450046,10.1965598 C10.3679264,11.5230056 8.93087386,12.2849473 7.63636297,11.9002687 C6.3408824,11.5146632 5.67762738,10.1279665 6.15470555,8.80244764 C6.63178372,7.47785569 8.0678666,6.71498713 9.36431684,7.09966569 C10.6578581,7.48527118 11.3230524,8.87196786 10.8450046,10.1965598 Z" id="path4018" stroke-width="1.12685892" fill="#010101"></path>
                    </g>
                    <path d="M65.8109145,40 L65.1310073,41.1901678 C65.2205084,42.568597 65.2558575,43.96965 65.2558575,45.3909026 C65.2558575,65.632643 47.7083854,82.4323503 35.5798639,80.2297723 C25.4805344,78.3956373 13.4264717,71.4186523 8,56.7051726 C10.7609948,74.7386791 28.7319047,88.1036251 37.3247584,87.9993946 C56.3787064,87.7691177 67,72.2557289 67,52.0139884 C67,47.8059817 66.6104072,43.7644208 65.8109145,40 Z" id="path4022" fill-opacity="0.3137" fill="#010101"></path>
                    <path d="M16.425521,54.0321158 L11.2923347,82.8101083 L30.8938451,63.8466563 C33.1918128,52.1985581 25.1786373,46.9186669 16.425521,54.0321158 Z" id="path3454" stroke="#010101" stroke-width="2.19355101" fill="#ED2224" stroke-linecap="round" stroke-linejoin="round" transform="translate(21.292335, 66.810108) rotate(-4.000000) translate(-21.292335, -66.810108) "></path>
                    <path d="M19.5520028,46 L0,67.0362611 L26.7487881,68 C34.8482378,59.6873489 30.7837956,47.6446414 19.5520028,46 Z" id="path4088" stroke="#010101" stroke-width="2.5177091" fill="#FEDA00" stroke-linecap="round" stroke-linejoin="round"></path>
                    <path d="M45,8.52817177 L46.5645503,35 C49.6961174,28.4885853 53.1096817,22.356437 58.2489376,19.1039643 C72.581468,10.0322989 50.4311189,-7.55871013 45,8.52817177 Z" id="path4094" stroke="#010101" stroke-width="2.4874056" fill="#ED2224" stroke-linecap="round" stroke-linejoin="round" transform="translate(54.000000, 18.500000) rotate(11.000000) translate(-54.000000, -18.500000) "></path>
                </g>
            </g>
            <g id="crooks-3" transform="translate(228.000000, -4.000000)">
                <path d="M56.3857747,107.955117 C53.5956127,107.881831 52.9031802,115.761955 52.7036306,117.931394 C51.818902,123.632684 59.0303798,138.530199 60.9747012,145.590194 C56.7302997,144.397312 52.5892049,142.550154 48.3227294,141.582427 C45.8530828,141.570065 44.7361351,145.659065 47.291429,146.464327 C48.8789958,147.326982 54.8266322,148.238199 53.5163157,149.01344 C49.537686,150.321108 45.2562001,150.892385 41.4056,152.456112 C39.2008423,154.19908 41.3146548,158.130913 43.8487576,156.873574 C48.6662018,155.633894 53.460689,154.268834 58.2728355,152.985006 C57.4490313,155.56414 54.90345,157.73976 54.9564277,160.509614 C55.5338853,163.382774 59.8886571,163.371296 60.4413917,160.213821 C62.0527985,157.205568 63.5626647,154.13639 65.1466997,151.113125 C69.4997055,149.726874 74.1034728,148.98342 78.3575868,147.424108 C80.5729401,146.059047 79.4754175,142.18549 76.888337,142.743523 C73.3379441,143.579688 69.8060936,144.639243 66.2919022,145.579599 C64.3697478,138.088378 57.4469059,121.667209 58.4561322,115.029096 C58.4896848,113.465369 57.8250038,108.016042 56.3857747,107.955117 Z" id="crooks-leg-left" stroke="#010101" stroke-width="2.3705787" fill="#F47521" stroke-linecap="round" transform="translate(60.015109, 135.289642) rotate(16.000000) translate(-60.015109, -135.289642) "></path>
                <path d="M101.230517,108.435247 C103.640772,109.067031 103.378357,114.820834 103.387332,116.250386 C103.721459,120.052366 96.3867326,129.53149 94.1805019,134.583621 C97.9282442,133.710224 101.636112,132.445055 105.385961,131.830875 C107.515397,131.833631 108.170812,134.373268 105.907981,134.950456 C104.47489,135.555639 99.2803503,136.354923 100.351418,136.844239 C103.68221,137.54784 107.329356,137.680157 110.530564,138.391763 C112.299806,139.261455 110.182545,141.854469 108.092961,141.342557 C104.034114,140.996262 100.004473,140.45683 95.9535088,139.86522 C96.4697237,141.666948 98.5002015,142.998509 98.2464164,144.960311 C97.5328371,147.075217 93.7804652,147.624412 93.5413324,145.338023 C92.3785525,143.23819 91.307865,141.029192 90.1698038,138.804846 C86.5222537,137.859222 82.6102812,137.343692 79.0609663,136.064923 C77.2541962,134.880246 78.4911717,131.595144 80.678961,132.154997 C83.6760985,132.936888 86.6404697,133.841164 89.5985777,134.591072 C91.8181054,128.979832 99.0185524,117.970123 98.6475177,113.291398 C98.7360974,112.225362 99.9855151,108.122181 101.230517,108.435247 Z" id="crooks-leg-left" stroke="#010101" stroke-width="2.0149919" fill="#F47521" stroke-linecap="round" transform="translate(94.691229, 127.618013) scale(-1, 1) rotate(28.000000) translate(-94.691229, -127.618013) "></path>
                <g id="tail" transform="translate(120.265392, 58.299218) rotate(19.210240) translate(-120.265392, -58.299218) translate(105.265392, 34.299218)" stroke="#010101" stroke-width="3.36092651" fill="#964D22" stroke-linecap="round" stroke-linejoin="round">
                    <path d="M18.7596137,13.0482699 C19.9733786,7.43765367 18.9935925,4.04739857 17.9203773,3.20085032 C15.4944722,0.862687327 12.6249824,0.8464388 9.90416662,0.108755687 C8.2963749,0.114442671 6.41560794,-0.468067012 4.45684804,4.81757873 C2.88886521,9.94155164 2.03013057,16.3605321 1.33713091,22.0402046 C-0.00824710641,33.6302788 0.705875643,44.2210685 3.53230687,45.7744276 C7.08260996,48.0516586 12.4511232,37.5071772 16.1257275,24.1525131 C17.1047012,20.6403941 17.9959329,16.8918589 18.7596137,13.0482699 Z" id="path3971"></path>
                    <path d="M28.3641178,19.355948 C30.5666056,14.3026562 30.176641,10.8214094 29.250475,9.74331961 C27.2340328,6.90307714 24.3604809,6.17026858 21.7664036,4.78426925 C20.1561746,4.38699277 18.3745236,3.36008588 15.4847231,7.91536035 C13.0165719,12.4153898 11.0269398,18.3282287 9.33709304,23.5765028 C5.9549622,34.305405 4.80862864,44.5939722 7.36614675,46.785086 C10.5224231,49.8463084 17.7530175,41.1249117 23.7763463,29.2976091 C25.3735765,26.1876411 26.9253108,22.8323203 28.3641178,19.355948 Z" id="path3975"></path>
                </g>
                <g id="body" transform="translate(22.858268, 48.000000)">
                    <path d="M87.9681121,39.451572 C87.9760489,60.812425 68.7865809,78.1339799 45.1136443,78.1339799 C21.4415014,78.1339799 2.25123974,60.812425 2.25758914,39.451572 C2.25123974,18.088809 21.4407077,0.768527392 45.1136443,0.768527392 C68.7857872,0.768527392 87.9752552,18.088809 87.9681121,39.451572 Z" stroke="#010101" stroke-width="3.2497052" fill="url(#radialGradient-1)" stroke-linecap="round" stroke-linejoin="round"></path>
                    <path d="M87.3593636,27.7964936 C87.3919043,28.3904519 87.4109525,28.9945959 87.4109525,29.5949203 C87.4109525,50.9411314 67.2420899,68.2639594 42.3873716,68.2639594 C22.9605948,68.2639594 6.38231679,57.6726585 0.0726025683,42.8555322 C1.16390534,63.3722388 20.9033899,79.7382402 45.0588808,79.7382402 C69.9143927,79.7382402 90.0832553,62.4147755 90.0832553,41.0679279 C90.0824617,36.4072971 89.1221152,31.9351032 87.3593636,27.7964936 Z" id="path3887" fill-opacity="0.3137" fill="#010101"></path>
                </g>
                <g id="head" transform="translate(42.000000, 48.000000) rotate(5.000000) translate(-42.000000, -48.000000) translate(4.000000, 4.000000)">
                    <path d="M56.8104318,20.4692197 L48,37 C53.6590018,34.572655 59.4528993,32.5018012 65.8335521,32.9568283 C83.6240699,34.2217715 68.5033297,13.3970739 56.8104318,20.4692197 Z" id="path4090" stroke="#010101" stroke-width="2.19355101" fill="#ED2224" stroke-linecap="round" stroke-linejoin="round" transform="translate(61.000000, 28.000000) rotate(11.000000) translate(-61.000000, -28.000000) "></path>
                    <path d="M51.5894504,14.2282085 L47,36 C51.8374856,31.1876019 56.8798002,26.7272323 63.0662769,24.8752566 C80.3151215,19.71083 61.1059991,1.98454623 51.5894504,14.2282085 Z" id="path4092" stroke="#010101" stroke-width="2.38853332" fill="#ED2224" stroke-linecap="round" stroke-linejoin="round" transform="translate(58.500000, 23.000000) rotate(11.000000) translate(-58.500000, -23.000000) "></path>
                    <path d="M66.9999988,51.5 C67.0045164,69.9991395 54.0195885,85 38.0003767,85 C21.9811649,85 8.99473114,69.9991395 9.0000016,51.5 C8.99473114,33.0000485 21.9811649,18 38.0003767,18 C54.0195885,18 67.0045164,33.0000485 66.9999988,51.5 Z" id="path3984" stroke="#010101" stroke-width="2.4372789" fill="#C7612B" stroke-linecap="round" stroke-linejoin="round"></path>
                    <g id="eye-r" transform="translate(41.000000, 37.000000)" stroke="#010101">
                        <path d="M18.9955274,11.0129534 C18.8424866,16.660991 14.5585123,21.1316032 9.42989305,20.9970403 C4.30010551,20.8612759 0.269641597,16.1732005 0.423850651,10.5239615 C0.579227955,4.8759239 4.8608657,0.406513188 9.99065324,0.541076091 C15.1204408,0.675638995 19.1532412,5.36491588 18.9955274,11.0129534 Z" id="path4014" stroke-width="3.05333693" fill="#FFFFFF" stroke-linecap="round" stroke-linejoin="round"></path>
                        <path d="M10.5911073,10.2399013 C10.5479501,11.6753341 9.34935789,12.8112223 7.9143821,12.7782449 C6.47842546,12.7434354 5.34947321,11.5516689 5.39361123,10.116236 C5.43676839,8.68080318 6.63437977,7.54491502 8.0703364,7.5797245 C9.50727389,7.6127019 10.6352453,8.80446842 10.5911073,10.2399013 Z" id="path4016" stroke-width="1.12685892" fill="#010101"></path>
                    </g>
                    <g id="eye-l" transform="translate(19.000000, 25.000000)" stroke="#010101">
                        <path d="M17.8370498,12.0100624 C16.1760598,16.8442871 11.1671719,19.6253749 6.65297506,18.2213087 C2.13877823,16.8172425 -0.173536274,11.7598997 1.49196121,6.92454806 C3.15295126,2.0903233 8.1607123,-0.690764518 12.676036,0.714428555 C17.1902328,2.11849477 19.5014205,7.17696446 17.8370498,12.0100624 Z" id="path4012" stroke-width="3.05333693" fill="#FFFFFF" stroke-linecap="round" stroke-linejoin="round"></path>
                        <path d="M10.8450046,10.1965598 C10.3679264,11.5230056 8.93087386,12.2849473 7.63636297,11.9002687 C6.3408824,11.5146632 5.67762738,10.1279665 6.15470555,8.80244764 C6.63178372,7.47785569 8.0678666,6.71498713 9.36431684,7.09966569 C10.6578581,7.48527118 11.3230524,8.87196786 10.8450046,10.1965598 Z" id="path4018" stroke-width="1.12685892" fill="#010101"></path>
                    </g>
                    <path d="M65.8109145,40 L65.1310073,41.1901678 C65.2205084,42.568597 65.2558575,43.96965 65.2558575,45.3909026 C65.2558575,65.632643 47.7083854,82.4323503 35.5798639,80.2297723 C25.4805344,78.3956373 13.4264717,71.4186523 8,56.7051726 C10.7609948,74.7386791 28.7319047,88.1036251 37.3247584,87.9993946 C56.3787064,87.7691177 67,72.2557289 67,52.0139884 C67,47.8059817 66.6104072,43.7644208 65.8109145,40 Z" id="path4022" fill-opacity="0.3137" fill="#010101"></path>
                    <path d="M16.425521,54.0321158 L11.2923347,82.8101083 L30.8938451,63.8466563 C33.1918128,52.1985581 25.1786373,46.9186669 16.425521,54.0321158 Z" id="path3454" stroke="#010101" stroke-width="2.19355101" fill="#ED2224" stroke-linecap="round" stroke-linejoin="round" transform="translate(21.292335, 66.810108) rotate(-4.000000) translate(-21.292335, -66.810108) "></path>
                    <path d="M19.5520028,46 L0,67.0362611 L26.7487881,68 C34.8482378,59.6873489 30.7837956,47.6446414 19.5520028,46 Z" id="path4088" stroke="#010101" stroke-width="2.5177091" fill="#FEDA00" stroke-linecap="round" stroke-linejoin="round"></path>
                    <path d="M45,8.52817177 L46.5645503,35 C49.6961174,28.4885853 53.1096817,22.356437 58.2489376,19.1039643 C72.581468,10.0322989 50.4311189,-7.55871013 45,8.52817177 Z" id="path4094" stroke="#010101" stroke-width="2.4874056" fill="#ED2224" stroke-linecap="round" stroke-linejoin="round" transform="translate(54.000000, 18.500000) rotate(11.000000) translate(-54.000000, -18.500000) "></path>
                </g>
            </g>
            <g id="crooks-4" transform="translate(438.000000, 1.000000)">
                <path d="M39.0663247,103.558615 C36.2095031,103.483579 35.730853,112.549615 35.5265361,114.770884 C34.6206705,120.608383 32.0621879,135.186982 31.2548645,141.038042 C26.9090603,139.816661 22.6690308,137.925372 18.3006251,136.934525 C15.7719764,136.921869 14.6283437,141.108559 17.244686,141.933059 C18.8701813,142.816323 24.9599124,143.749311 23.6182911,144.543073 C19.5446082,145.881982 15.1608336,146.466907 11.218239,148.067993 C8.96080747,149.852603 11.125121,153.87837 13.719766,152.590993 C18.6523035,151.321696 23.5613355,149.924023 28.4884487,148.609524 C27.6449631,151.250275 25.0385654,153.477873 25.0928089,156.313901 C25.6840624,159.255704 30.1428739,159.243951 30.7088138,156.011042 C32.3587187,152.930918 33.904657,149.788414 35.5265361,146.692922 C39.9835394,145.273551 44.697295,144.512335 49.0530438,142.91577 C51.321324,141.518097 50.1975806,137.551997 47.5486922,138.123361 C43.9134771,138.979503 40.2972473,140.064372 36.6990986,141.027194 C37.6203331,134.178958 40.3831328,118.595951 41.4164704,111.799247 C41.4508246,110.198161 40.5399384,103.620995 39.0663247,103.558615 Z" id="crooks-leg-left" stroke="#010101" stroke-width="2.3705787" fill="#F47521" stroke-linecap="round" transform="translate(30.272346, 131.018822) rotate(12.000000) translate(-30.272346, -131.018822) "></path>
                <path d="M65.5467021,117.139117 C62.5582199,117.798533 68.0595937,116.170906 68.469677,118.581093 C68.8797603,120.991279 71.9528631,132.178042 72.2057478,137.451596 C68.5158523,136.436361 64.6186667,133.22158 60.8202699,132.986138 C57.9975298,133.566778 59.132948,138.369447 61.7403944,138.197734 C65.357671,139.747582 69.886214,141.462082 73.1079311,143.508483 C74.8883761,147.141022 72.3879646,150.352412 74.6878485,153.592842 C76.6938394,155.209959 80.5198002,154.265574 78.8675062,151.859813 C78.1652385,149.519552 77.6179932,143.663379 81.9409548,146.280683 C86.124659,147.56234 90.1990076,149.638835 94.4484959,150.456687 C97.1746956,150.297365 97.0960963,145.342455 94.3229079,145.315016 C90.6987966,144.019198 87.073831,142.720725 83.4497197,141.424907 C86.0725442,140.296377 89.2012166,138.741012 91.3797842,136.656551 C92.8501037,134.524293 90.0393244,131.583919 88.0709244,132.892129 C84.388718,133.860452 81.0165587,136.844402 77.3343522,137.812725 C76.9610992,133.023446 75.9355127,122.770774 73.3579136,118.73129 C72.0120957,116.622192 68.5127713,120.948197 68.1669636,118.479191 C67.6552138,117.483429 66.5428628,116.955897 65.5467021,117.139117 Z" id="crooks-leg-right" stroke="#010101" stroke-width="2.13352083" fill="#F47521" stroke-linecap="round" transform="translate(77.810864, 135.750185) scale(-1, 1) rotate(16.000000) translate(-77.810864, -135.750185) "></path>
                <g id="tail" transform="translate(113.265392, 54.299218) rotate(31.210240) translate(-113.265392, -54.299218) translate(98.265392, 30.299218)" stroke="#010101" stroke-width="3.36092651" fill="#964D22" stroke-linecap="round" stroke-linejoin="round">
                    <path d="M18.7596137,13.0482699 C19.9733786,7.43765367 18.9935925,4.04739857 17.9203773,3.20085032 C15.4944722,0.862687327 12.6249824,0.8464388 9.90416662,0.108755687 C8.2963749,0.114442671 6.41560794,-0.468067012 4.45684804,4.81757873 C2.88886521,9.94155164 2.03013057,16.3605321 1.33713091,22.0402046 C-0.00824710641,33.6302788 0.705875643,44.2210685 3.53230687,45.7744276 C7.08260996,48.0516586 12.4511232,37.5071772 16.1257275,24.1525131 C17.1047012,20.6403941 17.9959329,16.8918589 18.7596137,13.0482699 Z" id="path3971"></path>
                    <path d="M28.3641178,19.355948 C30.5666056,14.3026562 30.176641,10.8214094 29.250475,9.74331961 C27.2340328,6.90307714 24.3604809,6.17026858 21.7664036,4.78426925 C20.1561746,4.38699277 18.3745236,3.36008588 15.4847231,7.91536035 C13.0165719,12.4153898 11.0269398,18.3282287 9.33709304,23.5765028 C5.9549622,34.305405 4.80862864,44.5939722 7.36614675,46.785086 C10.5224231,49.8463084 17.7530175,41.1249117 23.7763463,29.2976091 C25.3735765,26.1876411 26.9253108,22.8323203 28.3641178,19.355948 Z" id="path3975"></path>
                </g>
                <g id="body" transform="translate(18.858268, 43.000000)">
                    <path d="M87.9681121,39.451572 C87.9760489,60.812425 68.7865809,78.1339799 45.1136443,78.1339799 C21.4415014,78.1339799 2.25123974,60.812425 2.25758914,39.451572 C2.25123974,18.088809 21.4407077,0.768527392 45.1136443,0.768527392 C68.7857872,0.768527392 87.9752552,18.088809 87.9681121,39.451572 Z" stroke="#010101" stroke-width="3.2497052" fill="url(#radialGradient-1)" stroke-linecap="round" stroke-linejoin="round"></path>
                    <path d="M87.3593636,27.7964936 C87.3919043,28.3904519 87.4109525,28.9945959 87.4109525,29.5949203 C87.4109525,50.9411314 67.2420899,68.2639594 42.3873716,68.2639594 C22.9605948,68.2639594 6.38231679,57.6726585 0.0726025683,42.8555322 C1.16390534,63.3722388 20.9033899,79.7382402 45.0588808,79.7382402 C69.9143927,79.7382402 90.0832553,62.4147755 90.0832553,41.0679279 C90.0824617,36.4072971 89.1221152,31.9351032 87.3593636,27.7964936 Z" id="path3887" fill-opacity="0.3137" fill="#010101"></path>
                </g>
                <g id="head">
                    <path d="M58.8104318,22.4692197 L50,39 C55.6590018,36.572655 61.4528993,34.5018012 67.8335521,34.9568283 C85.6240699,36.2217715 70.5033297,15.3970739 58.8104318,22.4692197 Z" id="path4090" stroke="#010101" stroke-width="2.19355101" fill="#ED2224" stroke-linecap="round" stroke-linejoin="round" transform="translate(63.000000, 30.000000) rotate(11.000000) translate(-63.000000, -30.000000) "></path>
                    <path d="M53.5894504,16.2282085 L49,38 C53.8374856,33.1876019 58.8798002,28.7272323 65.0662769,26.8752566 C82.3151215,21.71083 63.1059991,3.98454623 53.5894504,16.2282085 Z" id="path4092" stroke="#010101" stroke-width="2.38853332" fill="#ED2224" stroke-linecap="round" stroke-linejoin="round" transform="translate(60.500000, 25.000000) rotate(11.000000) translate(-60.500000, -25.000000) "></path>
                    <path d="M66.9999988,50.5 C67.0045164,68.9991395 54.0195885,84 38.0003767,84 C21.9811649,84 8.99473114,68.9991395 9.0000016,50.5 C8.99473114,32.0000485 21.9811649,17 38.0003767,17 C54.0195885,17 67.0045164,32.0000485 66.9999988,50.5 Z" id="path3984" stroke="#010101" stroke-width="2.4372789" fill="#C7612B" stroke-linecap="round" stroke-linejoin="round"></path>
                    <g id="eye-r" transform="translate(41.000000, 36.000000)" stroke="#010101">
                        <path d="M18.9955274,11.0129534 C18.8424866,16.660991 14.5585123,21.1316032 9.42989305,20.9970403 C4.30010551,20.8612759 0.269641597,16.1732005 0.423850651,10.5239615 C0.579227955,4.8759239 4.8608657,0.406513188 9.99065324,0.541076091 C15.1204408,0.675638995 19.1532412,5.36491588 18.9955274,11.0129534 Z" id="path4014" stroke-width="3.05333693" fill="#FFFFFF" stroke-linecap="round" stroke-linejoin="round"></path>
                        <path d="M10.5911073,10.2399013 C10.5479501,11.6753341 9.34935789,12.8112223 7.9143821,12.7782449 C6.47842546,12.7434354 5.34947321,11.5516689 5.39361123,10.116236 C5.43676839,8.68080318 6.63437977,7.54491502 8.0703364,7.5797245 C9.50727389,7.6127019 10.6352453,8.80446842 10.5911073,10.2399013 Z" id="path4016" stroke-width="1.12685892" fill="#010101"></path>
                    </g>
                    <g id="eye-l" transform="translate(19.000000, 24.000000)" stroke="#010101">
                        <path d="M17.8370498,12.0100624 C16.1760598,16.8442871 11.1671719,19.6253749 6.65297506,18.2213087 C2.13877823,16.8172425 -0.173536274,11.7598997 1.49196121,6.92454806 C3.15295126,2.0903233 8.1607123,-0.690764518 12.676036,0.714428555 C17.1902328,2.11849477 19.5014205,7.17696446 17.8370498,12.0100624 Z" id="path4012" stroke-width="3.05333693" fill="#FFFFFF" stroke-linecap="round" stroke-linejoin="round"></path>
                        <path d="M10.8450046,10.1965598 C10.3679264,11.5230056 8.93087386,12.2849473 7.63636297,11.9002687 C6.3408824,11.5146632 5.67762738,10.1279665 6.15470555,8.80244764 C6.63178372,7.47785569 8.0678666,6.71498713 9.36431684,7.09966569 C10.6578581,7.48527118 11.3230524,8.87196786 10.8450046,10.1965598 Z" id="path4018" stroke-width="1.12685892" fill="#010101"></path>
                    </g>
                    <path d="M65.8109145,39 L65.1310073,40.1901678 C65.2205084,41.568597 65.2558575,42.96965 65.2558575,44.3909026 C65.2558575,64.632643 47.7083854,81.4323503 35.5798639,79.2297723 C25.4805344,77.3956373 13.4264717,70.4186523 8,55.7051726 C10.7609948,73.7386791 28.7319047,87.1036251 37.3247584,86.9993946 C56.3787064,86.7691177 67,71.2557289 67,51.0139884 C67,46.8059817 66.6104072,42.7644208 65.8109145,39 Z" id="path4022" fill-opacity="0.3137" fill="#010101"></path>
                    <path d="M16.425521,53.0321158 L11.2923347,81.8101083 L30.8938451,62.8466563 C33.1918128,51.1985581 25.1786373,45.9186669 16.425521,53.0321158 Z" id="path3454" stroke="#010101" stroke-width="2.19355101" fill="#ED2224" stroke-linecap="round" stroke-linejoin="round" transform="translate(21.292335, 65.810108) rotate(-4.000000) translate(-21.292335, -65.810108) "></path>
                    <path d="M19.5520028,45 L0,66.0362611 L26.7487881,67 C34.8482378,58.6873489 30.7837956,46.6446414 19.5520028,45 Z" id="path4088" stroke="#010101" stroke-width="2.5177091" fill="#FEDA00" stroke-linecap="round" stroke-linejoin="round"></path>
                    <path d="M45,8.52817177 L46.5645503,35 C49.6961174,28.4885853 53.1096817,22.356437 58.2489376,19.1039643 C72.581468,10.0322989 50.4311189,-7.55871013 45,8.52817177 Z" id="path4094" stroke="#010101" stroke-width="2.4874056" fill="#ED2224" stroke-linecap="round" stroke-linejoin="round" transform="translate(54.000000, 18.500000) rotate(11.000000) translate(-54.000000, -18.500000) "></path>
                </g>
            </g>
            <g id="crooks-5" transform="translate(632.000000, 1.000000)">
                <path d="M47.5845608,88.22734 C45.0172937,88.1599086 43.5476742,95.0638915 41.4296835,97.6953478 C39.6202548,102.372578 32.0603497,114.846709 29.0732107,120.64843 C26.2516978,118.498744 21.0994042,115.985116 17.1737603,115.094697 C14.901404,115.083323 13.8736847,118.845669 16.2248464,119.586602 C17.6855889,120.380342 25.5203405,122.465264 24.3146999,123.178575 C20.653907,124.381778 14.3522038,123.66092 10.8092127,125.099727 C8.78058421,126.703456 10.6627759,128.748504 13.0571963,129.164295 C17.4897941,128.023649 22.1594629,128.633768 26.5871862,127.4525 C25.8291925,129.825597 23.4869674,131.827415 23.535713,134.375997 C24.0670398,137.019632 28.0739263,137.00907 28.5825052,134.103834 C30.0651832,131.335898 31.4544322,128.511904 32.9119249,125.730156 C36.9171866,124.454647 41.1531773,123.770584 45.0674472,122.335839 C47.1058248,121.079828 46.0959789,117.515714 43.7155699,118.029167 C40.4488037,118.798535 37.1990985,119.773446 33.9656419,120.63868 C37.5769376,114.089039 44.3988763,101.070488 47.4822712,96.5437384 C47.5131434,95.1049314 48.9088157,88.2833974 47.5845608,88.22734 Z" id="crooks-leg-left" stroke="#010101" stroke-width="2.3705787" fill="#F47521" stroke-linecap="round" transform="translate(29.050852, 112.274471) rotate(28.000000) translate(-29.050852, -112.274471) "></path>
                <path d="M83.9492867,114.552178 C80.8800347,115.168783 81.6951677,118.918071 82.1163343,121.171783 C82.3058593,126.088068 82.884086,131.028355 83.1438055,135.959538 C79.3541831,135.010215 75.6347551,132.902999 71.733699,132.682842 C68.8346686,133.225786 69.7084021,136.76035 72.38632,136.599785 C76.1013608,138.049013 80.7615816,139.709654 84.0703721,141.623198 C85.8989373,145.019904 85.9025415,149.339657 88.2645845,152.369711 C90.3247913,153.881841 94.6442873,150.908687 92.9473366,148.659114 C92.2260887,146.470788 88.7023278,141.768038 93.1421262,144.215421 C97.4389034,145.413869 101.330998,146.399249 105.695337,147.164004 C108.495218,147.015026 108.414494,142.3818 105.566355,142.356142 C101.844295,141.144452 98.4137288,140.886583 94.6916685,139.674893 C97.3853802,138.619629 100.916161,139.050011 103.153608,137.100878 C104.663666,135.107051 101.77692,132.357573 99.75532,133.580851 C95.9735945,134.486308 92.1927464,135.391765 88.4110209,136.297223 C87.8275296,129.480636 87.6757341,122.535762 86.6403661,115.805252 C86.1147852,114.874137 84.9723707,114.380853 83.9492867,114.552178 Z" id="crooks-leg-right" stroke="#010101" stroke-width="2.3705787" fill="#F47521" stroke-linecap="round" transform="translate(88.839841, 133.650076) scale(-1, 1) rotate(17.000000) translate(-88.839841, -133.650076) "></path>
                <g id="tail" transform="translate(125.265392, 55.299218) rotate(31.210240) translate(-125.265392, -55.299218) translate(110.265392, 31.299218)" stroke="#010101" stroke-width="3.36092651" fill="#964D22" stroke-linecap="round" stroke-linejoin="round">
                    <path d="M18.7596137,13.0482699 C19.9733786,7.43765367 18.9935925,4.04739857 17.9203773,3.20085032 C15.4944722,0.862687327 12.6249824,0.8464388 9.90416662,0.108755687 C8.2963749,0.114442671 6.41560794,-0.468067012 4.45684804,4.81757873 C2.88886521,9.94155164 2.03013057,16.3605321 1.33713091,22.0402046 C-0.00824710641,33.6302788 0.705875643,44.2210685 3.53230687,45.7744276 C7.08260996,48.0516586 12.4511232,37.5071772 16.1257275,24.1525131 C17.1047012,20.6403941 17.9959329,16.8918589 18.7596137,13.0482699 Z" id="path3971"></path>
                    <path d="M28.3641178,19.355948 C30.5666056,14.3026562 30.176641,10.8214094 29.250475,9.74331961 C27.2340328,6.90307714 24.3604809,6.17026858 21.7664036,4.78426925 C20.1561746,4.38699277 18.3745236,3.36008588 15.4847231,7.91536035 C13.0165719,12.4153898 11.0269398,18.3282287 9.33709304,23.5765028 C5.9549622,34.305405 4.80862864,44.5939722 7.36614675,46.785086 C10.5224231,49.8463084 17.7530175,41.1249117 23.7763463,29.2976091 C25.3735765,26.1876411 26.9253108,22.8323203 28.3641178,19.355948 Z" id="path3975"></path>
                </g>
                <g id="body" transform="translate(26.858268, 44.000000)">
                    <path d="M87.9681121,39.451572 C87.9760489,60.812425 68.7865809,78.1339799 45.1136443,78.1339799 C21.4415014,78.1339799 2.25123974,60.812425 2.25758914,39.451572 C2.25123974,18.088809 21.4407077,0.768527392 45.1136443,0.768527392 C68.7857872,0.768527392 87.9752552,18.088809 87.9681121,39.451572 Z" stroke="#010101" stroke-width="3.2497052" fill="url(#radialGradient-1)" stroke-linecap="round" stroke-linejoin="round"></path>
                    <path d="M87.3593636,27.7964936 C87.3919043,28.3904519 87.4109525,28.9945959 87.4109525,29.5949203 C87.4109525,50.9411314 67.2420899,68.2639594 42.3873716,68.2639594 C22.9605948,68.2639594 6.38231679,57.6726585 0.0726025683,42.8555322 C1.16390534,63.3722388 20.9033899,79.7382402 45.0588808,79.7382402 C69.9143927,79.7382402 90.0832553,62.4147755 90.0832553,41.0679279 C90.0824617,36.4072971 89.1221152,31.9351032 87.3593636,27.7964936 Z" id="path3887" fill-opacity="0.3137" fill="#010101"></path>
                </g>
                <g id="head" transform="translate(8.000000, 0.000000)">
                    <path d="M56.8104318,20.4692197 L48,37 C53.6590018,34.572655 59.4528993,32.5018012 65.8335521,32.9568283 C83.6240699,34.2217715 68.5033297,13.3970739 56.8104318,20.4692197 Z" id="path4090" stroke="#010101" stroke-width="2.19355101" fill="#ED2224" stroke-linecap="round" stroke-linejoin="round" transform="translate(61.000000, 28.000000) rotate(11.000000) translate(-61.000000, -28.000000) "></path>
                    <path d="M51.5894504,14.2282085 L47,36 C51.8374856,31.1876019 56.8798002,26.7272323 63.0662769,24.8752566 C80.3151215,19.71083 61.1059991,1.98454623 51.5894504,14.2282085 Z" id="path4092" stroke="#010101" stroke-width="2.38853332" fill="#ED2224" stroke-linecap="round" stroke-linejoin="round" transform="translate(58.500000, 23.000000) rotate(11.000000) translate(-58.500000, -23.000000) "></path>
                    <path d="M66.9999988,51.5 C67.0045164,69.9991395 54.0195885,85 38.0003767,85 C21.9811649,85 8.99473114,69.9991395 9.0000016,51.5 C8.99473114,33.0000485 21.9811649,18 38.0003767,18 C54.0195885,18 67.0045164,33.0000485 66.9999988,51.5 Z" id="path3984" stroke="#010101" stroke-width="2.4372789" fill="#C7612B" stroke-linecap="round" stroke-linejoin="round"></path>
                    <g id="eye-r" transform="translate(41.000000, 37.000000)" stroke="#010101">
                        <path d="M18.9955274,11.0129534 C18.8424866,16.660991 14.5585123,21.1316032 9.42989305,20.9970403 C4.30010551,20.8612759 0.269641597,16.1732005 0.423850651,10.5239615 C0.579227955,4.8759239 4.8608657,0.406513188 9.99065324,0.541076091 C15.1204408,0.675638995 19.1532412,5.36491588 18.9955274,11.0129534 Z" id="path4014" stroke-width="3.05333693" fill="#FFFFFF" stroke-linecap="round" stroke-linejoin="round"></path>
                        <path d="M10.5911073,10.2399013 C10.5479501,11.6753341 9.34935789,12.8112223 7.9143821,12.7782449 C6.47842546,12.7434354 5.34947321,11.5516689 5.39361123,10.116236 C5.43676839,8.68080318 6.63437977,7.54491502 8.0703364,7.5797245 C9.50727389,7.6127019 10.6352453,8.80446842 10.5911073,10.2399013 Z" id="path4016" stroke-width="1.12685892" fill="#010101"></path>
                    </g>
                    <g id="eye-l" transform="translate(19.000000, 25.000000)" stroke="#010101">
                        <path d="M17.8370498,12.0100624 C16.1760598,16.8442871 11.1671719,19.6253749 6.65297506,18.2213087 C2.13877823,16.8172425 -0.173536274,11.7598997 1.49196121,6.92454806 C3.15295126,2.0903233 8.1607123,-0.690764518 12.676036,0.714428555 C17.1902328,2.11849477 19.5014205,7.17696446 17.8370498,12.0100624 Z" id="path4012" stroke-width="3.05333693" fill="#FFFFFF" stroke-linecap="round" stroke-linejoin="round"></path>
                        <path d="M10.8450046,10.1965598 C10.3679264,11.5230056 8.93087386,12.2849473 7.63636297,11.9002687 C6.3408824,11.5146632 5.67762738,10.1279665 6.15470555,8.80244764 C6.63178372,7.47785569 8.0678666,6.71498713 9.36431684,7.09966569 C10.6578581,7.48527118 11.3230524,8.87196786 10.8450046,10.1965598 Z" id="path4018" stroke-width="1.12685892" fill="#010101"></path>
                    </g>
                    <path d="M65.8109145,40 L65.1310073,41.1901678 C65.2205084,42.568597 65.2558575,43.96965 65.2558575,45.3909026 C65.2558575,65.632643 47.7083854,82.4323503 35.5798639,80.2297723 C25.4805344,78.3956373 13.4264717,71.4186523 8,56.7051726 C10.7609948,74.7386791 28.7319047,88.1036251 37.3247584,87.9993946 C56.3787064,87.7691177 67,72.2557289 67,52.0139884 C67,47.8059817 66.6104072,43.7644208 65.8109145,40 Z" id="path4022" fill-opacity="0.3137" fill="#010101"></path>
                    <path d="M16.425521,54.0321158 L11.2923347,82.8101083 L30.8938451,63.8466563 C33.1918128,52.1985581 25.1786373,46.9186669 16.425521,54.0321158 Z" id="path3454" stroke="#010101" stroke-width="2.19355101" fill="#ED2224" stroke-linecap="round" stroke-linejoin="round" transform="translate(21.292335, 66.810108) rotate(-4.000000) translate(-21.292335, -66.810108) "></path>
                    <path d="M19.5520028,46 L0,67.0362611 L26.7487881,68 C34.8482378,59.6873489 30.7837956,47.6446414 19.5520028,46 Z" id="path4088" stroke="#010101" stroke-width="2.5177091" fill="#FEDA00" stroke-linecap="round" stroke-linejoin="round"></path>
                    <path d="M45,8.52817177 L46.5645503,35 C49.6961174,28.4885853 53.1096817,22.356437 58.2489376,19.1039643 C72.581468,10.0322989 50.4311189,-7.55871013 45,8.52817177 Z" id="path4094" stroke="#010101" stroke-width="2.4874056" fill="#ED2224" stroke-linecap="round" stroke-linejoin="round" transform="translate(54.000000, 18.500000) rotate(11.000000) translate(-54.000000, -18.500000) "></path>
                </g>
            </g>
            <g id="crooks-6" transform="translate(831.000000, 4.000000)">
                <path d="M76.142851,102.891316 C73.5755839,102.823884 73.1454476,110.971028 72.9618393,112.967159 C72.1477882,118.212996 69.8486217,131.313975 69.123125,136.571998 C65.2177918,135.47441 61.015562,130.460814 57.0899181,129.570395 C54.8175617,129.559021 53.7898425,133.321367 56.1410042,134.0623 C57.1148325,134.59146 58.9173499,135.976356 61.5485563,138.216989 C56.9158533,138.987256 53.3081247,139.440068 50.7253705,139.575425 C48.696742,141.179154 49.8400712,144.708525 51.845834,144.151246 C56.7100912,144.348482 63.2321343,143.554515 66.6371006,143.376068 C65.8791068,145.749165 63.5368818,147.750984 63.5856274,150.299565 C64.1169542,152.9432 68.1238407,152.932639 68.6324196,150.027402 C70.1150975,147.259466 71.5043465,144.435472 72.9618393,141.653724 C76.967101,140.378215 81.2030917,139.694152 85.1173616,138.259407 C87.1557392,137.003396 86.1458933,133.439282 83.7654842,133.952735 C80.4987181,134.722103 77.2490129,135.697015 74.0155562,136.562249 C74.8434186,130.40812 77.3261934,116.404535 78.2547966,110.296714 C78.2856688,108.857907 77.4671059,102.947373 76.142851,102.891316 Z" id="crooks-leg-left" stroke="#010101" stroke-width="2.3705787" fill="#F47521" stroke-linecap="round" transform="translate(67.936205, 127.568281) rotate(-4.000000) translate(-67.936205, -127.568281) "></path>
                <path d="M65.9767444,96.0998327 C63.799532,96.0424498 63.434748,102.97552 63.279036,104.674191 C62.5886668,109.138303 60.6388215,120.286996 60.0235523,124.761477 C56.7115713,123.82745 53.1478024,119.560972 49.8185966,118.803241 C47.891488,118.793562 47.0199141,121.99525 49.0138548,122.62577 C49.8397257,123.076076 51.3683797,124.254597 53.5998168,126.161335 C49.6709782,126.816818 46.6113856,127.202153 44.4210391,127.317339 C42.7006279,128.682083 43.6702467,131.685513 45.3712663,131.211279 C49.4964783,131.379123 55.0276023,130.703472 57.915239,130.551617 C57.2724102,132.571079 55.2860484,134.27459 55.3273879,136.443386 C55.7779882,138.693071 59.176093,138.684084 59.6074016,136.21178 C60.8648106,133.856317 62.0429857,131.45315 63.279036,129.085934 C66.6757629,128.000499 70.2681633,127.418374 73.5877232,126.197432 C75.3164023,125.12859 74.4599862,122.095594 72.4412418,122.532533 C69.6708079,123.187251 66.9148429,124.016883 64.1726577,124.753181 C64.8747398,119.51613 66.980297,107.599335 67.7678141,102.401691 C67.7939957,101.177293 67.0998002,96.1475365 65.9767444,96.0998327 Z" id="crooks-leg-left" stroke="#010101" stroke-width="2.0149919" fill="#F47521" stroke-linecap="round" transform="translate(59.016966, 117.099479) rotate(37.000000) translate(-59.016966, -117.099479) "></path>
                <g id="tail" transform="translate(126.265392, 48.299218) rotate(31.210240) translate(-126.265392, -48.299218) translate(111.265392, 24.299218)" stroke="#010101" stroke-width="3.36092651" fill="#964D22" stroke-linecap="round" stroke-linejoin="round">
                    <path d="M18.7596137,13.0482699 C19.9733786,7.43765367 18.9935925,4.04739857 17.9203773,3.20085032 C15.4944722,0.862687327 12.6249824,0.8464388 9.90416662,0.108755687 C8.2963749,0.114442671 6.41560794,-0.468067012 4.45684804,4.81757873 C2.88886521,9.94155164 2.03013057,16.3605321 1.33713091,22.0402046 C-0.00824710641,33.6302788 0.705875643,44.2210685 3.53230687,45.7744276 C7.08260996,48.0516586 12.4511232,37.5071772 16.1257275,24.1525131 C17.1047012,20.6403941 17.9959329,16.8918589 18.7596137,13.0482699 Z" id="path3971"></path>
                    <path d="M28.3641178,19.355948 C30.5666056,14.3026562 30.176641,10.8214094 29.250475,9.74331961 C27.2340328,6.90307714 24.3604809,6.17026858 21.7664036,4.78426925 C20.1561746,4.38699277 18.3745236,3.36008588 15.4847231,7.91536035 C13.0165719,12.4153898 11.0269398,18.3282287 9.33709304,23.5765028 C5.9549622,34.305405 4.80862864,44.5939722 7.36614675,46.785086 C10.5224231,49.8463084 17.7530175,41.1249117 23.7763463,29.2976091 C25.3735765,26.1876411 26.9253108,22.8323203 28.3641178,19.355948 Z" id="path3975"></path>
                </g>
                <g id="body" transform="translate(31.858268, 37.000000)">
                    <path d="M87.9681121,39.451572 C87.9760489,60.812425 68.7865809,78.1339799 45.1136443,78.1339799 C21.4415014,78.1339799 2.25123974,60.812425 2.25758914,39.451572 C2.25123974,18.088809 21.4407077,0.768527392 45.1136443,0.768527392 C68.7857872,0.768527392 87.9752552,18.088809 87.9681121,39.451572 Z" stroke="#010101" stroke-width="3.2497052" fill="url(#radialGradient-1)" stroke-linecap="round" stroke-linejoin="round"></path>
                    <path d="M87.3593636,27.7964936 C87.3919043,28.3904519 87.4109525,28.9945959 87.4109525,29.5949203 C87.4109525,50.9411314 67.2420899,68.2639594 42.3873716,68.2639594 C22.9605948,68.2639594 6.38231679,57.6726585 0.0726025683,42.8555322 C1.16390534,63.3722388 20.9033899,79.7382402 45.0588808,79.7382402 C69.9143927,79.7382402 90.0832553,62.4147755 90.0832553,41.0679279 C90.0824617,36.4072971 89.1221152,31.9351032 87.3593636,27.7964936 Z" id="path3887" fill-opacity="0.3137" fill="#010101"></path>
                </g>
                <g id="head">
                    <path d="M58.8104318,18.4692197 L50,35 C55.6590018,32.572655 61.4528993,30.5018012 67.8335521,30.9568283 C85.6240699,32.2217715 70.5033297,11.3970739 58.8104318,18.4692197 Z" id="path4090" stroke="#010101" stroke-width="2.19355101" fill="#ED2224" stroke-linecap="round" stroke-linejoin="round" transform="translate(63.000000, 26.000000) rotate(11.000000) translate(-63.000000, -26.000000) "></path>
                    <path d="M53.5894504,12.2282085 L49,34 C53.8374856,29.1876019 58.8798002,24.7272323 65.0662769,22.8752566 C82.3151215,17.71083 63.1059991,-0.0154537734 53.5894504,12.2282085 Z" id="path4092" stroke="#010101" stroke-width="2.38853332" fill="#ED2224" stroke-linecap="round" stroke-linejoin="round" transform="translate(60.500000, 21.000000) rotate(11.000000) translate(-60.500000, -21.000000) "></path>
                    <path d="M66.9999988,46.5 C67.0045164,64.9991395 54.0195885,80 38.0003767,80 C21.9811649,80 8.99473114,64.9991395 9.0000016,46.5 C8.99473114,28.0000485 21.9811649,13 38.0003767,13 C54.0195885,13 67.0045164,28.0000485 66.9999988,46.5 Z" id="path3984" stroke="#010101" stroke-width="2.4372789" fill="#C7612B" stroke-linecap="round" stroke-linejoin="round"></path>
                    <g id="eye-r" transform="translate(41.000000, 32.000000)" stroke="#010101">
                        <path d="M18.9955274,11.0129534 C18.8424866,16.660991 14.5585123,21.1316032 9.42989305,20.9970403 C4.30010551,20.8612759 0.269641597,16.1732005 0.423850651,10.5239615 C0.579227955,4.8759239 4.8608657,0.406513188 9.99065324,0.541076091 C15.1204408,0.675638995 19.1532412,5.36491588 18.9955274,11.0129534 Z" id="path4014" stroke-width="3.05333693" fill="#FFFFFF" stroke-linecap="round" stroke-linejoin="round"></path>
                        <path d="M11.6908427,12.802796 C11.6385562,14.5418783 10.1864155,15.9180505 8.44788701,15.8780971 C6.70817019,15.8359241 5.34040103,14.392053 5.39387594,12.6529708 C5.44616251,10.9138886 6.89711485,9.5377163 8.63683166,9.57988932 C10.3777368,9.61984271 11.7443176,11.0637138 11.6908427,12.802796 Z" id="path4016" stroke-width="1.12685892" fill="#010101"></path>
                    </g>
                    <g id="eye-l" transform="translate(19.000000, 20.000000)" stroke="#010101">
                        <path d="M17.8370498,12.0100624 C16.1760598,16.8442871 11.1671719,19.6253749 6.65297506,18.2213087 C2.13877823,16.8172425 -0.173536274,11.7598997 1.49196121,6.92454806 C3.15295126,2.0903233 8.1607123,-0.690764518 12.676036,0.714428555 C17.1902328,2.11849477 19.5014205,7.17696446 17.8370498,12.0100624 Z" id="path4012" stroke-width="3.05333693" fill="#FFFFFF" stroke-linecap="round" stroke-linejoin="round"></path>
                        <path d="M11.8140055,11.8358718 C11.2415117,13.4276068 9.51704864,14.3419367 7.96363556,13.8803224 C6.40905888,13.4175958 5.61315285,11.7535598 6.18564666,10.1629372 C6.75814047,8.57342683 8.48143992,7.65798456 10.0371802,8.11959882 C11.5894297,8.58232542 12.3876629,10.2463614 11.8140055,11.8358718 Z" id="path4018" stroke-width="1.12685892" fill="#010101"></path>
                    </g>
                    <path d="M65.8109145,35 L65.1310073,36.1901678 C65.2205084,37.568597 65.2558575,38.96965 65.2558575,40.3909026 C65.2558575,60.632643 47.7083854,77.4323503 35.5798639,75.2297723 C25.4805344,73.3956373 13.4264717,66.4186523 8,51.7051726 C10.7609948,69.7386791 28.7319047,83.1036251 37.3247584,82.9993946 C56.3787064,82.7691177 67,67.2557289 67,47.0139884 C67,42.8059817 66.6104072,38.7644208 65.8109145,35 Z" id="path4022" fill-opacity="0.3137" fill="#010101"></path>
                    <path d="M16.425521,49.0321158 L11.2923347,77.8101083 L30.8938451,58.8466563 C33.1918128,47.1985581 25.1786373,41.9186669 16.425521,49.0321158 Z" id="path3454" stroke="#010101" stroke-width="2.19355101" fill="#ED2224" stroke-linecap="round" stroke-linejoin="round" transform="translate(21.292335, 61.810108) rotate(-4.000000) translate(-21.292335, -61.810108) "></path>
                    <path d="M19.5520028,41 L0,62.0362611 L26.7487881,63 C34.8482378,54.6873489 30.7837956,42.6446414 19.5520028,41 Z" id="path4088" stroke="#010101" stroke-width="2.5177091" fill="#FEDA00" stroke-linecap="round" stroke-linejoin="round"></path>
                    <path d="M45,8.52817177 L46.5645503,35 C49.6961174,28.4885853 53.1096817,22.356437 58.2489376,19.1039643 C72.581468,10.0322989 50.4311189,-7.55871013 45,8.52817177 Z" id="path4094" stroke="#010101" stroke-width="2.4874056" fill="#ED2224" stroke-linecap="round" stroke-linejoin="round" transform="translate(54.000000, 18.500000) rotate(11.000000) translate(-54.000000, -18.500000) "></path>
                </g>
            </g>
            <g id="crooks-7" transform="translate(1106.474018, 78.150063) rotate(-11.000000) translate(-1106.474018, -78.150063) translate(1037.474018, -4.349937)">
                <g id="tail" transform="translate(108.609173, 66.772108) rotate(31.210240) translate(-108.609173, -66.772108) translate(91.609173, 39.772108)" stroke="#010101" stroke-width="3.36092651" fill="#964D22" stroke-linecap="round" stroke-linejoin="round">
                    <path d="M21.0303976,14.6286323 C22.3911068,8.33876776 21.292703,4.53807204 20.0895592,3.58903659 C17.3699624,0.967804314 14.1530783,0.949588662 11.1028674,0.122598077 C9.30042871,0.128973555 7.19196703,-0.524057557 4.99607022,5.40149393 C3.23825984,11.1457997 2.27556265,18.3418929 1.4986651,24.7091739 C-0.00959085383,37.7023982 0.790987037,49.57536 3.95959964,51.3167763 C7.93971953,53.8696999 13.9581708,42.0486527 18.0776405,27.0772086 C19.1751335,23.1398955 20.174262,18.9375447 21.0303976,14.6286323 Z" id="path3971"></path>
                    <path d="M31.7976693,21.6999483 C34.2668009,16.0348806 33.8296252,12.1321772 32.7913331,10.9235687 C30.5307707,7.73947282 27.3093327,6.91794693 24.4012039,5.36415184 C22.5960329,4.91877916 20.5986867,3.76754997 17.359033,8.87430792 C14.5920755,13.9191326 12.361569,20.5478083 10.4671412,26.4314638 C6.67555331,38.4592586 5.39043908,49.9934092 8.25758265,52.4497898 C11.795973,55.8816186 19.901938,46.1043676 26.65448,32.8451947 C28.4450786,29.358719 30.1846733,25.5971869 31.7976693,21.6999483 Z" id="path3975"></path>
                </g>
                <path d="M35.5175643,106.943028 C32.9502972,106.875596 32.5201609,115.02274 32.3365526,117.018871 C31.5225014,122.264708 29.223335,135.365687 28.4978383,140.62371 C24.5925051,139.526122 20.7822257,137.826526 16.8565818,136.936107 C14.5842255,136.924733 13.5565062,140.687079 15.9076679,141.428012 C17.3684104,142.221752 22.840914,143.060176 21.6352733,143.773487 C17.9744804,144.97669 14.0350253,145.50233 10.4920342,146.941137 C8.46340574,148.544866 10.4083543,152.1626 12.7400178,151.005705 C17.1726157,149.865059 21.5840905,148.609048 26.0118138,147.42778 C25.2538201,149.800877 22.9115951,151.802696 22.9603406,154.351277 C23.4916674,156.994912 27.4985539,156.984351 28.0071328,154.079114 C29.4898108,151.311178 30.8790598,148.487184 32.3365526,145.705436 C36.3418142,144.429927 40.577805,143.745864 44.4920749,142.311119 C46.5304525,141.055108 45.5206066,137.490994 43.1401975,138.004447 C39.8734313,138.773815 36.6237261,139.748727 33.3902695,140.613961 C34.2181319,134.459831 36.7009066,120.456247 37.6295099,114.348426 C37.6603821,112.909619 36.8418191,106.999085 35.5175643,106.943028 Z" id="crooks-leg-left" stroke="#010101" stroke-width="2.3705787" fill="#F47521" stroke-linecap="round" transform="translate(27.614904, 131.619992) rotate(26.000000) translate(-27.614904, -131.619992) "></path>
                <path d="M75.4059594,122.341636 C73.3901274,122.288688 72.2361743,127.709733 70.5731166,129.775966 C69.1523435,133.448552 63.2162653,143.243307 60.8707477,147.79885 C58.6552806,146.110905 54.609672,144.137191 51.5272353,143.438029 C49.7429688,143.429098 48.9359981,146.383312 50.782143,146.965097 C51.9291258,147.588346 58.0810149,149.225438 57.1343394,149.785533 C54.2598651,150.730295 49.3117339,150.164273 46.5297582,151.294032 C44.9368683,152.553289 46.4147753,154.159071 48.294887,154.485553 C51.7753867,153.589911 55.4420357,154.06898 58.9187079,153.141442 C58.3235271,155.004811 56.4843995,156.576649 56.5226747,158.577809 C56.9398754,160.653606 60.0861042,160.645313 60.4854431,158.364105 C61.6496498,156.190707 62.7404956,153.973292 63.8849268,151.789049 C67.0298798,150.787512 70.3560025,150.250382 73.4295083,149.123812 C75.0300533,148.137586 74.2371169,145.339024 72.3680069,145.742191 C69.8029245,146.346302 67.2512385,147.111808 64.712311,147.791194 C67.5479198,142.648381 72.9045428,132.426145 75.325641,128.871716 C75.349882,127.741957 76.4457714,122.385652 75.4059594,122.341636 Z" id="crooks-leg-left" stroke="#010101" stroke-width="2.3705787" fill="#F47521" stroke-linecap="round" transform="translate(60.853191, 141.223573) rotate(-25.000000) translate(-60.853191, -141.223573) "></path>
                <g id="body" transform="translate(17.609173, 58.673500)">
                    <path d="M87.9681121,39.451572 C87.9760489,60.812425 68.7865809,78.1339799 45.1136443,78.1339799 C21.4415014,78.1339799 2.25123974,60.812425 2.25758914,39.451572 C2.25123974,18.088809 21.4407077,0.768527392 45.1136443,0.768527392 C68.7857872,0.768527392 87.9752552,18.088809 87.9681121,39.451572 Z" stroke="#010101" stroke-width="3.2497052" fill="url(#radialGradient-1)" stroke-linecap="round" stroke-linejoin="round"></path>
                    <path d="M87.3593636,27.7964936 C87.3919043,28.3904519 87.4109525,28.9945959 87.4109525,29.5949203 C87.4109525,50.9411314 67.2420899,68.2639594 42.3873716,68.2639594 C22.9605948,68.2639594 6.38231679,57.6726585 0.0726025683,42.8555322 C1.16390534,63.3722388 20.9033899,79.7382402 45.0588808,79.7382402 C69.9143927,79.7382402 90.0832553,62.4147755 90.0832553,41.0679279 C90.0824617,36.4072971 89.1221152,31.9351032 87.3593636,27.7964936 Z" id="path3887" fill-opacity="0.3137" fill="#010101"></path>
                </g>
                <g id="head" transform="translate(37.129628, 45.403034) rotate(-2.000000) translate(-37.129628, -45.403034) translate(3.129628, 1.903034)">
                    <path d="M49.9712395,19.0152766 L41.1911022,36.0336996 C46.8306456,33.5347502 52.6046208,31.4028082 58.9633338,31.8712581 C76.692679,33.1735159 61.6239314,11.7345091 49.9712395,19.0152766 Z" id="path4090" stroke="#010101" stroke-width="2.19355101" fill="#ED2224" stroke-linecap="round" stroke-linejoin="round"></path>
                    <path d="M45.2991112,12.321721 L40.5684267,34.6118551 C45.5547793,29.6848835 50.7522642,25.1183215 57.1291214,23.2222539 C74.9087755,17.9348727 55.1085187,-0.213438306 45.2991112,12.321721 Z" id="path4092" stroke="#010101" stroke-width="2.38853332" fill="#ED2224" stroke-linecap="round" stroke-linejoin="round"></path>
                    <path d="M66.2564723,48.9251448 C66.2614208,67.7134508 52.0380273,82.948795 34.4909487,82.948795 C16.94387,82.948795 2.71882713,67.7134508 2.72460028,48.9251448 C2.71882713,30.136014 16.94387,14.9014945 34.4909487,14.9014945 C52.0380273,14.9014945 66.2614208,30.136014 66.2564723,48.9251448 Z" id="path3984" stroke="#010101" stroke-width="2.4372789" fill="#C7612B" stroke-linecap="round" stroke-linejoin="round"></path>
                    <g id="eye-r" transform="translate(40.142728, 33.792781)" stroke="#010101">
                        <path d="M18.6152142,10.5196036 C18.4653591,15.8972305 14.2705584,20.1538035 9.24869458,20.025683 C4.2256868,19.8964187 0.27911954,15.4327939 0.430118635,10.0540231 C0.582261663,4.67639622 4.77477442,0.420967175 9.7977822,0.549087619 C14.82079,0.677208064 18.7696451,5.14197677 18.6152142,10.5196036 Z" id="path4014" stroke-width="3.05333693" fill="#FFFFFF" stroke-linecap="round" stroke-linejoin="round"></path>
                        <path d="M12.5523718,12.0318825 C12.5020387,13.8244247 11.1041532,15.2429011 9.43057986,15.2017195 C7.75586262,15.1582501 6.43919627,13.6699938 6.49067323,11.8774516 C6.54100626,10.0849093 7.93774789,8.66643292 9.61246513,8.70990236 C11.2883263,8.75108393 12.6038487,10.2393402 12.5523718,12.0318825 Z" id="path4016" stroke-width="1.12685892" fill="#010101"></path>
                    </g>
                    <g id="eye-l" transform="translate(15.854436, 22.353456)" stroke="#010101">
                        <path d="M18.1073082,12.192033 C16.4211516,17.0995036 11.3363715,19.9227291 6.75377771,18.4973892 C2.17118396,17.0720492 -0.176165611,11.93808 1.51456668,7.02946546 C3.20072325,2.12199486 8.28435945,-0.701230647 12.8680971,0.72525323 C17.4506909,2.15059317 19.7968965,7.28570635 18.1073082,12.192033 Z" id="path4012" stroke-width="3.05333693" fill="#FFFFFF" stroke-linecap="round" stroke-linejoin="round"></path>
                        <path d="M12.5775383,12.1737301 C12.0147235,13.8106976 10.3194154,14.7510101 8.7922655,14.2762781 C7.26397163,13.8004022 6.48152177,12.0890791 7.04433658,10.4532555 C7.60715139,8.81857595 9.30131548,7.87711947 10.8307533,8.35185147 C12.3567593,8.82772741 13.141497,10.5390505 12.5775383,12.1737301 Z" id="path4018" stroke-width="1.12685892" fill="#010101"></path>
                    </g>
                    <path d="M65.5612201,37.3928642 L64.8156589,38.6077 C64.9138025,40.0146993 64.9525651,41.4447912 64.9525651,42.8955014 C64.9525651,63.5567824 45.7106544,80.7046889 32.410965,78.4564592 C21.3364128,76.5843089 8.11837235,69.4627154 2.16790363,54.4442767 C5.19550871,72.8515547 24.9017457,86.4935094 34.3243521,86.3871185 C55.2182085,86.1520688 66.8651274,70.3171417 66.8651274,49.6558607 C66.8651274,45.3606367 66.4379142,41.2353083 65.5612201,37.3928642 Z" id="path4022" fill-opacity="0.3137" fill="#010101"></path>
                    <path d="M16.8193349,56.0978719 L11.618551,85.0155829 L31.4781888,65.9600625 C33.806418,54.2554122 25.6877189,48.9498868 16.8193349,56.0978719 Z" id="path3454" stroke="#010101" stroke-width="2.19355101" fill="#ED2224" stroke-linecap="round" stroke-linejoin="round"></path>
                    <path d="M20.0500908,45.8355292 L0.328183903,67.3660817 L27.3094153,68.3524657 C35.479248,59.8444913 31.3794864,47.518815 20.0500908,45.8355292 Z" id="path4088" stroke="#010101" stroke-width="2.5177091" fill="#FEDA00" stroke-linecap="round" stroke-linejoin="round"></path>
                    <path d="M38.4538042,6.69372393 L40.0232764,33.69145 C43.164695,27.0506774 46.588998,20.7967059 51.7444214,17.4796186 C66.1220404,8.2277325 43.9020088,-9.71274513 38.4538042,6.69372393 Z" id="path4094" stroke="#010101" stroke-width="2.4874056" fill="#ED2224" stroke-linecap="round" stroke-linejoin="round"></path>
                </g>
            </g>
            <g id="crooks-8" transform="translate(1303.927258, 79.927258) rotate(1.000000) translate(-1303.927258, -79.927258) translate(1222.427258, -2.572742)">
                <path d="M53.8642407,99.8091635 C51.1764648,99.7385668 49.6378607,106.966626 47.4204503,109.721604 C43.8255349,113.796671 35.3328864,128.469653 32.2055296,134.543709 C29.2515735,132.293116 23.8574286,129.661497 19.747513,128.729281 C17.3684911,128.717373 16.2925302,132.656326 18.7540566,133.432038 C20.2833671,134.263038 28.4858859,136.445827 27.2236519,137.19262 C23.3910195,138.452303 16.7935112,137.697607 13.0842103,139.203952 C10.960357,140.882962 12.9308997,143.024005 15.4377154,143.459314 C20.0783816,142.265125 24.9672469,142.903883 29.6028098,141.667166 C28.8092355,144.151657 26.3570653,146.247442 26.408099,148.915655 C26.9643665,151.683384 31.1593383,151.672326 31.6917901,148.630717 C33.2440658,145.732852 34.6985268,142.776298 36.224435,139.863974 C40.4177057,138.528592 44.852536,137.812419 48.9505437,136.310326 C51.0846037,134.995357 50.0273552,131.263942 47.5352085,131.801497 C44.1150987,132.606979 40.7128507,133.627654 37.3276139,134.533502 C41.1084258,127.676417 50.5290186,113.255175 53.7571496,108.515938 C53.7894709,107.009593 55.2506568,99.8678523 53.8642407,99.8091635 Z" id="crooks-leg-left" stroke="#010101" stroke-width="2.3705787" fill="#F47521" stroke-linecap="round" transform="translate(33.321335, 125.380876) rotate(20.000000) translate(-33.321335, -125.380876) "></path>
                <path d="M78.7398962,122.617635 C75.864166,123.230105 76.6279034,126.954249 77.0225148,129.192846 C77.2000899,134.076162 77.7418584,138.983318 77.985202,143.881432 C74.434522,142.938475 70.9496106,140.845391 67.294523,140.62671 C64.5782816,141.166012 65.6708617,145.626765 68.1799322,145.467276 C71.6607331,146.906785 75.7531816,147.606398 78.853347,149.50711 C80.5666179,152.881037 81.4660029,156.881409 83.6791149,159.891143 C85.609422,161.393132 88.760558,158.730328 87.1706032,156.495841 C86.7200886,155.04674 86.2149586,153.394535 85.6552134,151.539224 C93.0154473,151.15748 98.0586175,151.219818 100.784724,151.726235 C103.408068,151.578256 103.332434,146.976101 100.663875,146.950616 C97.1764968,145.747051 92.5174623,146.648484 88.5090963,146.60417 C90.8851435,144.770468 96.032946,142.716765 98.1293187,140.780703 C99.5441648,138.800248 96.8394329,136.069208 94.9452985,137.284282 C91.4020174,138.183667 86.4635912,143.317466 82.9203101,144.216851 C82.373609,137.445978 82.2313845,130.547679 81.2612983,123.862305 C80.7688562,122.937435 79.6984729,122.447459 78.7398962,122.617635 Z" id="crooks-leg-right" stroke="#010101" stroke-width="2.3705787" fill="#F47521" stroke-linecap="round" transform="translate(84.209447, 141.456816) scale(-1, 1) rotate(17.000000) translate(-84.209447, -141.456816) "></path>
                <g id="tail" transform="translate(134.265392, 63.299218) rotate(52.210240) translate(-134.265392, -63.299218) translate(119.265392, 39.299218)" stroke="#010101" stroke-width="3.36092651" fill="#964D22" stroke-linecap="round" stroke-linejoin="round">
                    <path d="M18.7596137,13.0482699 C19.9733786,7.43765367 18.9935925,4.04739857 17.9203773,3.20085032 C15.4944722,0.862687327 12.6249824,0.8464388 9.90416662,0.108755687 C8.2963749,0.114442671 6.41560794,-0.468067012 4.45684804,4.81757873 C2.88886521,9.94155164 2.03013057,16.3605321 1.33713091,22.0402046 C-0.00824710641,33.6302788 0.705875643,44.2210685 3.53230687,45.7744276 C7.08260996,48.0516586 12.4511232,37.5071772 16.1257275,24.1525131 C17.1047012,20.6403941 17.9959329,16.8918589 18.7596137,13.0482699 Z" id="path3971"></path>
                    <path d="M28.3641178,19.355948 C30.5666056,14.3026562 30.176641,10.8214094 29.250475,9.74331961 C27.2340328,6.90307714 24.3604809,6.17026858 21.7664036,4.78426925 C20.1561746,4.38699277 18.3745236,3.36008588 15.4847231,7.91536035 C13.0165719,12.4153898 11.0269398,18.3282287 9.33709304,23.5765028 C5.9549622,34.305405 4.80862864,44.5939722 7.36614675,46.785086 C10.5224231,49.8463084 17.7530175,41.1249117 23.7763463,29.2976091 C25.3735765,26.1876411 26.9253108,22.8323203 28.3641178,19.355948 Z" id="path3975"></path>
                </g>
                <g id="body" transform="translate(30.858268, 48.000000)">
                    <path d="M87.9681121,39.451572 C87.9760489,60.812425 68.7865809,78.1339799 45.1136443,78.1339799 C21.4415014,78.1339799 2.25123974,60.812425 2.25758914,39.451572 C2.25123974,18.088809 21.4407077,0.768527392 45.1136443,0.768527392 C68.7857872,0.768527392 87.9752552,18.088809 87.9681121,39.451572 Z" stroke="#010101" stroke-width="3.2497052" fill="url(#radialGradient-1)" stroke-linecap="round" stroke-linejoin="round"></path>
                    <path d="M87.3593636,27.7964936 C87.3919043,28.3904519 87.4109525,28.9945959 87.4109525,29.5949203 C87.4109525,50.9411314 67.2420899,68.2639594 42.3873716,68.2639594 C22.9605948,68.2639594 6.38231679,57.6726585 0.0726025683,42.8555322 C1.16390534,63.3722388 20.9033899,79.7382402 45.0588808,79.7382402 C69.9143927,79.7382402 90.0832553,62.4147755 90.0832553,41.0679279 C90.0824617,36.4072971 89.1221152,31.9351032 87.3593636,27.7964936 Z" id="path3887" fill-opacity="0.3137" fill="#010101"></path>
                </g>
                <g id="head" transform="translate(46.635668, 49.550687) rotate(-10.000000) translate(-46.635668, -49.550687) translate(7.135668, 6.550687)">
                    <path d="M62.1839463,20.5467275 L49.5916284,34.8633867 C56.0123992,33.5809665 62.5018734,32.668305 69.0916506,34.3062251 C87.4660146,38.8694345 75.8695261,15.9098903 62.1839463,20.5467275 Z" id="path4090" stroke="#010101" stroke-width="2.19355101" fill="#ED2224" stroke-linecap="round" stroke-linejoin="round"></path>
                    <path d="M56.8216882,13.7505958 L47.5830433,34.0230661 C53.628979,30.2635879 59.817767,26.8845572 66.6738287,26.2539979 C85.7897484,24.4950917 69.2807754,3.65903628 56.8216882,13.7505958 Z" id="path4092" stroke="#010101" stroke-width="2.38853332" fill="#ED2224" stroke-linecap="round" stroke-linejoin="round"></path>
                    <path d="M69.879859,49.2058422 C69.8846788,67.5425439 56.0311352,82.4116844 38.940332,82.4116844 C21.8495288,82.4116844 7.99437868,67.5425439 8.00000171,49.2058422 C7.99437868,30.8683356 21.8495288,16 38.940332,16 C56.0311352,16 69.8846788,30.8683356 69.879859,49.2058422 Z" id="path3984" stroke="#010101" stroke-width="2.4372789" fill="#C7612B" stroke-linecap="round" stroke-linejoin="round"></path>
                    <path d="M68.8649196,38.0329367 L68.1395306,39.2090898 C68.2350188,40.5712874 68.2727326,41.9558423 68.2727326,43.3603591 C68.2727326,63.3637441 49.5514373,79.9656274 36.6115888,77.7889857 C25.8366733,75.9764485 12.9762644,69.0816205 7.18679355,54.5413985 C10.1324828,72.3625525 29.3055413,85.5701205 38.4732066,85.4671172 C58.801752,85.239552 70.133548,69.9088402 70.133548,49.9054552 C70.133548,45.7469996 69.7178937,41.7530298 68.8649196,38.0329367 Z" id="path4022" fill-opacity="0.3137" fill="#010101"></path>
                    <path d="M17.0880287,54.3203614 L11.9548425,83.0983539 L31.5563528,64.1349019 C33.8543206,52.4868037 25.841145,47.2069125 17.0880287,54.3203614 Z" id="path3454" stroke="#010101" stroke-width="2.19355101" fill="#ED2224" stroke-linecap="round" stroke-linejoin="round" transform="translate(21.954843, 67.098354) rotate(-4.000000) translate(-21.954843, -67.098354) "></path>
                    <path d="M20.2145105,46.2882456 L0.662507751,67.3245067 L27.4112959,68.2882456 C35.5107455,59.9755945 31.4463034,47.932887 20.2145105,46.2882456 Z" id="path4088" stroke="#010101" stroke-width="2.5177091" fill="#FEDA00" stroke-linecap="round" stroke-linejoin="round"></path>
                    <path d="M43.6527036,8.49778727 L45.217254,34.9696155 C48.348821,28.4582008 51.7623853,22.3260525 56.9016412,19.0735798 C71.2341717,10.0019144 49.0838226,-7.58909463 43.6527036,8.49778727 Z" id="path4094" stroke="#010101" stroke-width="2.4874056" fill="#ED2224" stroke-linecap="round" stroke-linejoin="round" transform="translate(52.652704, 18.469616) rotate(11.000000) translate(-52.652704, -18.469616) "></path>
                    <g id="eye-r" transform="translate(42.309450, 35.292289)" stroke="#010101">
                        <path d="M19.5949623,11.0205371 C19.4372201,16.6542415 15.0216405,21.1135084 9.73546798,20.979287 C4.44809137,20.8438672 0.293810042,16.1676888 0.452756458,10.5327861 C0.612907013,4.89908176 5.02607834,0.441013231 10.313455,0.575234649 C15.6008316,0.709456067 19.7575212,5.3868328 19.5949623,11.0205371 Z" id="path4014" stroke-width="3.05333693" fill="#FFFFFF" stroke-linecap="round" stroke-linejoin="round"></path>
                        <path d="M13.2130229,12.6048292 C13.1600408,14.4827307 11.6885823,15.9687535 9.92692617,15.9256109 C8.16406591,15.8800715 6.77810133,14.3209459 6.83228761,12.4430445 C6.88526975,10.565143 8.3555241,9.0791202 10.1183843,9.12465961 C11.8824487,9.16780221 13.2672092,10.7269278 13.2130229,12.6048292 Z" id="path4016" stroke-width="1.12685892" fill="#010101"></path>
                    </g>
                    <g id="eye-l" transform="translate(18.463056, 23.722956)" stroke="#010101">
                        <path d="M18.1073082,12.192033 C16.4211516,17.0995036 11.3363715,19.9227291 6.75377771,18.4973892 C2.17118396,17.0720492 -0.176165611,11.93808 1.51456668,7.02946546 C3.20072325,2.12199486 8.28435945,-0.701230647 12.8680971,0.72525323 C17.4506909,2.15059317 19.7968965,7.28570635 18.1073082,12.192033 Z" id="path4012" stroke-width="3.05333693" fill="#FFFFFF" stroke-linecap="round" stroke-linejoin="round"></path>
                        <path d="M12.5775383,12.1737301 C12.0147235,13.8106976 10.3194154,14.7510101 8.7922655,14.2762781 C7.26397163,13.8004022 6.48152177,12.0890791 7.04433658,10.4532555 C7.60715139,8.81857595 9.30131548,7.87711947 10.8307533,8.35185147 C12.3567593,8.82772741 13.141497,10.5390505 12.5775383,12.1737301 Z" id="path4018" stroke-width="1.12685892" fill="#010101"></path>
                    </g>
                </g>
            </g>
            <g id="crooks-9" transform="translate(1505.083509, 80.663041) rotate(-7.000000) translate(-1505.083509, -80.663041) translate(1421.583509, -0.836959)">
                <path d="M36.5028751,85.0536852 C34.0745768,84.990349 33.1462906,90.8369384 32.9726211,92.7118416 C32.2026354,97.6390904 30.0279252,109.944426 29.3417004,114.883121 C25.6477668,113.852192 22.0437417,112.255815 18.3305969,111.419472 C16.1812454,111.408789 15.2091577,114.942642 17.4330486,115.638577 C18.8147196,116.384112 23.9909911,117.171617 22.850613,117.841607 C19.3879825,118.971738 15.661774,119.465455 12.3105686,120.816881 C10.3917518,122.323213 12.2314184,125.721237 14.4368666,124.634602 C18.6295235,123.563229 22.8022007,122.383497 26.9902469,121.27397 C26.2732841,123.502945 24.0578461,125.38319 24.103953,127.776992 C24.6065186,130.260075 28.3965083,130.250155 28.8775573,127.521358 C30.2799764,124.921523 31.5940239,122.269034 32.9726211,119.656227 C36.761074,118.458181 40.7677662,117.815662 44.4701528,116.468052 C46.3981909,115.28832 45.443009,111.94066 43.1914539,112.422931 C40.1015211,113.145574 37.0277257,114.061277 33.9692993,114.873964 C34.7523487,109.093585 37.1007283,95.9404601 37.9790654,90.2035767 C38.0082664,88.8521507 37.7554468,85.1063382 36.5028751,85.0536852 Z" id="crooks-leg-left" stroke="#010101" stroke-width="1.89646296" fill="#F47521" stroke-linecap="round" transform="translate(28.506560, 107.329037) rotate(53.000000) translate(-28.506560, -107.329037) "></path>
                <path d="M77.9940813,104.739125 C75.1522141,105.344382 75.9069582,109.024673 76.2969228,111.23691 C75.1987956,116.122178 72.1640141,136.899977 72.4044923,141.740413 C68.8956231,140.80856 65.451748,138.740123 61.8397007,138.524017 C59.1554442,139.056969 60.2351587,143.465194 62.7146838,143.307583 C66.1544968,144.730142 70.1987549,145.421517 73.2624144,147.299846 C74.9555109,150.634044 75.8443052,154.58731 78.0313568,157.561603 C79.9389338,159.045906 83.0529638,156.414457 81.4817313,154.206282 C80.8139169,152.058227 77.5512129,147.442021 81.66209,149.844365 C85.6405416,151.020759 89.5150026,152.926711 93.556011,153.677393 C96.1484633,153.531156 96.0737201,148.983194 93.4365843,148.958008 C89.990272,147.768616 86.5431472,146.576787 83.0968348,145.387395 C85.5909836,144.351551 88.860187,144.774013 90.931874,142.860749 C92.3300597,140.903614 89.6571772,138.204734 87.785347,139.4055 C84.2837896,140.294294 80.7830447,141.183089 77.2814874,142.071883 C76.9554208,138.033561 79.5946093,123.548547 80.381455,116.920805 C80.978141,111.894813 80.7894193,108.476159 80.4857928,105.969138 C79.9991495,105.055159 78.9413704,104.570952 77.9940813,104.739125 Z" id="crooks-leg-right" stroke="#010101" stroke-width="2.3705787" fill="#F47521" stroke-linecap="round" transform="translate(77.865679, 131.350407) scale(-1, 1) rotate(-19.000000) translate(-77.865679, -131.350407) "></path>
                <g id="tail" transform="translate(138.347656, 63.345717) rotate(31.210240) translate(-138.347656, -63.345717) translate(121.347656, 36.345717)" stroke="#010101" stroke-width="3.36092651" fill="#964D22" stroke-linecap="round" stroke-linejoin="round">
                    <path d="M21.0303976,14.6286323 C22.3911068,8.33876776 21.292703,4.53807204 20.0895592,3.58903659 C17.3699624,0.967804314 14.1530783,0.949588662 11.1028674,0.122598077 C9.30042871,0.128973555 7.19196703,-0.524057557 4.99607022,5.40149393 C3.23825984,11.1457997 2.27556265,18.3418929 1.4986651,24.7091739 C-0.00959085383,37.7023982 0.790987037,49.57536 3.95959964,51.3167763 C7.93971953,53.8696999 13.9581708,42.0486527 18.0776405,27.0772086 C19.1751335,23.1398955 20.174262,18.9375447 21.0303976,14.6286323 Z" id="path3971"></path>
                    <path d="M31.7976693,21.6999483 C34.2668009,16.0348806 33.8296252,12.1321772 32.7913331,10.9235687 C30.5307707,7.73947282 27.3093327,6.91794693 24.4012039,5.36415184 C22.5960329,4.91877916 20.5986867,3.76754997 17.359033,8.87430792 C14.5920755,13.9191326 12.361569,20.5478083 10.4671412,26.4314638 C6.67555331,38.4592586 5.39043908,49.9934092 8.25758265,52.4497898 C11.795973,55.8816186 19.901938,46.1043676 26.65448,32.8451947 C28.4450786,29.358719 30.1846733,25.5971869 31.7976693,21.6999483 Z" id="path3975"></path>
                </g>
                <g id="body" transform="translate(33.614918, 39.384693)">
                    <path d="M90.0464685,39.9878055 C90.0545928,61.6389995 70.4117497,79.1959924 46.1795104,79.1959924 C21.9480836,79.1959924 2.30442809,61.6389995 2.3109275,39.9878055 C2.30442809,18.3346757 21.9472712,0.778973368 46.1795104,0.778973368 C70.4109372,0.778973368 90.0537803,18.3346757 90.0464685,39.9878055 Z" stroke="#010101" stroke-width="3.2497052" fill="url(#radialGradient-2)" stroke-linecap="round" stroke-linejoin="round"></path>
                    <path d="M89.4233375,28.174309 C89.456647,28.7763405 89.4761452,29.3886962 89.4761452,29.9971803 C89.4761452,51.6335333 68.8307681,69.1918167 43.3888261,69.1918167 C23.5030675,69.1918167 6.53310698,58.4565566 0.0743178945,43.438033 C1.19140406,64.2336068 21.3972586,80.8220581 46.123453,80.8220581 C71.5662074,80.8220581 92.2115846,63.2631294 92.2115846,41.6261312 C92.2107722,36.9021522 91.2277363,32.3691714 89.4233375,28.174309 Z" id="path3887" fill-opacity="0.3137" fill="#010101"></path>
                </g>
                <g id="head" transform="translate(62.952236, 43.918738) rotate(-2.000000) translate(-62.952236, -43.918738) translate(29.952236, 1.918738)">
                    <path d="M48.6280035,17.4815314 L40.1564345,34.0123117 C45.5977823,31.5849667 51.1688376,29.5141129 57.3040807,29.96914 C74.4103478,31.2340831 59.8711746,10.4093856 48.6280035,17.4815314 Z" id="path4090" stroke="#010101" stroke-width="2.04219599" fill="#ED2224" stroke-linecap="round" stroke-linejoin="round"></path>
                    <path d="M43.7458849,12.0778967 L39.1564345,33.0123117 C43.99392,28.3850058 49.0362346,24.0961889 55.2227114,22.315443 C72.4715559,17.3496482 53.2624336,0.30514457 43.7458849,12.0778967 Z" id="path4092" stroke="#010101" stroke-width="2.22372452" fill="#ED2224" stroke-linecap="round" stroke-linejoin="round"></path>
                    <path d="M63.1564333,46.0123117 C63.1610287,63.6831315 49.9522227,78.0123117 33.6568176,78.0123117 C17.3614126,78.0123117 4.15107476,63.6831315 4.1564361,46.0123117 C4.15107476,28.3407162 17.3614126,14.0123117 33.6568176,14.0123117 C49.9522227,14.0123117 63.1610287,28.3407162 63.1564333,46.0123117 Z" id="path3984" stroke="#010101" stroke-width="2.26910666" fill="#C7612B" stroke-linecap="round" stroke-linejoin="round"></path>
                    <g id="eye-r" transform="translate(39.142728, 31.792781)" stroke="#010101">
                        <path d="M18.6152142,10.5196036 C18.4653591,15.8972305 14.2705584,20.1538035 9.24869458,20.025683 C4.2256868,19.8964187 0.27911954,15.4327939 0.430118635,10.0540231 C0.582261663,4.67639622 4.77477442,0.420967175 9.7977822,0.549087619 C14.82079,0.677208064 18.7696451,5.14197677 18.6152142,10.5196036 Z" id="path4014" stroke-width="3.05333693" fill="#FFFFFF" stroke-linecap="round" stroke-linejoin="round"></path>
                        <path d="M10.7334295,10.7313252 C10.6830965,12.5238675 9.28521095,13.9423438 7.61163764,13.9011622 C5.9369204,13.8576928 4.62025405,12.3694366 4.67173101,10.5768943 C4.72206405,8.784352 6.11880568,7.36587565 7.79352291,7.40934509 C9.46938409,7.45052666 10.7849065,8.93878289 10.7334295,10.7313252 Z" id="path4016" stroke-width="1.12685892" fill="#010101"></path>
                    </g>
                    <g id="eye-l" transform="translate(14.854436, 20.353456)" stroke="#010101">
                        <path d="M18.1073082,12.192033 C16.4211516,17.0995036 11.3363715,19.9227291 6.75377771,18.4973892 C2.17118396,17.0720492 -0.176165611,11.93808 1.51456668,7.02946546 C3.20072325,2.12199486 8.28435945,-0.701230647 12.8680971,0.72525323 C17.4506909,2.15059317 19.7968965,7.28570635 18.1073082,12.192033 Z" id="path4012" stroke-width="3.05333693" fill="#FFFFFF" stroke-linecap="round" stroke-linejoin="round"></path>
                        <path d="M10.7585961,10.8731728 C10.1957812,12.5101403 8.50047322,13.4504528 6.97332328,12.9757208 C5.44502941,12.4998449 4.66257955,10.7885218 5.22539436,9.15269828 C5.78820917,7.51801868 7.48237326,6.5765622 9.01181107,7.0512942 C10.5378171,7.52717014 11.3225548,9.23849322 10.7585961,10.8731728 Z" id="path4018" stroke-width="1.12685892" fill="#010101"></path>
                    </g>
                    <path d="M62.947195,35.0123117 L62.2557639,36.1528891 C62.346782,37.4738838 62.3827303,38.8165595 62.3827303,40.1785933 C62.3827303,59.5769279 44.5378433,75.6766474 32.2037536,73.5658435 C21.9332491,71.8081307 9.67488027,65.1218534 4.15643447,51.0214354 C6.96422581,68.3035458 25.2397274,81.1116191 33.9782227,81.0117314 C53.3551189,80.7910494 64.1564345,65.9240518 64.1564345,46.5257173 C64.1564345,42.4930442 63.7602384,38.6198815 62.947195,35.0123117 Z" id="path4022" fill-opacity="0.3137" fill="#010101"></path>
                    <path d="M15.8193349,54.0978719 L10.618551,83.0155829 L30.4781888,63.9600625 C32.806418,52.2554122 24.6877189,46.9498868 15.8193349,54.0978719 Z" id="path3454" stroke="#010101" stroke-width="2.19355101" fill="#ED2224" stroke-linecap="round" stroke-linejoin="round"></path>
                    <path d="M19.7995098,45.0348503 L0.0776029133,66.5654029 L27.0588343,67.5517869 C35.228667,59.0438125 31.1289054,46.7181361 19.7995098,45.0348503 Z" id="path4088" stroke="#010101" stroke-width="2.5177091" fill="#FEDA00" stroke-linecap="round" stroke-linejoin="round"></path>
                    <path d="M37.1564345,6.14483665 L38.6340653,31.0123117 C41.5916564,24.8955281 44.8155783,19.1350252 49.6693199,16.0796721 C63.2055987,7.55780453 42.2858246,-8.96708271 37.1564345,6.14483665 Z" id="path4094" stroke="#010101" stroke-width="2.31577462" fill="#ED2224" stroke-linecap="round" stroke-linejoin="round"></path>
                </g>
            </g>
        </g>
    </g>
</svg>