
<svg width="1568px" height="160px" viewBox="0 0 1568 160" version="1.1" xmlns="http://www.w3.org/2000/svg" xmlns:xlink="http://www.w3.org/1999/xlink">
    <!-- Generator: Sketch 46.2 (44496) - http://www.bohemiancoding.com/sketch -->
    <desc>Created with Sketch.</desc>
    <defs>
        <radialGradient cx="49.9989268%" cy="49.9994961%" fx="49.9989268%" fy="49.9994961%" r="41.9991276%" gradientTransform="translate(0.499989,0.499995),scale(0.902637,1.000000),translate(-0.499989,-0.499995)" id="radialGradient-1">
            <stop stop-color="#F68B50" offset="0%"></stop>
            <stop stop-color="#964D22" offset="100%"></stop>
        </radialGradient>
        <radialGradient cx="49.9989268%" cy="49.9994961%" fx="49.9989268%" fy="49.9994961%" r="41.9991276%" gradientTransform="translate(0.499989,0.499995),scale(1.000000,0.931009),translate(-0.499989,-0.499995)" id="radialGradient-2">
            <stop stop-color="#F68B50" offset="0%"></stop>
            <stop stop-color="#964D22" offset="100%"></stop>
        </radialGradient>
    </defs>
    <g id="Page-1" stroke="none" stroke-width="1" fill="none" fill-rule="evenodd">
        <g id="Artboard" transform="translate(-18.000000, 0.000000)" fill-rule="nonzero">
            <g id="crooks-1" transform="translate(304.569422, 79.640877) rotate(-11.000000) translate(-304.569422, -79.640877) translate(235.569422, -3.359123)">
                <g id="tail" transform="translate(108.609173, 66.772108) rotate(31.210240) translate(-108.609173, -66.772108) translate(91.609173, 39.772108)" stroke="#010101" stroke-width="3.36092651" fill="#964D22" stroke-linecap="round" stroke-linejoin="round">
                    <path d="M21.0303976,14.6286323 C22.3911068,8.33876776 21.292703,4.53807204 20.0895592,3.58903659 C17.3699624,0.967804314 14.1530783,0.949588662 11.1028674,0.122598077 C9.30042871,0.128973555 7.19196703,-0.524057557 4.99607022,5.40149393 C3.23825984,11.1457997 2.27556265,18.3418929 1.4986651,24.7091739 C-0.00959085383,37.7023982 0.790987037,49.57536 3.95959964,51.3167763 C7.93971953,53.8696999 13.9581708,42.0486527 18.0776405,27.0772086 C19.1751335,23.1398955 20.174262,18.9375447 21.0303976,14.6286323 Z" id="path3971"></path>
                    <path d="M31.7976693,21.6999483 C34.2668009,16.0348806 33.8296252,12.1321772 32.7913331,10.9235687 C30.5307707,7.73947282 27.3093327,6.91794693 24.4012039,5.36415184 C22.5960329,4.91877916 20.5986867,3.76754997 17.359033,8.87430792 C14.5920755,13.9191326 12.361569,20.5478083 10.4671412,26.4314638 C6.67555331,38.4592586 5.39043908,49.9934092 8.25758265,52.4497898 C11.795973,55.8816186 19.901938,46.1043676 26.65448,32.8451947 C28.4450786,29.358719 30.1846733,25.5971869 31.7976693,21.6999483 Z" id="path3975"></path>
                </g>
                <path d="M35.5175643,106.943028 C32.9502972,106.875596 32.5201609,115.02274 32.3365526,117.018871 C31.5225014,122.264708 29.223335,135.365687 28.4978383,140.62371 C24.5925051,139.526122 20.7822257,137.826526 16.8565818,136.936107 C14.5842255,136.924733 13.5565062,140.687079 15.9076679,141.428012 C17.3684104,142.221752 22.840914,143.060176 21.6352733,143.773487 C17.9744804,144.97669 14.0350253,145.50233 10.4920342,146.941137 C8.46340574,148.544866 10.4083543,152.1626 12.7400178,151.005705 C17.1726157,149.865059 21.5840905,148.609048 26.0118138,147.42778 C25.2538201,149.800877 22.9115951,151.802696 22.9603406,154.351277 C23.4916674,156.994912 27.4985539,156.984351 28.0071328,154.079114 C29.4898108,151.311178 30.8790598,148.487184 32.3365526,145.705436 C36.3418142,144.429927 40.577805,143.745864 44.4920749,142.311119 C46.5304525,141.055108 45.5206066,137.490994 43.1401975,138.004447 C39.8734313,138.773815 36.6237261,139.748727 33.3902695,140.613961 C34.2181319,134.459831 36.7009066,120.456247 37.6295099,114.348426 C37.6603821,112.909619 36.8418191,106.999085 35.5175643,106.943028 Z" id="crooks-leg-left" stroke="#010101" stroke-width="2.3705787" fill="#F47521" stroke-linecap="round" transform="translate(27.614904, 131.619992) rotate(26.000000) translate(-27.614904, -131.619992) "></path>
                <path d="M78.3508409,122.914063 C76.335009,122.861115 75.1810559,128.28216 73.5179981,130.348393 C72.097225,134.020979 66.1611468,143.815734 63.8156292,148.371277 C61.6001622,146.683332 57.5545535,144.709618 54.4721168,144.010456 C52.6878504,144.001525 51.8808797,146.955739 53.7270245,147.537524 C54.8740074,148.160773 61.0258965,149.797865 60.079221,150.35796 C57.2047467,151.302722 52.2566155,150.7367 49.4746398,151.866459 C47.8817498,153.125716 49.3596568,154.731498 51.2397686,155.05798 C54.7202683,154.162338 58.3869173,154.641407 61.8635894,153.713869 C61.2684087,155.577238 59.429281,157.149076 59.4675563,159.150236 C59.884757,161.226033 63.0309858,161.21774 63.4303247,158.936532 C64.5945314,156.763134 65.6853772,154.545719 66.8298083,152.361476 C69.9747613,151.359939 73.300884,150.822809 76.3743898,149.696239 C77.9749349,148.710013 77.1819984,145.911451 75.3128884,146.314618 C72.7478061,146.918729 70.1961201,147.684235 67.6571925,148.363621 C70.4928014,143.220808 75.8494243,132.998572 78.2705226,129.444143 C78.2947636,128.314384 79.3906529,122.958079 78.3508409,122.914063 Z" id="crooks-leg-left" stroke="#010101" stroke-width="2.3705787" fill="#F47521" stroke-linecap="round" transform="translate(63.798073, 141.796000) rotate(-25.000000) translate(-63.798073, -141.796000) "></path>
                <g id="body" transform="translate(17.609173, 58.673500)">
                    <path d="M87.9681121,39.451572 C87.9760489,60.812425 68.7865809,78.1339799 45.1136443,78.1339799 C21.4415014,78.1339799 2.25123974,60.812425 2.25758914,39.451572 C2.25123974,18.088809 21.4407077,0.768527392 45.1136443,0.768527392 C68.7857872,0.768527392 87.9752552,18.088809 87.9681121,39.451572 Z" stroke="#010101" stroke-width="3.2497052" fill="url(#radialGradient-1)" stroke-linecap="round" stroke-linejoin="round"></path>
                    <path d="M87.3593636,27.7964936 C87.3919043,28.3904519 87.4109525,28.9945959 87.4109525,29.5949203 C87.4109525,50.9411314 67.2420899,68.2639594 42.3873716,68.2639594 C22.9605948,68.2639594 6.38231679,57.6726585 0.0726025683,42.8555322 C1.16390534,63.3722388 20.9033899,79.7382402 45.0588808,79.7382402 C69.9143927,79.7382402 90.0832553,62.4147755 90.0832553,41.0679279 C90.0824617,36.4072971 89.1221152,31.9351032 87.3593636,27.7964936 Z" id="path3887" fill-opacity="0.3137" fill="#010101"></path>
                </g>
                <path d="M52.5046635,20.2254041 L43.7245263,37.2438272 C49.3640696,34.7448777 55.1380448,32.6129357 61.4967578,33.0813856 C79.226103,34.3836434 64.1573554,12.9446366 52.5046635,20.2254041 Z" id="path4090" stroke="#010101" stroke-width="2.19355101" fill="#ED2224" stroke-linecap="round" stroke-linejoin="round" transform="translate(56.679826, 27.978335) rotate(5.000000) translate(-56.679826, -27.978335) "></path>
                <path d="M47.6428298,13.5953476 L42.9121453,35.8854818 C47.8984979,30.9585102 53.0959829,26.3919481 59.47284,24.4958805 C77.2524941,19.2084994 57.4522373,1.06018834 47.6428298,13.5953476 Z" id="path4092" stroke="#010101" stroke-width="2.38853332" fill="#ED2224" stroke-linecap="round" stroke-linejoin="round" transform="translate(54.766042, 22.575978) rotate(5.000000) translate(-54.766042, -22.575978) "></path>
                <path d="M69.5751361,50.8077547 C69.5800845,69.5960607 55.3566911,84.831405 37.8096125,84.831405 C20.2625338,84.831405 6.03749091,69.5960607 6.04326406,50.8077547 C6.03749091,32.0186239 20.2625338,16.7841044 37.8096125,16.7841044 C55.3566911,16.7841044 69.5800845,32.0186239 69.5751361,50.8077547 Z" id="path3984" stroke="#010101" stroke-width="2.4372789" fill="#C7612B" stroke-linecap="round" stroke-linejoin="round" transform="translate(37.809200, 50.807755) rotate(-2.000000) translate(-37.809200, -50.807755) "></path>
                <g id="eye-r" transform="translate(50.827240, 45.267791) rotate(5.000000) translate(-50.827240, -45.267791) translate(41.327240, 34.767791)" stroke="#010101">
                    <path d="M18.6152142,10.5196036 C18.4653591,15.8972305 14.2705584,20.1538035 9.24869458,20.025683 C4.2256868,19.8964187 0.27911954,15.4327939 0.430118635,10.0540231 C0.582261663,4.67639622 4.77477442,0.420967175 9.7977822,0.549087619 C14.82079,0.677208064 18.7696451,5.14197677 18.6152142,10.5196036 Z" id="path4014" stroke-width="3.05333693" fill="#FFFFFF" stroke-linecap="round" stroke-linejoin="round"></path>
                    <path d="M9.85421262,10.3826592 C9.80387959,12.1752015 8.40599402,13.5936779 6.73242072,13.5524963 C5.05770348,13.5090269 3.74103713,12.0207706 3.79251409,10.2282283 C3.84284712,8.43568604 5.23958875,7.01720969 6.91430599,7.06067913 C8.59016716,7.1018607 9.90568958,8.59011694 9.85421262,10.3826592 Z" id="path4016" stroke-width="1.12685892" fill="#010101"></path>
                </g>
                <g id="eye-l" transform="translate(27.101244, 33.874502) rotate(5.000000) translate(-27.101244, -33.874502) translate(17.601244, 24.374502)" stroke="#010101">
                    <path d="M18.1073082,12.192033 C16.4211516,17.0995036 11.3363715,19.9227291 6.75377771,18.4973892 C2.17118396,17.0720492 -0.176165611,11.93808 1.51456668,7.02946546 C3.20072325,2.12199486 8.28435945,-0.701230647 12.8680971,0.72525323 C17.4506909,2.15059317 19.7968965,7.28570635 18.1073082,12.192033 Z" id="path4012" stroke-width="3.05333693" fill="#FFFFFF" stroke-linecap="round" stroke-linejoin="round"></path>
                    <path d="M10.8537492,10.7494579 C10.2909344,12.3864254 8.59562637,13.3267379 7.06847642,12.8520059 C5.54018255,12.37613 4.75773269,10.6648069 5.3205475,9.02898337 C5.88336231,7.39430378 7.57752641,6.45284729 9.10696421,6.9275793 C10.6329702,7.40345524 11.4177079,9.11477831 10.8537492,10.7494579 Z" id="path4018" stroke-width="1.12685892" fill="#010101"></path>
                </g>
                <path d="M69.3323454,39.2666695 L68.5867843,40.4815053 C68.6849278,41.8885045 68.7236904,43.3185964 68.7236904,44.7693067 C68.7236904,65.4305877 49.4817797,82.5784942 36.1820904,80.3302644 C25.1075382,78.4581142 11.8894977,71.3365206 5.93902899,56.3180819 C8.96663407,74.72536 28.672871,88.3673147 38.0954774,88.2609238 C58.9893339,88.0258741 70.6362527,72.1909469 70.6362527,51.5296659 C70.6362527,47.2344419 70.2090396,43.1091135 69.3323454,39.2666695 Z" id="path4022" fill-opacity="0.3137" fill="#010101" transform="translate(38.287641, 63.764106) rotate(-2.000000) translate(-38.287641, -63.764106) "></path>
                <path d="M18.8809405,58.0313026 L13.6801567,86.9490136 L33.5397945,67.8934932 C35.8680236,56.1888429 27.7493245,50.8833175 18.8809405,58.0313026 Z" id="path3454" stroke="#010101" stroke-width="2.19355101" fill="#ED2224" stroke-linecap="round" stroke-linejoin="round" transform="translate(23.811844, 70.871333) rotate(5.000000) translate(-23.811844, -70.871333) "></path>
                <path d="M22.4926938,49.1505871 L2.7707869,70.6811396 L29.7520183,71.6675236 C37.921851,63.1595492 33.8220894,50.8338728 22.4926938,49.1505871 Z" id="path4088" stroke="#010101" stroke-width="2.5177091" fill="#FEDA00" stroke-linecap="round" stroke-linejoin="round" transform="translate(18.405480, 60.409055) rotate(5.000000) translate(-18.405480, -60.409055) "></path>
                <path d="M40.645624,8.14246522 L42.2150962,35.1401913 C45.3565148,28.4994187 48.7808178,22.2454472 53.9362412,18.9283599 C68.3138602,9.67647379 46.0938286,-8.26400384 40.645624,8.14246522 Z" id="path4094" stroke="#010101" stroke-width="2.4874056" fill="#ED2224" stroke-linecap="round" stroke-linejoin="round" transform="translate(49.673937, 18.312397) rotate(5.000000) translate(-49.673937, -18.312397) "></path>
            </g>
            <g id="crooks-2" transform="translate(825.000000, 4.000000)">
                <path d="M76.142851,104.891316 C73.5755839,104.823884 73.1454476,112.971028 72.9618393,114.967159 C72.1477882,120.212996 69.8486217,133.313975 69.123125,138.571998 C65.2177918,137.47441 61.015562,132.460814 57.0899181,131.570395 C54.8175617,131.559021 53.7898425,135.321367 56.1410042,136.0623 C57.1148325,136.59146 58.9173499,137.976356 61.5485563,140.216989 C56.9158533,140.987256 53.3081247,141.440068 50.7253705,141.575425 C48.696742,143.179154 49.8400712,146.708525 51.845834,146.151246 C56.7100912,146.348482 63.2321343,145.554515 66.6371006,145.376068 C65.8791068,147.749165 63.5368818,149.750984 63.5856274,152.299565 C64.1169542,154.9432 68.1238407,154.932639 68.6324196,152.027402 C70.1150975,149.259466 71.5043465,146.435472 72.9618393,143.653724 C76.967101,142.378215 81.2030917,141.694152 85.1173616,140.259407 C87.1557392,139.003396 86.1458933,135.439282 83.7654842,135.952735 C80.4987181,136.722103 77.2490129,137.697015 74.0155562,138.562249 C74.8434186,132.40812 77.3261934,118.404535 78.2547966,112.296714 C78.2856688,110.857907 77.4671059,104.947373 76.142851,104.891316 Z" id="crooks-leg-left" stroke="#010101" stroke-width="2.3705787" fill="#F47521" stroke-linecap="round" transform="translate(67.936205, 129.568281) rotate(-4.000000) translate(-67.936205, -129.568281) "></path>
                <path d="M69.9767444,98.0998327 C67.799532,98.0424498 67.434748,104.97552 67.279036,106.674191 C66.5886668,111.138303 64.6388215,122.286996 64.0235523,126.761477 C60.7115713,125.82745 57.1478024,121.560972 53.8185966,120.803241 C51.891488,120.793562 51.0199141,123.99525 53.0138548,124.62577 C53.8397257,125.076076 55.3683797,126.254597 57.5998168,128.161335 C53.6709782,128.816818 50.6113856,129.202153 48.4210391,129.317339 C46.7006279,130.682083 47.6702467,133.685513 49.3712663,133.211279 C53.4964783,133.379123 59.0276023,132.703472 61.915239,132.551617 C61.2724102,134.571079 59.2860484,136.27459 59.3273879,138.443386 C59.7779882,140.693071 63.176093,140.684084 63.6074016,138.21178 C64.8648106,135.856317 66.0429857,133.45315 67.279036,131.085934 C70.6757629,130.000499 74.2681633,129.418374 77.5877232,128.197432 C79.3164023,127.12859 78.4599862,124.095594 76.4412418,124.532533 C73.6708079,125.187251 70.9148429,126.016883 68.1726577,126.753181 C68.8747398,121.51613 70.980297,109.599335 71.7678141,104.401691 C71.7939957,103.177293 71.0998002,98.1475365 69.9767444,98.0998327 Z" id="crooks-leg-left" stroke="#010101" stroke-width="2.0149919" fill="#F47521" stroke-linecap="round" transform="translate(63.016966, 119.099479) rotate(37.000000) translate(-63.016966, -119.099479) "></path>
                <g id="tail" transform="translate(127.265392, 50.299218) rotate(31.210240) translate(-127.265392, -50.299218) translate(112.265392, 26.299218)" stroke="#010101" stroke-width="3.36092651" fill="#964D22" stroke-linecap="round" stroke-linejoin="round">
                    <path d="M18.7596137,13.0482699 C19.9733786,7.43765367 18.9935925,4.04739857 17.9203773,3.20085032 C15.4944722,0.862687327 12.6249824,0.8464388 9.90416662,0.108755687 C8.2963749,0.114442671 6.41560794,-0.468067012 4.45684804,4.81757873 C2.88886521,9.94155164 2.03013057,16.3605321 1.33713091,22.0402046 C-0.00824710641,33.6302788 0.705875643,44.2210685 3.53230687,45.7744276 C7.08260996,48.0516586 12.4511232,37.5071772 16.1257275,24.1525131 C17.1047012,20.6403941 17.9959329,16.8918589 18.7596137,13.0482699 Z" id="path3971"></path>
                    <path d="M28.3641178,19.355948 C30.5666056,14.3026562 30.176641,10.8214094 29.250475,9.74331961 C27.2340328,6.90307714 24.3604809,6.17026858 21.7664036,4.78426925 C20.1561746,4.38699277 18.3745236,3.36008588 15.4847231,7.91536035 C13.0165719,12.4153898 11.0269398,18.3282287 9.33709304,23.5765028 C5.9549622,34.305405 4.80862864,44.5939722 7.36614675,46.785086 C10.5224231,49.8463084 17.7530175,41.1249117 23.7763463,29.2976091 C25.3735765,26.1876411 26.9253108,22.8323203 28.3641178,19.355948 Z" id="path3975"></path>
                </g>
                <g id="body" transform="translate(32.858268, 39.000000)">
                    <path d="M87.9681121,39.451572 C87.9760489,60.812425 68.7865809,78.1339799 45.1136443,78.1339799 C21.4415014,78.1339799 2.25123974,60.812425 2.25758914,39.451572 C2.25123974,18.088809 21.4407077,0.768527392 45.1136443,0.768527392 C68.7857872,0.768527392 87.9752552,18.088809 87.9681121,39.451572 Z" stroke="#010101" stroke-width="3.2497052" fill="url(#radialGradient-1)" stroke-linecap="round" stroke-linejoin="round"></path>
                    <path d="M87.3593636,27.7964936 C87.3919043,28.3904519 87.4109525,28.9945959 87.4109525,29.5949203 C87.4109525,50.9411314 67.2420899,68.2639594 42.3873716,68.2639594 C22.9605948,68.2639594 6.38231679,57.6726585 0.0726025683,42.8555322 C1.16390534,63.3722388 20.9033899,79.7382402 45.0588808,79.7382402 C69.9143927,79.7382402 90.0832553,62.4147755 90.0832553,41.0679279 C90.0824617,36.4072971 89.1221152,31.9351032 87.3593636,27.7964936 Z" id="path3887" fill-opacity="0.3137" fill="#010101"></path>
                </g>
                <g id="head">
                    <path d="M58.8104318,18.4692197 L50,35 C55.6590018,32.572655 61.4528993,30.5018012 67.8335521,30.9568283 C85.6240699,32.2217715 70.5033297,11.3970739 58.8104318,18.4692197 Z" id="path4090" stroke="#010101" stroke-width="2.19355101" fill="#ED2224" stroke-linecap="round" stroke-linejoin="round" transform="translate(63.000000, 26.000000) rotate(11.000000) translate(-63.000000, -26.000000) "></path>
                    <path d="M53.5894504,12.2282085 L49,34 C53.8374856,29.1876019 58.8798002,24.7272323 65.0662769,22.8752566 C82.3151215,17.71083 63.1059991,-0.0154537734 53.5894504,12.2282085 Z" id="path4092" stroke="#010101" stroke-width="2.38853332" fill="#ED2224" stroke-linecap="round" stroke-linejoin="round" transform="translate(60.500000, 21.000000) rotate(11.000000) translate(-60.500000, -21.000000) "></path>
                    <path d="M66.9999988,46.5 C67.0045164,64.9991395 54.0195885,80 38.0003767,80 C21.9811649,80 8.99473114,64.9991395 9.0000016,46.5 C8.99473114,28.0000485 21.9811649,13 38.0003767,13 C54.0195885,13 67.0045164,28.0000485 66.9999988,46.5 Z" id="path3984" stroke="#010101" stroke-width="2.4372789" fill="#C7612B" stroke-linecap="round" stroke-linejoin="round"></path>
                    <g id="eye-r" transform="translate(41.000000, 32.000000)" stroke="#010101">
                        <path d="M18.9955274,11.0129534 C18.8424866,16.660991 14.5585123,21.1316032 9.42989305,20.9970403 C4.30010551,20.8612759 0.269641597,16.1732005 0.423850651,10.5239615 C0.579227955,4.8759239 4.8608657,0.406513188 9.99065324,0.541076091 C15.1204408,0.675638995 19.1532412,5.36491588 18.9955274,11.0129534 Z" id="path4014" stroke-width="3.05333693" fill="#FFFFFF" stroke-linecap="round" stroke-linejoin="round"></path>
                        <path d="M11.6908427,10.802796 C11.6385562,12.5418783 10.1864155,13.9180505 8.44788701,13.8780971 C6.70817019,13.8359241 5.34040103,12.392053 5.39387594,10.6529708 C5.44616251,8.91388858 6.89711485,7.5377163 8.63683166,7.57988932 C10.3777368,7.61984271 11.7443176,9.06371379 11.6908427,10.802796 Z" id="path4016" stroke-width="1.12685892" fill="#010101"></path>
                    </g>
                    <g id="eye-l" transform="translate(19.000000, 20.000000)" stroke="#010101">
                        <path d="M17.8370498,12.0100624 C16.1760598,16.8442871 11.1671719,19.6253749 6.65297506,18.2213087 C2.13877823,16.8172425 -0.173536274,11.7598997 1.49196121,6.92454806 C3.15295126,2.0903233 8.1607123,-0.690764518 12.676036,0.714428555 C17.1902328,2.11849477 19.5014205,7.17696446 17.8370498,12.0100624 Z" id="path4012" stroke-width="3.05333693" fill="#FFFFFF" stroke-linecap="round" stroke-linejoin="round"></path>
                        <path d="M10.8140055,10.8358718 C10.2415117,12.4276068 8.51704864,13.3419367 6.96363556,12.8803224 C5.40905888,12.4175958 4.61315285,10.7535598 5.18564666,9.16293717 C5.75814047,7.57342683 7.48143992,6.65798456 9.03718021,7.11959882 C10.5894297,7.58232542 11.3876629,9.24636143 10.8140055,10.8358718 Z" id="path4018" stroke-width="1.12685892" fill="#010101"></path>
                    </g>
                    <path d="M65.8109145,35 L65.1310073,36.1901678 C65.2205084,37.568597 65.2558575,38.96965 65.2558575,40.3909026 C65.2558575,60.632643 47.7083854,77.4323503 35.5798639,75.2297723 C25.4805344,73.3956373 13.4264717,66.4186523 8,51.7051726 C10.7609948,69.7386791 28.7319047,83.1036251 37.3247584,82.9993946 C56.3787064,82.7691177 67,67.2557289 67,47.0139884 C67,42.8059817 66.6104072,38.7644208 65.8109145,35 Z" id="path4022" fill-opacity="0.3137" fill="#010101"></path>
                    <path d="M16.425521,49.0321158 L11.2923347,77.8101083 L30.8938451,58.8466563 C33.1918128,47.1985581 25.1786373,41.9186669 16.425521,49.0321158 Z" id="path3454" stroke="#010101" stroke-width="2.19355101" fill="#ED2224" stroke-linecap="round" stroke-linejoin="round" transform="translate(21.292335, 61.810108) rotate(-4.000000) translate(-21.292335, -61.810108) "></path>
                    <path d="M19.5520028,41 L0,62.0362611 L26.7487881,63 C34.8482378,54.6873489 30.7837956,42.6446414 19.5520028,41 Z" id="path4088" stroke="#010101" stroke-width="2.5177091" fill="#FEDA00" stroke-linecap="round" stroke-linejoin="round"></path>
                    <path d="M45,8.52817177 L46.5645503,35 C49.6961174,28.4885853 53.1096817,22.356437 58.2489376,19.1039643 C72.581468,10.0322989 50.4311189,-7.55871013 45,8.52817177 Z" id="path4094" stroke="#010101" stroke-width="2.4874056" fill="#ED2224" stroke-linecap="round" stroke-linejoin="round" transform="translate(54.000000, 18.500000) rotate(11.000000) translate(-54.000000, -18.500000) "></path>
                </g>
            </g>
            <g id="crooks-4" transform="translate(433.000000, 0.000000)">
                <path d="M39.0663247,103.558615 C36.2095031,103.483579 35.730853,112.549615 35.5265361,114.770884 C34.6206705,120.608383 32.0621879,135.186982 31.2548645,141.038042 C26.9090603,139.816661 22.6690308,137.925372 18.3006251,136.934525 C15.7719764,136.921869 14.6283437,141.108559 17.244686,141.933059 C18.8701813,142.816323 24.9599124,143.749311 23.6182911,144.543073 C19.5446082,145.881982 15.1608336,146.466907 11.218239,148.067993 C8.96080747,149.852603 11.125121,153.87837 13.719766,152.590993 C18.6523035,151.321696 23.5613355,149.924023 28.4884487,148.609524 C27.6449631,151.250275 25.0385654,153.477873 25.0928089,156.313901 C25.6840624,159.255704 30.1428739,159.243951 30.7088138,156.011042 C32.3587187,152.930918 33.904657,149.788414 35.5265361,146.692922 C39.9835394,145.273551 44.697295,144.512335 49.0530438,142.91577 C51.321324,141.518097 50.1975806,137.551997 47.5486922,138.123361 C43.9134771,138.979503 40.2972473,140.064372 36.6990986,141.027194 C37.6203331,134.178958 40.3831328,118.595951 41.4164704,111.799247 C41.4508246,110.198161 40.5399384,103.620995 39.0663247,103.558615 Z" id="crooks-leg-left" stroke="#010101" stroke-width="2.3705787" fill="#F47521" stroke-linecap="round" transform="translate(30.272346, 131.018822) rotate(12.000000) translate(-30.272346, -131.018822) "></path>
                <path d="M65.2049953,115.562899 C62.3780527,116.18667 67.5820549,114.647024 67.9699716,116.92693 C68.3578882,119.206835 71.2648773,129.788908 71.5040926,134.777406 C68.0136509,133.817049 64.587862,131.685341 60.994784,131.462625 C58.3246244,132.011879 59.3986686,136.554945 61.865172,136.392513 C65.2869201,137.858586 69.309939,138.571108 72.3575092,140.506893 C74.041714,143.943079 74.9258407,148.017269 77.1014066,151.082541 C78.9989655,152.612246 82.0966416,149.900306 80.5336608,147.624586 C79.8693535,145.410826 76.6237842,140.653417 80.7130722,143.129245 C84.6706302,144.341623 88.5247437,146.305875 92.54453,147.079519 C95.1233676,146.928809 95.0490169,142.241732 92.4257306,142.215776 C88.9975172,140.990002 85.5684956,139.761717 82.1402822,138.535943 C84.6213325,137.468414 87.5808874,135.997124 89.6416946,134.025336 C91.0325374,132.008336 88.3736921,129.226901 86.5116921,130.464397 C83.0285239,131.380378 79.8386434,134.203033 76.3554752,135.119015 C76.002398,130.588615 75.0322486,120.890141 72.5939792,117.069008 C71.3209081,115.073916 68.0107365,119.166083 67.6836211,116.830536 C67.1995334,115.8886 66.1473095,115.389582 65.2049953,115.562899 Z" id="crooks-leg-right" stroke="#010101" stroke-width="2.13352083" fill="#F47521" stroke-linecap="round" transform="translate(76.936599, 133.528882) scale(-1, 1) rotate(9.000000) translate(-76.936599, -133.528882) "></path>
                <g id="tail" transform="translate(113.265392, 54.299218) rotate(31.210240) translate(-113.265392, -54.299218) translate(98.265392, 30.299218)" stroke="#010101" stroke-width="3.36092651" fill="#964D22" stroke-linecap="round" stroke-linejoin="round">
                    <path d="M18.7596137,13.0482699 C19.9733786,7.43765367 18.9935925,4.04739857 17.9203773,3.20085032 C15.4944722,0.862687327 12.6249824,0.8464388 9.90416662,0.108755687 C8.2963749,0.114442671 6.41560794,-0.468067012 4.45684804,4.81757873 C2.88886521,9.94155164 2.03013057,16.3605321 1.33713091,22.0402046 C-0.00824710641,33.6302788 0.705875643,44.2210685 3.53230687,45.7744276 C7.08260996,48.0516586 12.4511232,37.5071772 16.1257275,24.1525131 C17.1047012,20.6403941 17.9959329,16.8918589 18.7596137,13.0482699 Z" id="path3971"></path>
                    <path d="M28.3641178,19.355948 C30.5666056,14.3026562 30.176641,10.8214094 29.250475,9.74331961 C27.2340328,6.90307714 24.3604809,6.17026858 21.7664036,4.78426925 C20.1561746,4.38699277 18.3745236,3.36008588 15.4847231,7.91536035 C13.0165719,12.4153898 11.0269398,18.3282287 9.33709304,23.5765028 C5.9549622,34.305405 4.80862864,44.5939722 7.36614675,46.785086 C10.5224231,49.8463084 17.7530175,41.1249117 23.7763463,29.2976091 C25.3735765,26.1876411 26.9253108,22.8323203 28.3641178,19.355948 Z" id="path3975"></path>
                </g>
                <g id="body" transform="translate(18.858268, 43.000000)">
                    <path d="M87.9681121,39.451572 C87.9760489,60.812425 68.7865809,78.1339799 45.1136443,78.1339799 C21.4415014,78.1339799 2.25123974,60.812425 2.25758914,39.451572 C2.25123974,18.088809 21.4407077,0.768527392 45.1136443,0.768527392 C68.7857872,0.768527392 87.9752552,18.088809 87.9681121,39.451572 Z" stroke="#010101" stroke-width="3.2497052" fill="url(#radialGradient-1)" stroke-linecap="round" stroke-linejoin="round"></path>
                    <path d="M87.3593636,27.7964936 C87.3919043,28.3904519 87.4109525,28.9945959 87.4109525,29.5949203 C87.4109525,50.9411314 67.2420899,68.2639594 42.3873716,68.2639594 C22.9605948,68.2639594 6.38231679,57.6726585 0.0726025683,42.8555322 C1.16390534,63.3722388 20.9033899,79.7382402 45.0588808,79.7382402 C69.9143927,79.7382402 90.0832553,62.4147755 90.0832553,41.0679279 C90.0824617,36.4072971 89.1221152,31.9351032 87.3593636,27.7964936 Z" id="path3887" fill-opacity="0.3137" fill="#010101"></path>
                </g>
                <g id="head">
                    <path d="M58.8104318,22.4692197 L50,39 C55.6590018,36.572655 61.4528993,34.5018012 67.8335521,34.9568283 C85.6240699,36.2217715 70.5033297,15.3970739 58.8104318,22.4692197 Z" id="path4090" stroke="#010101" stroke-width="2.19355101" fill="#ED2224" stroke-linecap="round" stroke-linejoin="round" transform="translate(63.000000, 30.000000) rotate(11.000000) translate(-63.000000, -30.000000) "></path>
                    <path d="M53.5894504,16.2282085 L49,38 C53.8374856,33.1876019 58.8798002,28.7272323 65.0662769,26.8752566 C82.3151215,21.71083 63.1059991,3.98454623 53.5894504,16.2282085 Z" id="path4092" stroke="#010101" stroke-width="2.38853332" fill="#ED2224" stroke-linecap="round" stroke-linejoin="round" transform="translate(60.500000, 25.000000) rotate(11.000000) translate(-60.500000, -25.000000) "></path>
                    <path d="M66.9999988,50.5 C67.0045164,68.9991395 54.0195885,84 38.0003767,84 C21.9811649,84 8.99473114,68.9991395 9.0000016,50.5 C8.99473114,32.0000485 21.9811649,17 38.0003767,17 C54.0195885,17 67.0045164,32.0000485 66.9999988,50.5 Z" id="path3984" stroke="#010101" stroke-width="2.4372789" fill="#C7612B" stroke-linecap="round" stroke-linejoin="round"></path>
                    <g id="eye-r" transform="translate(41.000000, 36.000000)" stroke="#010101">
                        <path d="M18.9955274,11.0129534 C18.8424866,16.660991 14.5585123,21.1316032 9.42989305,20.9970403 C4.30010551,20.8612759 0.269641597,16.1732005 0.423850651,10.5239615 C0.579227955,4.8759239 4.8608657,0.406513188 9.99065324,0.541076091 C15.1204408,0.675638995 19.1532412,5.36491588 18.9955274,11.0129534 Z" id="path4014" stroke-width="3.05333693" fill="#FFFFFF" stroke-linecap="round" stroke-linejoin="round"></path>
                        <path d="M10.5911073,10.2399013 C10.5479501,11.6753341 9.34935789,12.8112223 7.9143821,12.7782449 C6.47842546,12.7434354 5.34947321,11.5516689 5.39361123,10.116236 C5.43676839,8.68080318 6.63437977,7.54491502 8.0703364,7.5797245 C9.50727389,7.6127019 10.6352453,8.80446842 10.5911073,10.2399013 Z" id="path4016" stroke-width="1.12685892" fill="#010101"></path>
                    </g>
                    <g id="eye-l" transform="translate(19.000000, 24.000000)" stroke="#010101">
                        <path d="M17.8370498,12.0100624 C16.1760598,16.8442871 11.1671719,19.6253749 6.65297506,18.2213087 C2.13877823,16.8172425 -0.173536274,11.7598997 1.49196121,6.92454806 C3.15295126,2.0903233 8.1607123,-0.690764518 12.676036,0.714428555 C17.1902328,2.11849477 19.5014205,7.17696446 17.8370498,12.0100624 Z" id="path4012" stroke-width="3.05333693" fill="#FFFFFF" stroke-linecap="round" stroke-linejoin="round"></path>
                        <path d="M10.8450046,10.1965598 C10.3679264,11.5230056 8.93087386,12.2849473 7.63636297,11.9002687 C6.3408824,11.5146632 5.67762738,10.1279665 6.15470555,8.80244764 C6.63178372,7.47785569 8.0678666,6.71498713 9.36431684,7.09966569 C10.6578581,7.48527118 11.3230524,8.87196786 10.8450046,10.1965598 Z" id="path4018" stroke-width="1.12685892" fill="#010101"></path>
                    </g>
                    <path d="M65.8109145,39 L65.1310073,40.1901678 C65.2205084,41.568597 65.2558575,42.96965 65.2558575,44.3909026 C65.2558575,64.632643 47.7083854,81.4323503 35.5798639,79.2297723 C25.4805344,77.3956373 13.4264717,70.4186523 8,55.7051726 C10.7609948,73.7386791 28.7319047,87.1036251 37.3247584,86.9993946 C56.3787064,86.7691177 67,71.2557289 67,51.0139884 C67,46.8059817 66.6104072,42.7644208 65.8109145,39 Z" id="path4022" fill-opacity="0.3137" fill="#010101"></path>
                    <path d="M16.425521,53.0321158 L11.2923347,81.8101083 L30.8938451,62.8466563 C33.1918128,51.1985581 25.1786373,45.9186669 16.425521,53.0321158 Z" id="path3454" stroke="#010101" stroke-width="2.19355101" fill="#ED2224" stroke-linecap="round" stroke-linejoin="round" transform="translate(21.292335, 65.810108) rotate(-4.000000) translate(-21.292335, -65.810108) "></path>
                    <path d="M19.5520028,45 L0,66.0362611 L26.7487881,67 C34.8482378,58.6873489 30.7837956,46.6446414 19.5520028,45 Z" id="path4088" stroke="#010101" stroke-width="2.5177091" fill="#FEDA00" stroke-linecap="round" stroke-linejoin="round"></path>
                    <path d="M45,8.52817177 L46.5645503,35 C49.6961174,28.4885853 53.1096817,22.356437 58.2489376,19.1039643 C72.581468,10.0322989 50.4311189,-7.55871013 45,8.52817177 Z" id="path4094" stroke="#010101" stroke-width="2.4874056" fill="#ED2224" stroke-linecap="round" stroke-linejoin="round" transform="translate(54.000000, 18.500000) rotate(11.000000) translate(-54.000000, -18.500000) "></path>
                </g>
            </g>
            <g id="crooks-5" transform="translate(1027.000000, -2.000000)">
                <path d="M56.3857747,107.955117 C53.5956127,107.881831 52.9031802,115.761955 52.7036306,117.931394 C51.818902,123.632684 59.0303798,138.530199 60.9747012,145.590194 C56.7302997,144.397312 52.5892049,142.550154 48.3227294,141.582427 C45.8530828,141.570065 44.7361351,145.659065 47.291429,146.464327 C48.8789958,147.326982 54.8266322,148.238199 53.5163157,149.01344 C49.537686,150.321108 45.2562001,150.892385 41.4056,152.456112 C39.2008423,154.19908 41.3146548,158.130913 43.8487576,156.873574 C48.6662018,155.633894 53.460689,154.268834 58.2728355,152.985006 C57.4490313,155.56414 54.90345,157.73976 54.9564277,160.509614 C55.5338853,163.382774 59.8886571,163.371296 60.4413917,160.213821 C62.0527985,157.205568 63.5626647,154.13639 65.1466997,151.113125 C69.4997055,149.726874 74.1034728,148.98342 78.3575868,147.424108 C80.5729401,146.059047 79.4754175,142.18549 76.888337,142.743523 C73.3379441,143.579688 69.8060936,144.639243 66.2919022,145.579599 C64.3697478,138.088378 57.4469059,121.667209 58.4561322,115.029096 C58.4896848,113.465369 57.8250038,108.016042 56.3857747,107.955117 Z" id="crooks-leg-left" stroke="#010101" stroke-width="2.3705787" fill="#F47521" stroke-linecap="round" transform="translate(60.015109, 135.289642) rotate(16.000000) translate(-60.015109, -135.289642) "></path>
                <path d="M98.2305171,111.435247 C100.640772,112.067031 100.378357,117.820834 100.387332,119.250386 C100.721459,123.052366 93.3867326,132.53149 91.1805019,137.583621 C94.9282442,136.710224 98.6361118,135.445055 102.385961,134.830875 C104.515397,134.833631 105.170812,137.373268 102.907981,137.950456 C101.47489,138.555639 96.2803503,139.354923 97.3514178,139.844239 C100.68221,140.54784 104.329356,140.680157 107.530564,141.391763 C109.299806,142.261455 107.182545,144.854469 105.092961,144.342557 C101.034114,143.996262 97.0044731,143.45683 92.9535088,142.86522 C93.4697237,144.666948 95.5002015,145.998509 95.2464164,147.960311 C94.5328371,150.075217 90.7804652,150.624412 90.5413324,148.338023 C89.3785525,146.23819 88.307865,144.029192 87.1698038,141.804846 C83.5222537,140.859222 79.6102812,140.343692 76.0609663,139.064923 C74.2541962,137.880246 75.4911717,134.595144 77.678961,135.154997 C80.6760985,135.936888 83.6404697,136.841164 86.5985777,137.591072 C88.8181054,131.979832 96.0185524,120.970123 95.6475177,116.291398 C95.7360974,115.225362 96.9855151,111.122181 98.2305171,111.435247 Z" id="crooks-leg-left" stroke="#010101" stroke-width="2.0149919" fill="#F47521" stroke-linecap="round" transform="translate(91.691229, 130.618013) scale(-1, 1) rotate(4.000000) translate(-91.691229, -130.618013) "></path>
                <g id="tail" transform="translate(120.265392, 58.299218) rotate(19.210240) translate(-120.265392, -58.299218) translate(105.265392, 34.299218)" stroke="#010101" stroke-width="3.36092651" fill="#964D22" stroke-linecap="round" stroke-linejoin="round">
                    <path d="M18.7596137,13.0482699 C19.9733786,7.43765367 18.9935925,4.04739857 17.9203773,3.20085032 C15.4944722,0.862687327 12.6249824,0.8464388 9.90416662,0.108755687 C8.2963749,0.114442671 6.41560794,-0.468067012 4.45684804,4.81757873 C2.88886521,9.94155164 2.03013057,16.3605321 1.33713091,22.0402046 C-0.00824710641,33.6302788 0.705875643,44.2210685 3.53230687,45.7744276 C7.08260996,48.0516586 12.4511232,37.5071772 16.1257275,24.1525131 C17.1047012,20.6403941 17.9959329,16.8918589 18.7596137,13.0482699 Z" id="path3971"></path>
                    <path d="M28.3641178,19.355948 C30.5666056,14.3026562 30.176641,10.8214094 29.250475,9.74331961 C27.2340328,6.90307714 24.3604809,6.17026858 21.7664036,4.78426925 C20.1561746,4.38699277 18.3745236,3.36008588 15.4847231,7.91536035 C13.0165719,12.4153898 11.0269398,18.3282287 9.33709304,23.5765028 C5.9549622,34.305405 4.80862864,44.5939722 7.36614675,46.785086 C10.5224231,49.8463084 17.7530175,41.1249117 23.7763463,29.2976091 C25.3735765,26.1876411 26.9253108,22.8323203 28.3641178,19.355948 Z" id="path3975"></path>
                </g>
                <g id="body" transform="translate(22.858268, 48.000000)">
                    <path d="M87.9681121,39.451572 C87.9760489,60.812425 68.7865809,78.1339799 45.1136443,78.1339799 C21.4415014,78.1339799 2.25123974,60.812425 2.25758914,39.451572 C2.25123974,18.088809 21.4407077,0.768527392 45.1136443,0.768527392 C68.7857872,0.768527392 87.9752552,18.088809 87.9681121,39.451572 Z" stroke="#010101" stroke-width="3.2497052" fill="url(#radialGradient-1)" stroke-linecap="round" stroke-linejoin="round"></path>
                    <path d="M87.3593636,27.7964936 C87.3919043,28.3904519 87.4109525,28.9945959 87.4109525,29.5949203 C87.4109525,50.9411314 67.2420899,68.2639594 42.3873716,68.2639594 C22.9605948,68.2639594 6.38231679,57.6726585 0.0726025683,42.8555322 C1.16390534,63.3722388 20.9033899,79.7382402 45.0588808,79.7382402 C69.9143927,79.7382402 90.0832553,62.4147755 90.0832553,41.0679279 C90.0824617,36.4072971 89.1221152,31.9351032 87.3593636,27.7964936 Z" id="path3887" fill-opacity="0.3137" fill="#010101"></path>
                </g>
                <g id="head" transform="translate(42.000000, 48.000000) rotate(5.000000) translate(-42.000000, -48.000000) translate(4.000000, 4.000000)">
                    <path d="M56.8104318,20.4692197 L48,37 C53.6590018,34.572655 59.4528993,32.5018012 65.8335521,32.9568283 C83.6240699,34.2217715 68.5033297,13.3970739 56.8104318,20.4692197 Z" id="path4090" stroke="#010101" stroke-width="2.19355101" fill="#ED2224" stroke-linecap="round" stroke-linejoin="round" transform="translate(61.000000, 28.000000) rotate(11.000000) translate(-61.000000, -28.000000) "></path>
                    <path d="M51.5894504,14.2282085 L47,36 C51.8374856,31.1876019 56.8798002,26.7272323 63.0662769,24.8752566 C80.3151215,19.71083 61.1059991,1.98454623 51.5894504,14.2282085 Z" id="path4092" stroke="#010101" stroke-width="2.38853332" fill="#ED2224" stroke-linecap="round" stroke-linejoin="round" transform="translate(58.500000, 23.000000) rotate(11.000000) translate(-58.500000, -23.000000) "></path>
                    <path d="M66.9999988,51.5 C67.0045164,69.9991395 54.0195885,85 38.0003767,85 C21.9811649,85 8.99473114,69.9991395 9.0000016,51.5 C8.99473114,33.0000485 21.9811649,18 38.0003767,18 C54.0195885,18 67.0045164,33.0000485 66.9999988,51.5 Z" id="path3984" stroke="#010101" stroke-width="2.4372789" fill="#C7612B" stroke-linecap="round" stroke-linejoin="round"></path>
                    <g id="eye-r" transform="translate(41.000000, 37.000000)" stroke="#010101">
                        <path d="M18.9955274,11.0129534 C18.8424866,16.660991 14.5585123,21.1316032 9.42989305,20.9970403 C4.30010551,20.8612759 0.269641597,16.1732005 0.423850651,10.5239615 C0.579227955,4.8759239 4.8608657,0.406513188 9.99065324,0.541076091 C15.1204408,0.675638995 19.1532412,5.36491588 18.9955274,11.0129534 Z" id="path4014" stroke-width="3.05333693" fill="#FFFFFF" stroke-linecap="round" stroke-linejoin="round"></path>
                        <path d="M10.5911073,10.2399013 C10.5479501,11.6753341 9.34935789,12.8112223 7.9143821,12.7782449 C6.47842546,12.7434354 5.34947321,11.5516689 5.39361123,10.116236 C5.43676839,8.68080318 6.63437977,7.54491502 8.0703364,7.5797245 C9.50727389,7.6127019 10.6352453,8.80446842 10.5911073,10.2399013 Z" id="path4016" stroke-width="1.12685892" fill="#010101"></path>
                    </g>
                    <g id="eye-l" transform="translate(19.000000, 25.000000)" stroke="#010101">
                        <path d="M17.8370498,12.0100624 C16.1760598,16.8442871 11.1671719,19.6253749 6.65297506,18.2213087 C2.13877823,16.8172425 -0.173536274,11.7598997 1.49196121,6.92454806 C3.15295126,2.0903233 8.1607123,-0.690764518 12.676036,0.714428555 C17.1902328,2.11849477 19.5014205,7.17696446 17.8370498,12.0100624 Z" id="path4012" stroke-width="3.05333693" fill="#FFFFFF" stroke-linecap="round" stroke-linejoin="round"></path>
                        <path d="M10.8450046,10.1965598 C10.3679264,11.5230056 8.93087386,12.2849473 7.63636297,11.9002687 C6.3408824,11.5146632 5.67762738,10.1279665 6.15470555,8.80244764 C6.63178372,7.47785569 8.0678666,6.71498713 9.36431684,7.09966569 C10.6578581,7.48527118 11.3230524,8.87196786 10.8450046,10.1965598 Z" id="path4018" stroke-width="1.12685892" fill="#010101"></path>
                    </g>
                    <path d="M65.8109145,40 L65.1310073,41.1901678 C65.2205084,42.568597 65.2558575,43.96965 65.2558575,45.3909026 C65.2558575,65.632643 47.7083854,82.4323503 35.5798639,80.2297723 C25.4805344,78.3956373 13.4264717,71.4186523 8,56.7051726 C10.7609948,74.7386791 28.7319047,88.1036251 37.3247584,87.9993946 C56.3787064,87.7691177 67,72.2557289 67,52.0139884 C67,47.8059817 66.6104072,43.7644208 65.8109145,40 Z" id="path4022" fill-opacity="0.3137" fill="#010101"></path>
                    <path d="M16.425521,54.0321158 L11.2923347,82.8101083 L30.8938451,63.8466563 C33.1918128,52.1985581 25.1786373,46.9186669 16.425521,54.0321158 Z" id="path3454" stroke="#010101" stroke-width="2.19355101" fill="#ED2224" stroke-linecap="round" stroke-linejoin="round" transform="translate(21.292335, 66.810108) rotate(-4.000000) translate(-21.292335, -66.810108) "></path>
                    <path d="M19.5520028,46 L0,67.0362611 L26.7487881,68 C34.8482378,59.6873489 30.7837956,47.6446414 19.5520028,46 Z" id="path4088" stroke="#010101" stroke-width="2.5177091" fill="#FEDA00" stroke-linecap="round" stroke-linejoin="round"></path>
                    <path d="M45,8.52817177 L46.5645503,35 C49.6961174,28.4885853 53.1096817,22.356437 58.2489376,19.1039643 C72.581468,10.0322989 50.4311189,-7.55871013 45,8.52817177 Z" id="path4094" stroke="#010101" stroke-width="2.4874056" fill="#ED2224" stroke-linecap="round" stroke-linejoin="round" transform="translate(54.000000, 18.500000) rotate(11.000000) translate(-54.000000, -18.500000) "></path>
                </g>
            </g>
            <g id="crooks-7" transform="translate(1229.000000, 2.000000)">
                <path d="M52.5531773,104.194029 C49.9859102,104.126597 49.555774,112.273741 49.3721656,114.269872 C48.5581145,119.515709 46.258948,132.616688 45.5334513,137.874711 C41.6281181,136.777123 37.8178388,135.077527 33.8921949,134.187108 C31.6198385,134.175734 30.5921193,137.93808 32.943281,138.679013 C34.4040235,139.472753 39.876527,140.311177 38.6708864,141.024488 C35.0100935,142.227691 31.0706384,142.753331 27.5276473,144.192138 C25.4990188,145.795867 27.4439674,149.413602 29.7756308,148.256707 C34.2082287,147.11606 38.6197035,145.860049 43.0474269,144.678781 C42.2894331,147.051878 39.9472081,149.053697 39.9959537,151.602278 C40.5272805,154.245913 44.534167,154.235352 45.0427459,151.330115 C46.5254239,148.562179 47.9146728,145.738185 49.3721656,142.956437 C53.3774273,141.680928 57.613418,140.996865 61.5276879,139.56212 C63.5660655,138.306109 62.5562196,134.741995 60.1758106,135.255449 C56.9090444,136.024816 53.6593392,136.999728 50.4258825,137.864962 C51.2537449,131.710833 53.7365197,117.707248 54.665123,111.599427 C54.6959952,110.16062 53.8774322,104.250086 52.5531773,104.194029 Z" id="crooks-leg-left" stroke="#010101" stroke-width="2.3705787" fill="#F47521" stroke-linecap="round" transform="translate(44.650517, 128.870994) rotate(14.000000) translate(-44.650517, -128.870994) "></path>
                <path d="M84.2577524,99.2220942 C81.4158852,99.8273518 82.1706293,103.507643 82.5605939,105.71988 C81.4624667,110.605148 78.4276852,131.382947 78.6681634,136.223383 C75.1592942,135.29153 71.7154191,133.223092 68.1033718,133.006987 C65.4191153,133.539938 66.4988298,137.948164 68.9783549,137.790553 C72.4181679,139.213111 76.462426,139.904486 79.5260856,141.782816 C81.219182,145.117013 82.1079763,149.07028 84.2950279,152.044572 C86.2026049,153.528875 89.3166349,150.897426 87.7454024,148.689252 C87.077588,146.541197 83.814884,141.92499 87.9257611,144.327335 C91.9042127,145.503728 95.7786737,147.40968 99.8196821,148.160362 C102.412134,148.014125 102.337391,143.466163 99.7002554,143.440978 C96.2539431,142.251586 92.8068183,141.059756 89.3605059,139.870364 C91.8546547,138.834521 95.1238581,139.256982 97.1955452,137.343718 C98.5937308,135.386583 95.9208483,132.687703 94.0490181,133.888469 C90.5474607,134.777264 87.0467158,135.666058 83.5451585,136.554852 C83.2190919,132.51653 85.8582804,118.031516 86.6451261,111.403774 C87.2418121,106.377782 87.0530905,102.959128 86.7494639,100.452108 C86.2628206,99.538128 85.2050415,99.0539219 84.2577524,99.2220942 Z" id="crooks-leg-right" stroke="#010101" stroke-width="2.3705787" fill="#F47521" stroke-linecap="round" transform="translate(84.129350, 125.833376) scale(-1, 1) rotate(-8.000000) translate(-84.129350, -125.833376) "></path>
                <g id="tail" transform="translate(119.265392, 54.299218) rotate(31.210240) translate(-119.265392, -54.299218) translate(104.265392, 30.299218)" stroke="#010101" stroke-width="3.36092651" fill="#964D22" stroke-linecap="round" stroke-linejoin="round">
                    <path d="M18.7596137,13.0482699 C19.9733786,7.43765367 18.9935925,4.04739857 17.9203773,3.20085032 C15.4944722,0.862687327 12.6249824,0.8464388 9.90416662,0.108755687 C8.2963749,0.114442671 6.41560794,-0.468067012 4.45684804,4.81757873 C2.88886521,9.94155164 2.03013057,16.3605321 1.33713091,22.0402046 C-0.00824710641,33.6302788 0.705875643,44.2210685 3.53230687,45.7744276 C7.08260996,48.0516586 12.4511232,37.5071772 16.1257275,24.1525131 C17.1047012,20.6403941 17.9959329,16.8918589 18.7596137,13.0482699 Z" id="path3971"></path>
                    <path d="M28.3641178,19.355948 C30.5666056,14.3026562 30.176641,10.8214094 29.250475,9.74331961 C27.2340328,6.90307714 24.3604809,6.17026858 21.7664036,4.78426925 C20.1561746,4.38699277 18.3745236,3.36008588 15.4847231,7.91536035 C13.0165719,12.4153898 11.0269398,18.3282287 9.33709304,23.5765028 C5.9549622,34.305405 4.80862864,44.5939722 7.36614675,46.785086 C10.5224231,49.8463084 17.7530175,41.1249117 23.7763463,29.2976091 C25.3735765,26.1876411 26.9253108,22.8323203 28.3641178,19.355948 Z" id="path3975"></path>
                </g>
                <g id="body" transform="translate(24.858268, 39.000000)">
                    <path d="M87.9681121,39.451572 C87.9760489,60.812425 68.7865809,78.1339799 45.1136443,78.1339799 C21.4415014,78.1339799 2.25123974,60.812425 2.25758914,39.451572 C2.25123974,18.088809 21.4407077,0.768527392 45.1136443,0.768527392 C68.7857872,0.768527392 87.9752552,18.088809 87.9681121,39.451572 Z" stroke="#010101" stroke-width="3.2497052" fill="url(#radialGradient-1)" stroke-linecap="round" stroke-linejoin="round"></path>
                    <path d="M87.3593636,27.7964936 C87.3919043,28.3904519 87.4109525,28.9945959 87.4109525,29.5949203 C87.4109525,50.9411314 67.2420899,68.2639594 42.3873716,68.2639594 C22.9605948,68.2639594 6.38231679,57.6726585 0.0726025683,42.8555322 C1.16390534,63.3722388 20.9033899,79.7382402 45.0588808,79.7382402 C69.9143927,79.7382402 90.0832553,62.4147755 90.0832553,41.0679279 C90.0824617,36.4072971 89.1221152,31.9351032 87.3593636,27.7964936 Z" id="path3887" fill-opacity="0.3137" fill="#010101"></path>
                </g>
                <g id="head">
                    <path d="M57.1492946,22.550843 L48,40 C53.8766557,37.4378025 59.8933954,35.2519013 66.5194579,35.7322076 C84.9942264,37.0674254 69.2919193,15.0858003 57.1492946,22.550843 Z" id="path4090" stroke="#010101" stroke-width="2.19355101" fill="#ED2224" stroke-linecap="round" stroke-linejoin="round" transform="translate(61.500000, 30.500000) rotate(1.000000) translate(-61.500000, -30.500000) "></path>
                    <path d="M51.7889917,15.3908319 L47,38 C52.047811,33.0025097 57.3093567,28.3705874 63.7648107,26.4473818 C81.763605,21.0843235 61.7193034,2.67625954 51.7889917,15.3908319 Z" id="path4092" stroke="#010101" stroke-width="2.38853332" fill="#ED2224" stroke-linecap="round" stroke-linejoin="round" transform="translate(59.000000, 24.500000) rotate(1.000000) translate(-59.000000, -24.500000) "></path>
                    <path d="M68.9999988,51.5 C69.0046721,70.5513526 55.5719881,86 39.0003897,86 C22.4287913,86 8.99454945,70.5513526 9.00000166,51.5 C8.99454945,32.4478111 22.4287913,17 39.0003897,17 C55.5719881,17 69.0046721,32.4478111 68.9999988,51.5 Z" id="path3984" stroke="#010101" stroke-width="2.4372789" fill="#C7612B" stroke-linecap="round" stroke-linejoin="round"></path>
                    <g id="eye-r" transform="translate(43.000000, 36.000000)" stroke="#010101">
                        <path d="M19.9453038,11.5373798 C19.7846109,17.4543715 15.286438,22.13787 9.9013877,21.9968993 C4.51511078,21.85467 0.283123677,16.9433529 0.445043183,11.0251025 C0.608189353,5.10811075 5.10390899,0.425870959 10.4901859,0.56684162 C15.8764628,0.70781228 20.1109033,5.62038806 19.9453038,11.5373798 Z" id="path4014" stroke-width="3.05333693" fill="#FFFFFF" stroke-linecap="round" stroke-linejoin="round"></path>
                        <path d="M12.1706626,10.7275156 C12.1253476,12.2313024 10.8668258,13.4212805 9.3601012,13.3867327 C7.85234673,13.3502657 6.66694687,12.1017484 6.71329179,10.5979616 C6.75860681,9.09417476 8.01609876,7.90419669 9.52385322,7.94066376 C11.0326376,7.97521151 12.2170076,9.22372882 12.1706626,10.7275156 Z" id="path4016" stroke-width="1.12685892" fill="#010101"></path>
                    </g>
                    <g id="eye-l" transform="translate(21.000000, 24.000000)" stroke="#010101">
                        <path d="M17.7758419,12.6421709 C16.0274314,17.7308286 10.7549178,20.6582894 6.00313164,19.180325 C1.2513455,17.7023605 -1.18266976,12.3788418 0.570485484,7.28899796 C2.31889606,2.20034031 7.59022347,-0.727120545 12.3431958,0.752030058 C17.0949819,2.22999449 19.527811,7.55469943 17.7758419,12.6421709 Z" id="path4012" stroke-width="3.05333693" fill="#FFFFFF" stroke-linecap="round" stroke-linejoin="round"></path>
                        <path d="M10.4684259,9.73322085 C9.96623833,11.1294796 8.45355143,11.9315234 7.09090838,11.5265986 C5.72724463,11.1206981 5.02908145,9.66101739 5.531269,8.26573436 C6.03345655,6.87142704 7.54512273,6.0684075 8.9098072,6.4733323 C10.2714295,6.87923282 10.9716341,8.33891354 10.4684259,9.73322085 Z" id="path4018" stroke-width="1.12685892" fill="#010101"></path>
                    </g>
                    <path d="M67.7706065,39 L67.0676516,40.2397581 C67.1601866,41.6756219 67.1967341,43.135052 67.1967341,44.6155236 C67.1967341,65.7006698 49.0544323,83.2003649 36.5147745,80.9060128 C26.0730949,78.9954555 13.6104199,71.7277628 8,56.4012214 C10.8545879,75.186124 29.4346812,89.1079428 38.318818,88.9993693 C58.0186625,88.7594976 69,72.5997176 69,51.5145713 C69,47.131231 68.5972006,42.9212716 67.7706065,39 Z" id="path4022" fill-opacity="0.3137" fill="#010101"></path>
                    <path d="M17.3898455,54.3226953 L12,84 L32.5815858,64.4439402 C34.994452,52.4318389 26.5806176,46.9869511 17.3898455,54.3226953 Z" id="path3454" stroke="#010101" stroke-width="2.19355101" fill="#ED2224" stroke-linecap="round" stroke-linejoin="round" transform="translate(22.500000, 67.500000) rotate(-4.000000) translate(-22.500000, -67.500000) "></path>
                    <path d="M20.1827125,46 L0,67.9924548 L27.6116523,69 C35.9723745,60.3095011 31.7768213,47.7193978 20.1827125,46 Z" id="path4088" stroke="#010101" stroke-width="2.5177091" fill="#FEDA00" stroke-linecap="round" stroke-linejoin="round"></path>
                    <path d="M43,7.72599515 L44.6514698,35 C47.9570128,28.2912697 51.5602195,21.9732987 56.9849896,18.6222663 C72.1137718,9.27570186 48.7328478,-8.84836802 43,7.72599515 Z" id="path4094" stroke="#010101" stroke-width="2.4874056" fill="#ED2224" stroke-linecap="round" stroke-linejoin="round" transform="translate(52.500000, 18.000000) rotate(1.000000) translate(-52.500000, -18.000000) "></path>
                </g>
            </g>
            <g id="crooks-8" transform="translate(1510.517544, 80.122082) rotate(-7.000000) translate(-1510.517544, -80.122082) translate(1426.517544, -2.377918)">
                <path d="M36.7187943,98.3911037 C34.290496,98.3277676 33.3622098,104.174357 33.1885403,106.04926 C32.4185546,110.976509 30.2438444,123.281845 29.5576195,128.22054 C25.8636859,127.18961 22.2596609,125.593233 18.546516,124.756891 C16.3971646,124.746207 15.4250768,128.280061 17.6489678,128.975995 C19.0306388,129.721531 24.2069102,130.509036 23.0665321,131.179026 C19.6039017,132.309157 15.8776932,132.802873 12.5264878,134.154299 C10.607671,135.660632 12.4473376,139.058656 14.6527857,137.972021 C18.8454426,136.900647 23.0181199,135.720916 27.2061661,134.611388 C26.4892033,136.840363 24.2737653,138.720608 24.3198722,141.11441 C24.8224378,143.597493 28.6124275,143.587573 29.0934764,140.858776 C30.4958956,138.258941 31.8099431,135.606453 33.1885403,132.993645 C36.9769931,131.795599 40.9836854,131.153081 44.6860719,129.80547 C46.6141101,128.625739 45.6589282,125.278079 43.4073731,125.760349 C40.3174403,126.482992 37.2436449,127.398696 34.1852185,128.211383 C34.9682679,122.431003 37.3166475,109.277879 38.1949846,103.540995 C38.2241856,102.189569 37.9713659,98.4437567 36.7187943,98.3911037 Z" id="crooks-leg-left" stroke="#010101" stroke-width="1.89646296" fill="#F47521" stroke-linecap="round" transform="translate(28.722479, 120.666455) rotate(51.000000) translate(-28.722479, -120.666455) "></path>
                <path d="M73.9940813,106.739125 C71.1522141,107.344382 71.9069582,111.024673 72.2969228,113.23691 C71.1987956,118.122178 68.1640141,138.899977 68.4044923,143.740413 C64.8956231,142.80856 61.451748,140.740123 57.8397007,140.524017 C55.1554442,141.056969 56.2351587,145.465194 58.7146838,145.307583 C62.1544968,146.730142 66.1987549,147.421517 69.2624144,149.299846 C70.9555109,152.634044 71.8443052,156.58731 74.0313568,159.561603 C75.9389338,161.045906 79.0529638,158.414457 77.4817313,156.206282 C76.8139169,154.058227 73.5512129,149.442021 77.66209,151.844365 C81.6405416,153.020759 85.5150026,154.926711 89.556011,155.677393 C92.1484633,155.531156 92.0737201,150.983194 89.4365843,150.958008 C85.990272,149.768616 82.5431472,148.576787 79.0968348,147.387395 C81.5909836,146.351551 84.860187,146.774013 86.931874,144.860749 C88.3300597,142.903614 85.6571772,140.204734 83.785347,141.4055 C80.2837896,142.294294 76.7830447,143.183089 73.2814874,144.071883 C72.9554208,140.033561 75.5946093,125.548547 76.381455,118.920805 C76.978141,113.894813 76.7894193,110.476159 76.4857928,107.969138 C75.9991495,107.055159 74.9413704,106.570952 73.9940813,106.739125 Z" id="crooks-leg-right" stroke="#010101" stroke-width="2.3705787" fill="#F47521" stroke-linecap="round" transform="translate(73.865679, 133.350407) scale(-1, 1) rotate(-19.000000) translate(-73.865679, -133.350407) "></path>
                <g id="tail" transform="translate(138.561579, 63.848102) rotate(31.210240) translate(-138.561579, -63.848102) translate(121.561579, 36.848102)" stroke="#010101" stroke-width="3.36092651" fill="#964D22" stroke-linecap="round" stroke-linejoin="round">
                    <path d="M21.0303976,14.6286323 C22.3911068,8.33876776 21.292703,4.53807204 20.0895592,3.58903659 C17.3699624,0.967804314 14.1530783,0.949588662 11.1028674,0.122598077 C9.30042871,0.128973555 7.19196703,-0.524057557 4.99607022,5.40149393 C3.23825984,11.1457997 2.27556265,18.3418929 1.4986651,24.7091739 C-0.00959085383,37.7023982 0.790987037,49.57536 3.95959964,51.3167763 C7.93971953,53.8696999 13.9581708,42.0486527 18.0776405,27.0772086 C19.1751335,23.1398955 20.174262,18.9375447 21.0303976,14.6286323 Z" id="path3971"></path>
                    <path d="M31.7976693,21.6999483 C34.2668009,16.0348806 33.8296252,12.1321772 32.7913331,10.9235687 C30.5307707,7.73947282 27.3093327,6.91794693 24.4012039,5.36415184 C22.5960329,4.91877916 20.5986867,3.76754997 17.359033,8.87430792 C14.5920755,13.9191326 12.361569,20.5478083 10.4671412,26.4314638 C6.67555331,38.4592586 5.39043908,49.9934092 8.25758265,52.4497898 C11.795973,55.8816186 19.901938,46.1043676 26.65448,32.8451947 C28.4450786,29.358719 30.1846733,25.5971869 31.7976693,21.6999483 Z" id="path3975"></path>
                </g>
                <g id="body" transform="translate(30.711742, 32.451778)">
                    <path d="M90.0464685,48.0550629 C90.0545928,74.0742325 70.4117497,95.1732247 46.1795104,95.1732247 C21.9480836,95.1732247 2.30442809,74.0742325 2.3109275,48.0550629 C2.30442809,22.0335671 21.9472712,0.936125744 46.1795104,0.936125744 C70.4109372,0.936125744 90.0537803,22.0335671 90.0464685,48.0550629 Z" stroke="#010101" stroke-width="3.2497052" fill="url(#radialGradient-2)" stroke-linecap="round" stroke-linejoin="round"></path>
                    <path d="M89.4233375,33.858277 C89.456647,34.581764 89.4761452,35.3176582 89.4761452,36.0488997 C89.4761452,62.050234 68.8307681,83.1507771 43.3888261,83.1507771 C23.5030675,83.1507771 6.53310698,70.2497542 0.0743178945,52.2013495 C1.19140406,77.1922834 21.3972586,97.1273377 46.123453,97.1273377 C71.5662074,97.1273377 92.2115846,76.0260191 92.2115846,50.0239093 C92.2107722,44.3469009 91.2277363,38.8994232 89.4233375,33.858277 Z" id="path3887" fill-opacity="0.3137" fill="#010101"></path>
                </g>
                <g id="head" transform="translate(59.434482, 45.401593) rotate(-2.000000) translate(-59.434482, -45.401593) translate(25.934482, 1.901593)">
                    <path d="M48.9712395,19.0152766 L40.1911022,36.0336996 C45.8306456,33.5347502 51.6046208,31.4028082 57.9633338,31.8712581 C75.692679,33.1735159 60.6239314,11.7345091 48.9712395,19.0152766 Z" id="path4090" stroke="#010101" stroke-width="2.19355101" fill="#ED2224" stroke-linecap="round" stroke-linejoin="round"></path>
                    <path d="M44.2991112,12.321721 L39.5684267,34.6118551 C44.5547793,29.6848835 49.7522642,25.1183215 56.1291214,23.2222539 C73.9087755,17.9348727 54.1085187,-0.213438306 44.2991112,12.321721 Z" id="path4092" stroke="#010101" stroke-width="2.38853332" fill="#ED2224" stroke-linecap="round" stroke-linejoin="round"></path>
                    <path d="M65.2564723,48.9251448 C65.2614208,67.7134508 51.0380273,82.948795 33.4909487,82.948795 C15.94387,82.948795 1.71882713,67.7134508 1.72460028,48.9251448 C1.71882713,30.136014 15.94387,14.9014945 33.4909487,14.9014945 C51.0380273,14.9014945 65.2614208,30.136014 65.2564723,48.9251448 Z" id="path3984" stroke="#010101" stroke-width="2.4372789" fill="#C7612B" stroke-linecap="round" stroke-linejoin="round"></path>
                    <g id="eye-r" transform="translate(39.142728, 33.792781)" stroke="#010101">
                        <path d="M18.6152142,10.5196036 C18.4653591,15.8972305 14.2705584,20.1538035 9.24869458,20.025683 C4.2256868,19.8964187 0.27911954,15.4327939 0.430118635,10.0540231 C0.582261663,4.67639622 4.77477442,0.420967175 9.7977822,0.549087619 C14.82079,0.677208064 18.7696451,5.14197677 18.6152142,10.5196036 Z" id="path4014" stroke-width="3.05333693" fill="#FFFFFF" stroke-linecap="round" stroke-linejoin="round"></path>
                        <path d="M10.7334295,10.7313252 C10.6830965,12.5238675 9.28521095,13.9423438 7.61163764,13.9011622 C5.9369204,13.8576928 4.62025405,12.3694366 4.67173101,10.5768943 C4.72206405,8.784352 6.11880568,7.36587565 7.79352291,7.40934509 C9.46938409,7.45052666 10.7849065,8.93878289 10.7334295,10.7313252 Z" id="path4016" stroke-width="1.12685892" fill="#010101"></path>
                    </g>
                    <g id="eye-l" transform="translate(14.854436, 22.353456)" stroke="#010101">
                        <path d="M18.1073082,12.192033 C16.4211516,17.0995036 11.3363715,19.9227291 6.75377771,18.4973892 C2.17118396,17.0720492 -0.176165611,11.93808 1.51456668,7.02946546 C3.20072325,2.12199486 8.28435945,-0.701230647 12.8680971,0.72525323 C17.4506909,2.15059317 19.7968965,7.28570635 18.1073082,12.192033 Z" id="path4012" stroke-width="3.05333693" fill="#FFFFFF" stroke-linecap="round" stroke-linejoin="round"></path>
                        <path d="M10.7585961,10.8731728 C10.1957812,12.5101403 8.50047322,13.4504528 6.97332328,12.9757208 C5.44502941,12.4998449 4.66257955,10.7885218 5.22539436,9.15269828 C5.78820917,7.51801868 7.48237326,6.5765622 9.01181107,7.0512942 C10.5378171,7.52717014 11.3225548,9.23849322 10.7585961,10.8731728 Z" id="path4018" stroke-width="1.12685892" fill="#010101"></path>
                    </g>
                    <path d="M64.5612201,37.3928642 L63.8156589,38.6077 C63.9138025,40.0146993 63.9525651,41.4447912 63.9525651,42.8955014 C63.9525651,63.5567824 44.7106544,80.7046889 31.410965,78.4564592 C20.3364128,76.5843089 7.11837235,69.4627154 1.16790363,54.4442767 C4.19550871,72.8515547 23.9017457,86.4935094 33.3243521,86.3871185 C54.2182085,86.1520688 65.8651274,70.3171417 65.8651274,49.6558607 C65.8651274,45.3606367 65.4379142,41.2353083 64.5612201,37.3928642 Z" id="path4022" fill-opacity="0.3137" fill="#010101"></path>
                    <path d="M15.8193349,56.0978719 L10.618551,85.0155829 L30.4781888,65.9600625 C32.806418,54.2554122 24.6877189,48.9498868 15.8193349,56.0978719 Z" id="path3454" stroke="#010101" stroke-width="2.19355101" fill="#ED2224" stroke-linecap="round" stroke-linejoin="round"></path>
                    <path d="M19.7995098,47.0348503 L0.0776029133,68.5654029 L27.0588343,69.5517869 C35.228667,61.0438125 31.1289054,48.7181361 19.7995098,47.0348503 Z" id="path4088" stroke="#010101" stroke-width="2.5177091" fill="#FEDA00" stroke-linecap="round" stroke-linejoin="round"></path>
                    <path d="M37.4538042,6.69372393 L39.0232764,33.69145 C42.164695,27.0506774 45.588998,20.7967059 50.7444214,17.4796186 C65.1220404,8.2277325 42.9020088,-9.71274513 37.4538042,6.69372393 Z" id="path4094" stroke="#010101" stroke-width="2.4874056" fill="#ED2224" stroke-linecap="round" stroke-linejoin="round"></path>
                </g>
            </g>
            <g id="crooks-3" transform="translate(622.000000, -2.000000)">
                <path d="M51.8297928,97.8618253 C49.1420169,97.7912287 47.6034128,105.019288 45.3860024,107.774266 C41.791087,111.849333 33.2984385,126.522314 30.1710817,132.596371 C27.2171256,130.345778 21.8229807,127.714159 17.7130651,126.781943 C15.3340432,126.770035 14.2580823,130.708988 16.7196087,131.4847 C18.2489192,132.315699 26.451438,134.498489 25.189204,135.245282 C21.3565716,136.504964 14.7590633,135.750269 11.0497624,137.256614 C8.92590909,138.935623 10.8964518,141.076667 13.4032675,141.511976 C18.0439337,140.317787 22.932799,140.956545 27.568362,139.719827 C26.7747876,142.204319 24.3226174,144.300104 24.3736511,146.968317 C24.9299186,149.736046 29.1248904,149.724988 29.6573422,146.683379 C31.2096179,143.785514 32.6640789,140.82896 34.1899871,137.916636 C38.3832578,136.581254 42.8180881,135.86508 46.9160958,134.362988 C49.0501558,133.048019 47.9929073,129.316604 45.5007606,129.854159 C42.0806508,130.659641 38.6784028,131.680315 35.293166,132.586164 C39.0739779,125.729079 48.4945707,111.307837 51.7227017,106.5686 C51.755023,105.062254 53.2162089,97.9205141 51.8297928,97.8618253 Z" id="crooks-leg-left" stroke="#010101" stroke-width="2.3705787" fill="#F47521" stroke-linecap="round" transform="translate(31.286887, 123.433538) rotate(28.000000) translate(-31.286887, -123.433538) "></path>
                <path d="M79.7398962,122.617635 C76.864166,123.230105 77.6279034,126.954249 78.0225148,129.192846 C78.2000899,134.076162 78.7418584,138.983318 78.985202,143.881432 C75.434522,142.938475 71.9496106,140.845391 68.294523,140.62671 C65.5782816,141.166012 66.6708617,145.626765 69.1799322,145.467276 C72.6607331,146.906785 76.7531816,147.606398 79.853347,149.50711 C81.5666179,152.881037 82.4660029,156.881409 84.6791149,159.891143 C86.609422,161.393132 89.760558,158.730328 88.1706032,156.495841 C87.7200886,155.04674 87.2149586,153.394535 86.6552134,151.539224 C94.0154473,151.15748 99.0586175,151.219818 101.784724,151.726235 C104.408068,151.578256 104.332434,146.976101 101.663875,146.950616 C98.1764968,145.747051 93.5174623,146.648484 89.5090963,146.60417 C91.8851435,144.770468 97.032946,142.716765 99.1293187,140.780703 C100.544165,138.800248 97.8394329,136.069208 95.9452985,137.284282 C92.4020174,138.183667 87.4635912,143.317466 83.9203101,144.216851 C83.373609,137.445978 83.2313845,130.547679 82.2612983,123.862305 C81.7688562,122.937435 80.6984729,122.447459 79.7398962,122.617635 Z" id="crooks-leg-right" stroke="#010101" stroke-width="2.3705787" fill="#F47521" stroke-linecap="round" transform="translate(85.209447, 141.456816) scale(-1, 1) rotate(17.000000) translate(-85.209447, -141.456816) "></path>
                <g id="tail" transform="translate(131.265392, 63.299218) rotate(52.210240) translate(-131.265392, -63.299218) translate(116.265392, 39.299218)" stroke="#010101" stroke-width="3.36092651" fill="#964D22" stroke-linecap="round" stroke-linejoin="round">
                    <path d="M18.7596137,13.0482699 C19.9733786,7.43765367 18.9935925,4.04739857 17.9203773,3.20085032 C15.4944722,0.862687327 12.6249824,0.8464388 9.90416662,0.108755687 C8.2963749,0.114442671 6.41560794,-0.468067012 4.45684804,4.81757873 C2.88886521,9.94155164 2.03013057,16.3605321 1.33713091,22.0402046 C-0.00824710641,33.6302788 0.705875643,44.2210685 3.53230687,45.7744276 C7.08260996,48.0516586 12.4511232,37.5071772 16.1257275,24.1525131 C17.1047012,20.6403941 17.9959329,16.8918589 18.7596137,13.0482699 Z" id="path3971"></path>
                    <path d="M28.3641178,19.355948 C30.5666056,14.3026562 30.176641,10.8214094 29.250475,9.74331961 C27.2340328,6.90307714 24.3604809,6.17026858 21.7664036,4.78426925 C20.1561746,4.38699277 18.3745236,3.36008588 15.4847231,7.91536035 C13.0165719,12.4153898 11.0269398,18.3282287 9.33709304,23.5765028 C5.9549622,34.305405 4.80862864,44.5939722 7.36614675,46.785086 C10.5224231,49.8463084 17.7530175,41.1249117 23.7763463,29.2976091 C25.3735765,26.1876411 26.9253108,22.8323203 28.3641178,19.355948 Z" id="path3975"></path>
                </g>
                <g id="body" transform="translate(31.858268, 48.000000)">
                    <path d="M87.9681121,39.451572 C87.9760489,60.812425 68.7865809,78.1339799 45.1136443,78.1339799 C21.4415014,78.1339799 2.25123974,60.812425 2.25758914,39.451572 C2.25123974,18.088809 21.4407077,0.768527392 45.1136443,0.768527392 C68.7857872,0.768527392 87.9752552,18.088809 87.9681121,39.451572 Z" stroke="#010101" stroke-width="3.2497052" fill="url(#radialGradient-1)" stroke-linecap="round" stroke-linejoin="round"></path>
                    <path d="M87.3593636,27.7964936 C87.3919043,28.3904519 87.4109525,28.9945959 87.4109525,29.5949203 C87.4109525,50.9411314 67.2420899,68.2639594 42.3873716,68.2639594 C22.9605948,68.2639594 6.38231679,57.6726585 0.0726025683,42.8555322 C1.16390534,63.3722388 20.9033899,79.7382402 45.0588808,79.7382402 C69.9143927,79.7382402 90.0832553,62.4147755 90.0832553,41.0679279 C90.0824617,36.4072971 89.1221152,31.9351032 87.3593636,27.7964936 Z" id="path3887" fill-opacity="0.3137" fill="#010101"></path>
                </g>
                <g id="head" transform="translate(47.143264, 49.637511) rotate(-10.000000) translate(-47.143264, -49.637511) translate(7.143264, 6.637511)">
                    <path d="M63.1839463,20.5467275 L50.5916284,34.8633867 C57.0123992,33.5809665 63.5018734,32.668305 70.0916506,34.3062251 C88.4660146,38.8694345 76.8695261,15.9098903 63.1839463,20.5467275 Z" id="path4090" stroke="#010101" stroke-width="2.19355101" fill="#ED2224" stroke-linecap="round" stroke-linejoin="round"></path>
                    <path d="M57.8216882,13.7505958 L48.5830433,34.0230661 C54.628979,30.2635879 60.817767,26.8845572 67.6738287,26.2539979 C86.7897484,24.4950917 70.2807754,3.65903628 57.8216882,13.7505958 Z" id="path4092" stroke="#010101" stroke-width="2.38853332" fill="#ED2224" stroke-linecap="round" stroke-linejoin="round"></path>
                    <path d="M70.879859,49.2058422 C70.8846788,67.5425439 57.0311352,82.4116844 39.940332,82.4116844 C22.8495288,82.4116844 8.99437868,67.5425439 9.00000171,49.2058422 C8.99437868,30.8683356 22.8495288,16 39.940332,16 C57.0311352,16 70.8846788,30.8683356 70.879859,49.2058422 Z" id="path3984" stroke="#010101" stroke-width="2.4372789" fill="#C7612B" stroke-linecap="round" stroke-linejoin="round"></path>
                    <path d="M69.8649196,38.0329367 L69.1395306,39.2090898 C69.2350188,40.5712874 69.2727326,41.9558423 69.2727326,43.3603591 C69.2727326,63.3637441 50.5514373,79.9656274 37.6115888,77.7889857 C26.8366733,75.9764485 13.9762644,69.0816205 8.18679355,54.5413985 C11.1324828,72.3625525 30.3055413,85.5701205 39.4732066,85.4671172 C59.801752,85.239552 71.133548,69.9088402 71.133548,49.9054552 C71.133548,45.7469996 70.7178937,41.7530298 69.8649196,38.0329367 Z" id="path4022" fill-opacity="0.3137" fill="#010101"></path>
                    <path d="M16.425521,52.0321158 L11.2923347,80.8101083 L30.8938451,61.8466563 C33.1918128,50.1985581 25.1786373,44.9186669 16.425521,52.0321158 Z" id="path3454" stroke="#010101" stroke-width="2.19355101" fill="#ED2224" stroke-linecap="round" stroke-linejoin="round" transform="translate(21.292335, 64.810108) rotate(-4.000000) translate(-21.292335, -64.810108) "></path>
                    <path d="M19.5520028,44 L-7.32747196e-15,65.0362611 L26.7487881,66 C34.8482378,57.6873489 30.7837956,45.6446414 19.5520028,44 Z" id="path4088" stroke="#010101" stroke-width="2.5177091" fill="#FEDA00" stroke-linecap="round" stroke-linejoin="round"></path>
                    <path d="M44.6527036,8.49778727 L46.217254,34.9696155 C49.348821,28.4582008 52.7623853,22.3260525 57.9016412,19.0735798 C72.2341717,10.0019144 50.0838226,-7.58909463 44.6527036,8.49778727 Z" id="path4094" stroke="#010101" stroke-width="2.4874056" fill="#ED2224" stroke-linecap="round" stroke-linejoin="round" transform="translate(53.652704, 18.469616) rotate(11.000000) translate(-53.652704, -18.469616) "></path>
                    <g id="eye-r" transform="translate(43.622319, 33.316912)" stroke="#010101">
                        <path d="M18.6152142,10.5196036 C18.4653591,15.8972305 14.2705584,20.1538035 9.24869458,20.025683 C4.2256868,19.8964187 0.27911954,15.4327939 0.430118635,10.0540231 C0.582261663,4.67639622 4.77477442,0.420967175 9.7977822,0.549087619 C14.82079,0.677208064 18.7696451,5.14197677 18.6152142,10.5196036 Z" id="path4014" stroke-width="3.05333693" fill="#FFFFFF" stroke-linecap="round" stroke-linejoin="round"></path>
                        <path d="M11.3503778,9.57925041 C11.3047307,11.2049062 10.0369889,12.4913218 8.51922602,12.4539743 C7.00042567,12.4145519 5.80634152,11.0648529 5.85302596,9.4391971 C5.89867296,7.81354127 7.16537735,6.52712567 8.68417769,6.56654809 C10.2040155,6.60389564 11.3970622,7.95359458 11.3503778,9.57925041 Z" id="path4016" stroke-width="1.12685892" fill="#010101"></path>
                    </g>
                    <g id="eye-l" transform="translate(18.475368, 23.566521)" stroke="#010101">
                        <path d="M18.1073082,12.192033 C16.4211516,17.0995036 11.3363715,19.9227291 6.75377771,18.4973892 C2.17118396,17.0720492 -0.176165611,11.93808 1.51456668,7.02946546 C3.20072325,2.12199486 8.28435945,-0.701230647 12.8680971,0.72525323 C17.4506909,2.15059317 19.7968965,7.28570635 18.1073082,12.192033 Z" id="path4012" stroke-width="3.05333693" fill="#FFFFFF" stroke-linecap="round" stroke-linejoin="round"></path>
                        <path d="M11.5538222,10.0304664 C11.0290363,11.6674339 9.44827845,12.6077464 8.02431646,12.1330144 C6.59928784,11.6571385 5.86970731,9.9458154 6.3944933,8.30999186 C6.9192793,6.67531226 8.49897046,5.73385578 9.92506572,6.20858779 C11.3479611,6.68446373 12.0796749,8.3957868 11.5538222,10.0304664 Z" id="path4018" stroke-width="1.12685892" fill="#010101"></path>
                    </g>
                </g>
            </g>
            <g id="crooks-2" transform="translate(20.000000, 4.000000)">
                <path d="M76.142851,104.891316 C73.5755839,104.823884 73.1454476,112.971028 72.9618393,114.967159 C72.1477882,120.212996 69.8486217,133.313975 69.123125,138.571998 C65.2177918,137.47441 61.015562,132.460814 57.0899181,131.570395 C54.8175617,131.559021 53.7898425,135.321367 56.1410042,136.0623 C57.1148325,136.59146 58.9173499,137.976356 61.5485563,140.216989 C56.9158533,140.987256 53.3081247,141.440068 50.7253705,141.575425 C48.696742,143.179154 49.8400712,146.708525 51.845834,146.151246 C56.7100912,146.348482 63.2321343,145.554515 66.6371006,145.376068 C65.8791068,147.749165 63.5368818,149.750984 63.5856274,152.299565 C64.1169542,154.9432 68.1238407,154.932639 68.6324196,152.027402 C70.1150975,149.259466 71.5043465,146.435472 72.9618393,143.653724 C76.967101,142.378215 81.2030917,141.694152 85.1173616,140.259407 C87.1557392,139.003396 86.1458933,135.439282 83.7654842,135.952735 C80.4987181,136.722103 77.2490129,137.697015 74.0155562,138.562249 C74.8434186,132.40812 77.3261934,118.404535 78.2547966,112.296714 C78.2856688,110.857907 77.4671059,104.947373 76.142851,104.891316 Z" id="crooks-leg-left" stroke="#010101" stroke-width="2.3705787" fill="#F47521" stroke-linecap="round" transform="translate(67.936205, 129.568281) rotate(-4.000000) translate(-67.936205, -129.568281) "></path>
                <path d="M69.9767444,98.0998327 C67.799532,98.0424498 67.434748,104.97552 67.279036,106.674191 C66.5886668,111.138303 64.6388215,122.286996 64.0235523,126.761477 C60.7115713,125.82745 57.1478024,121.560972 53.8185966,120.803241 C51.891488,120.793562 51.0199141,123.99525 53.0138548,124.62577 C53.8397257,125.076076 55.3683797,126.254597 57.5998168,128.161335 C53.6709782,128.816818 50.6113856,129.202153 48.4210391,129.317339 C46.7006279,130.682083 47.6702467,133.685513 49.3712663,133.211279 C53.4964783,133.379123 59.0276023,132.703472 61.915239,132.551617 C61.2724102,134.571079 59.2860484,136.27459 59.3273879,138.443386 C59.7779882,140.693071 63.176093,140.684084 63.6074016,138.21178 C64.8648106,135.856317 66.0429857,133.45315 67.279036,131.085934 C70.6757629,130.000499 74.2681633,129.418374 77.5877232,128.197432 C79.3164023,127.12859 78.4599862,124.095594 76.4412418,124.532533 C73.6708079,125.187251 70.9148429,126.016883 68.1726577,126.753181 C68.8747398,121.51613 70.980297,109.599335 71.7678141,104.401691 C71.7939957,103.177293 71.0998002,98.1475365 69.9767444,98.0998327 Z" id="crooks-leg-left" stroke="#010101" stroke-width="2.0149919" fill="#F47521" stroke-linecap="round" transform="translate(63.016966, 119.099479) rotate(37.000000) translate(-63.016966, -119.099479) "></path>
                <g id="tail" transform="translate(127.265392, 50.299218) rotate(31.210240) translate(-127.265392, -50.299218) translate(112.265392, 26.299218)" stroke="#010101" stroke-width="3.36092651" fill="#964D22" stroke-linecap="round" stroke-linejoin="round">
                    <path d="M18.7596137,13.0482699 C19.9733786,7.43765367 18.9935925,4.04739857 17.9203773,3.20085032 C15.4944722,0.862687327 12.6249824,0.8464388 9.90416662,0.108755687 C8.2963749,0.114442671 6.41560794,-0.468067012 4.45684804,4.81757873 C2.88886521,9.94155164 2.03013057,16.3605321 1.33713091,22.0402046 C-0.00824710641,33.6302788 0.705875643,44.2210685 3.53230687,45.7744276 C7.08260996,48.0516586 12.4511232,37.5071772 16.1257275,24.1525131 C17.1047012,20.6403941 17.9959329,16.8918589 18.7596137,13.0482699 Z" id="path3971"></path>
                    <path d="M28.3641178,19.355948 C30.5666056,14.3026562 30.176641,10.8214094 29.250475,9.74331961 C27.2340328,6.90307714 24.3604809,6.17026858 21.7664036,4.78426925 C20.1561746,4.38699277 18.3745236,3.36008588 15.4847231,7.91536035 C13.0165719,12.4153898 11.0269398,18.3282287 9.33709304,23.5765028 C5.9549622,34.305405 4.80862864,44.5939722 7.36614675,46.785086 C10.5224231,49.8463084 17.7530175,41.1249117 23.7763463,29.2976091 C25.3735765,26.1876411 26.9253108,22.8323203 28.3641178,19.355948 Z" id="path3975"></path>
                </g>
                <g id="body" transform="translate(32.858268, 39.000000)">
                    <path d="M87.9681121,39.451572 C87.9760489,60.812425 68.7865809,78.1339799 45.1136443,78.1339799 C21.4415014,78.1339799 2.25123974,60.812425 2.25758914,39.451572 C2.25123974,18.088809 21.4407077,0.768527392 45.1136443,0.768527392 C68.7857872,0.768527392 87.9752552,18.088809 87.9681121,39.451572 Z" stroke="#010101" stroke-width="3.2497052" fill="url(#radialGradient-1)" stroke-linecap="round" stroke-linejoin="round"></path>
                    <path d="M87.3593636,27.7964936 C87.3919043,28.3904519 87.4109525,28.9945959 87.4109525,29.5949203 C87.4109525,50.9411314 67.2420899,68.2639594 42.3873716,68.2639594 C22.9605948,68.2639594 6.38231679,57.6726585 0.0726025683,42.8555322 C1.16390534,63.3722388 20.9033899,79.7382402 45.0588808,79.7382402 C69.9143927,79.7382402 90.0832553,62.4147755 90.0832553,41.0679279 C90.0824617,36.4072971 89.1221152,31.9351032 87.3593636,27.7964936 Z" id="path3887" fill-opacity="0.3137" fill="#010101"></path>
                </g>
                <g id="head">
                    <path d="M58.8104318,18.4692197 L50,35 C55.6590018,32.572655 61.4528993,30.5018012 67.8335521,30.9568283 C85.6240699,32.2217715 70.5033297,11.3970739 58.8104318,18.4692197 Z" id="path4090" stroke="#010101" stroke-width="2.19355101" fill="#ED2224" stroke-linecap="round" stroke-linejoin="round" transform="translate(63.000000, 26.000000) rotate(11.000000) translate(-63.000000, -26.000000) "></path>
                    <path d="M53.5894504,12.2282085 L49,34 C53.8374856,29.1876019 58.8798002,24.7272323 65.0662769,22.8752566 C82.3151215,17.71083 63.1059991,-0.0154537734 53.5894504,12.2282085 Z" id="path4092" stroke="#010101" stroke-width="2.38853332" fill="#ED2224" stroke-linecap="round" stroke-linejoin="round" transform="translate(60.500000, 21.000000) rotate(11.000000) translate(-60.500000, -21.000000) "></path>
                    <path d="M66.9999988,46.5 C67.0045164,64.9991395 54.0195885,80 38.0003767,80 C21.9811649,80 8.99473114,64.9991395 9.0000016,46.5 C8.99473114,28.0000485 21.9811649,13 38.0003767,13 C54.0195885,13 67.0045164,28.0000485 66.9999988,46.5 Z" id="path3984" stroke="#010101" stroke-width="2.4372789" fill="#C7612B" stroke-linecap="round" stroke-linejoin="round"></path>
                    <g id="eye-r" transform="translate(41.000000, 32.000000)" stroke="#010101">
                        <path d="M18.9955274,11.0129534 C18.8424866,16.660991 14.5585123,21.1316032 9.42989305,20.9970403 C4.30010551,20.8612759 0.269641597,16.1732005 0.423850651,10.5239615 C0.579227955,4.8759239 4.8608657,0.406513188 9.99065324,0.541076091 C15.1204408,0.675638995 19.1532412,5.36491588 18.9955274,11.0129534 Z" id="path4014" stroke-width="3.05333693" fill="#FFFFFF" stroke-linecap="round" stroke-linejoin="round"></path>
                        <path d="M11.6908427,10.802796 C11.6385562,12.5418783 10.1864155,13.9180505 8.44788701,13.8780971 C6.70817019,13.8359241 5.34040103,12.392053 5.39387594,10.6529708 C5.44616251,8.91388858 6.89711485,7.5377163 8.63683166,7.57988932 C10.3777368,7.61984271 11.7443176,9.06371379 11.6908427,10.802796 Z" id="path4016" stroke-width="1.12685892" fill="#010101"></path>
                    </g>
                    <g id="eye-l" transform="translate(19.000000, 20.000000)" stroke="#010101">
                        <path d="M17.8370498,12.0100624 C16.1760598,16.8442871 11.1671719,19.6253749 6.65297506,18.2213087 C2.13877823,16.8172425 -0.173536274,11.7598997 1.49196121,6.92454806 C3.15295126,2.0903233 8.1607123,-0.690764518 12.676036,0.714428555 C17.1902328,2.11849477 19.5014205,7.17696446 17.8370498,12.0100624 Z" id="path4012" stroke-width="3.05333693" fill="#FFFFFF" stroke-linecap="round" stroke-linejoin="round"></path>
                        <path d="M10.8140055,10.8358718 C10.2415117,12.4276068 8.51704864,13.3419367 6.96363556,12.8803224 C5.40905888,12.4175958 4.61315285,10.7535598 5.18564666,9.16293717 C5.75814047,7.57342683 7.48143992,6.65798456 9.03718021,7.11959882 C10.5894297,7.58232542 11.3876629,9.24636143 10.8140055,10.8358718 Z" id="path4018" stroke-width="1.12685892" fill="#010101"></path>
                    </g>
                    <path d="M65.8109145,35 L65.1310073,36.1901678 C65.2205084,37.568597 65.2558575,38.96965 65.2558575,40.3909026 C65.2558575,60.632643 47.7083854,77.4323503 35.5798639,75.2297723 C25.4805344,73.3956373 13.4264717,66.4186523 8,51.7051726 C10.7609948,69.7386791 28.7319047,83.1036251 37.3247584,82.9993946 C56.3787064,82.7691177 67,67.2557289 67,47.0139884 C67,42.8059817 66.6104072,38.7644208 65.8109145,35 Z" id="path4022" fill-opacity="0.3137" fill="#010101"></path>
                    <path d="M16.425521,49.0321158 L11.2923347,77.8101083 L30.8938451,58.8466563 C33.1918128,47.1985581 25.1786373,41.9186669 16.425521,49.0321158 Z" id="path3454" stroke="#010101" stroke-width="2.19355101" fill="#ED2224" stroke-linecap="round" stroke-linejoin="round" transform="translate(21.292335, 61.810108) rotate(-4.000000) translate(-21.292335, -61.810108) "></path>
                    <path d="M19.5520028,41 L0,62.0362611 L26.7487881,63 C34.8482378,54.6873489 30.7837956,42.6446414 19.5520028,41 Z" id="path4088" stroke="#010101" stroke-width="2.5177091" fill="#FEDA00" stroke-linecap="round" stroke-linejoin="round"></path>
                    <path d="M45,8.52817177 L46.5645503,35 C49.6961174,28.4885853 53.1096817,22.356437 58.2489376,19.1039643 C72.581468,10.0322989 50.4311189,-7.55871013 45,8.52817177 Z" id="path4094" stroke="#010101" stroke-width="2.4874056" fill="#ED2224" stroke-linecap="round" stroke-linejoin="round" transform="translate(54.000000, 18.500000) rotate(11.000000) translate(-54.000000, -18.500000) "></path>
                </g>
            </g>
        </g>
    </g>
</svg>