<svg id="crooks" x="0px" y="0px" style="visibility: hidden;"
	 width="164.25px" height="150.75px" viewBox="0 0 164.25 150.75" enable-background="new 0 0 164.25 150.75" xml:space="preserve">
<g id="g4177" transform="matrix(0.8124263,0,0,0.8124263,18.772694,51.197356)">
	<path id="crooks-leg-left" fill="#F47521" stroke="#010101" stroke-width="2.9179" stroke-linecap="round" d="M8.779,72.757
		c-3.16-0.083-3.326,4.101-3.552,6.558c-1.002,6.457-1.911,12.929-2.804,19.401c-4.807-1.351-9.497-3.443-14.329-4.539
		c-2.797-0.014-4.062,4.617-1.168,5.529c1.798,0.977,8.534,2.009,7.05,2.887c-4.506,1.481-9.355,2.128-13.716,3.899
		c-2.497,1.974-0.103,6.427,2.767,5.003c5.456-1.404,10.886-2.95,16.336-4.404c-0.933,2.921-3.816,5.385-3.756,8.522
		c0.654,3.254,5.586,3.241,6.212-0.335c1.825-3.407,3.535-6.883,5.329-10.307c4.93-1.57,10.144-2.412,14.962-4.178
		c2.509-1.546,1.266-5.933-1.664-5.301c-4.021,0.947-8.021,2.147-12.001,3.212c1.019-7.575,2.154-15.158,3.297-22.676
		C11.78,74.257,10.409,72.826,8.779,72.757z"/>
	<g id="g3979" transform="matrix(0.8552717,0.5181799,-0.5181799,0.8552717,22.995014,-124.97888)">
		<path id="path3971" fill="#964D22" stroke="#010101" stroke-width="4.1369" stroke-linecap="round" stroke-linejoin="round" d="
			M164.091,82.061c1.494-6.906,0.288-11.079-1.033-12.121c-2.986-2.878-6.518-2.898-9.867-3.806
			c-1.979,0.007-4.294-0.71-6.705,5.796c-1.93,6.307-2.987,14.208-3.84,21.199c-1.656,14.266-0.777,27.302,2.702,29.214
			c4.37,2.803,10.978-10.176,15.501-26.614C162.054,91.406,163.151,86.792,164.091,82.061z"/>
		<path id="path3975" fill="#964D22" stroke="#010101" stroke-width="4.1369" stroke-linecap="round" stroke-linejoin="round" d="
			M175.913,89.825c2.711-6.22,2.231-10.505,1.091-11.832c-2.482-3.496-6.019-4.398-9.212-6.104
			c-1.982-0.489-4.175-1.753-7.732,3.854c-3.038,5.539-5.487,12.817-7.567,19.277c-4.163,13.206-5.574,25.87-2.426,28.567
			c3.885,3.768,12.785-6.967,20.199-21.525C172.232,98.234,174.142,94.104,175.913,89.825z"/>
	</g>
	<path id="crooks-leg-right" fill="#F47521" stroke="#010101" stroke-width="2.9179" stroke-linecap="round" d="M64.704,73.627
		c-3.498,0.745-2.569,5.275-2.089,7.998c0.216,5.94,0.875,11.909,1.171,17.867c-4.319-1.147-8.558-3.693-13.004-3.959
		c-3.304,0.656-1.975,6.082,1.077,5.888c4.234,1.751,9.212,2.602,12.983,4.914c2.084,4.104,3.178,8.97,5.87,12.631
		c2.348,1.827,6.181-1.412,4.247-4.13c-0.822-2.644-4.838-8.326,0.222-5.369c4.897,1.448,9.666,3.794,14.64,4.718
		c3.191-0.18,3.099-5.778-0.147-5.809c-4.242-1.464-8.485-2.931-12.727-4.395c3.07-1.275,7.094-0.755,9.644-3.11
		c1.721-2.409-1.569-5.731-3.873-4.253c-4.31,1.094-8.619,2.188-12.929,3.282c-0.665-8.236-0.838-16.627-2.018-24.759
		C67.172,74.016,65.87,73.42,64.704,73.627z"/>
	
		<radialGradient id="path3885_1_" cx="54.5263" cy="34.253" r="45.3557" gradientTransform="matrix(1.0301 0 0 1.0292 -15.4047 -0.0493)" gradientUnits="userSpaceOnUse">
		<stop  offset="0" style="stop-color:#F68B50"/>
		<stop  offset="1" style="stop-color:#964D22"/>
	</radialGradient>
	
		<path id="path3885" fill="url(#path3885_1_)" stroke="#010101" stroke-width="4" stroke-linecap="round" stroke-linejoin="round" d="
		M94.76,35.205c0.01,33.554-24.168,60.763-53.995,60.763c-29.826,0-54.005-27.209-53.997-60.763
		c-0.008-33.557,24.17-60.764,53.997-60.764C70.591-25.559,94.769,1.648,94.76,35.205z"/>
	<path id="path3887" fill="#010101" fill-opacity="0.3137" d="M93.993,16.897c0.041,0.933,0.065,1.882,0.065,2.825
		c0,33.531-25.412,60.742-56.728,60.742c-24.477,0-45.365-16.637-53.315-39.912c1.375,32.228,26.246,57.936,56.681,57.936
		c31.317,0,56.729-27.212,56.729-60.744C97.424,30.423,96.214,23.398,93.993,16.897z"/>
	
		<path id="path4090" sodipodi:nodetypes="ccss" fill="#ED2224" stroke="#010101" stroke-width="2.7" stroke-linecap="round" stroke-linejoin="round" d="
		M58.427-36.269L47.781-15.634c6.838-3.03,13.839-5.615,21.549-5.047C90.827-19.102,72.556-45.097,58.427-36.269z"/>
	
		<path id="path4092" sodipodi:nodetypes="ccss" fill="#ED2224" stroke="#010101" stroke-width="2.94" stroke-linecap="round" stroke-linejoin="round" d="
		M52.762-44.385l-5.736,27.027c6.046-5.974,12.348-11.511,20.08-13.81C88.664-37.579,64.656-59.584,52.762-44.385z"/>
	<path id="path3984" fill="#C7612B" stroke="#010101" stroke-width="3" stroke-linecap="round" stroke-linejoin="round" d="
		M78.173-0.003c0.006,22.781-17.24,41.254-38.516,41.254S1.133,22.778,1.14-0.003C1.133-22.785,18.381-41.257,39.657-41.257
		S78.179-22.785,78.173-0.003z"/>
	<g id="g4080" transform="matrix(1.3870291,0,0,1.3870291,-38.098939,-19.738164)">
		<path id="path4014" fill="#FFFFFF" stroke="#010101" stroke-width="2.7096" stroke-linecap="round" stroke-linejoin="round" d="
			M77.273,10.196c-0.131,4.701-3.798,8.422-8.188,8.31c-4.391-0.113-7.841-4.015-7.709-8.717c0.133-4.701,3.798-8.421,8.189-8.309
			C73.956,1.592,77.408,5.495,77.273,10.196z"/>
		<path id="path4016" fill="#010101" stroke="#010101" d="M71.973,11.518c-0.044,1.567-1.266,2.807-2.729,2.771
			c-1.464-0.038-2.615-1.339-2.57-2.906c0.044-1.567,1.265-2.807,2.729-2.769C70.868,8.65,72.018,9.951,71.973,11.518z"/>
	</g>
	<g id="g4084" transform="matrix(1.3870291,0,0,1.3870291,-46.743288,-19.738164)">
		<path id="path4012" fill="#FFFFFF" stroke="#010101" stroke-width="2.7096" stroke-linecap="round" stroke-linejoin="round" d="
			M61.829,1.658c-1.474,4.29-5.919,6.758-9.925,5.512c-4.006-1.246-6.058-5.734-4.58-10.025c1.474-4.29,5.918-6.758,9.925-5.511
			C61.255-7.12,63.306-2.631,61.829,1.658z"/>
		<path id="path4018" fill="#010101" stroke="#010101" d="M56.995,1.642c-0.492,1.431-1.974,2.253-3.309,1.838
			c-1.336-0.416-2.02-1.912-1.528-3.342c0.492-1.429,1.973-2.252,3.31-1.837C56.802-1.283,57.488,0.213,56.995,1.642z"/>
	</g>
	<path id="path4022" sodipodi:nodetypes="ccsscssc" fill="#010101" fill-opacity="0.3137" d="M77.33-13.986l-0.904,1.473
		c0.119,1.706,0.166,3.44,0.166,5.199c0,25.052-23.331,45.844-39.457,43.118C23.707,33.534,7.68,24.899,0.465,6.689
		c3.671,22.319,27.565,38.86,38.99,38.731c25.334-0.285,39.456-19.485,39.456-44.537C78.911-4.325,78.393-9.327,77.33-13.986z"/>
	
		<path id="path3454" sodipodi:nodetypes="cccc" fill="#ED2224" stroke="#010101" stroke-width="2.7" stroke-linecap="round" stroke-linejoin="round" d="
		M18.23,8.694l-6.306,35.063l24.08-23.105C38.827,6.46,28.983,0.027,18.23,8.694z"/>
	
		<path id="path4088" sodipodi:nodetypes="cccc" fill="#FEDA00" stroke="#010101" stroke-width="3.099" stroke-linecap="round" stroke-linejoin="round" d="
		M23.056-2.295L-0.857,23.811l32.715,1.196C41.764,14.691,36.793-0.254,23.056-2.295z"/>
	
		<path id="path4094" sodipodi:nodetypes="ccss" fill="#ED2224" stroke="#010101" stroke-width="3.0617" stroke-linecap="round" stroke-linejoin="round" d="
		M44.462-51.209l1.903,32.735c3.809-8.052,7.961-15.635,14.212-19.657C78.01-49.349,51.068-71.102,44.462-51.209z"/>
</g>
<path id="crooks-egg" style:"visibility: hidden;" fill="#D9A86C" stroke="#010101" stroke-width="3" stroke-linecap="round" stroke-linejoin="round" d="M133.41,145.51
	c14.497-4.551,28.798-23.29,24.263-31.773c-4.533-8.481-29.194-8.887-40.684,1.056c-9.028,7.813-12.376,16.403-7.842,24.886
	S122.064,149.07,133.41,145.51z"/>
</svg>