
<svg width="160px" height="149px" viewBox="0 0 160 149" version="1.1" xmlns="http://www.w3.org/2000/svg" xmlns:xlink="http://www.w3.org/1999/xlink">
    <!-- Generator: Sketch 46.2 (44496) - http://www.bohemiancoding.com/sketch -->
    <desc>Created with Sketch.</desc>
    <defs>
        <radialGradient cx="49.9989268%" cy="49.9994961%" fx="49.9989268%" fy="49.9994961%" r="41.9991276%" gradientTransform="translate(0.499989,0.499995),scale(1.000000,0.888626),translate(-0.499989,-0.499995)" id="radialGradient-1">
            <stop stop-color="#F68B50" offset="0%"></stop>
            <stop stop-color="#964D22" offset="100%"></stop>
        </radialGradient>
    </defs>
    <g id="Page-1" stroke="none" stroke-width="1" fill="none" fill-rule="evenodd">
        <g id="crooks" transform="translate(1.000000, 1.000000)" fill-rule="nonzero">
            <g id="g4177" transform="translate(0.711742, 0.451778)">
                <path d="M24.1932428,107.855278 C21.6259757,107.787847 21.4911129,111.187039 21.3075046,113.18317 C20.4934534,118.429007 19.7549579,123.68703 19.0294612,128.945053 C15.124128,127.847465 11.3138487,126.147869 7.38820477,125.25745 C5.11584841,125.246076 4.08812914,129.008422 6.43929085,129.749355 C7.90003334,130.543095 13.3725369,131.381519 12.1668963,132.094829 C8.50610336,133.298033 4.56664823,133.823673 1.02365714,135.26248 C-1.00497133,136.866209 0.939977229,140.483943 3.27164071,139.327048 C7.7042386,138.186402 12.1157134,136.930391 16.5434367,135.749123 C15.785443,138.12222 13.443218,140.124039 13.4919636,142.67262 C14.0232904,145.316255 18.0301769,145.305693 18.5387557,142.400457 C20.0214337,139.632521 21.4106827,136.808527 22.8681755,134.026779 C26.8734372,132.75127 31.1094279,132.067207 35.0236978,130.632462 C37.0620754,129.376451 36.0522295,125.812337 33.6718204,126.32579 C30.4050543,127.095158 27.1553491,128.07007 23.9218924,128.935304 C24.7497548,122.781174 25.6718587,116.620546 26.6004619,110.512725 C26.6313341,109.073918 25.5174977,107.911336 24.1932428,107.855278 Z" id="crooks-leg-left" stroke="#010101" stroke-width="2.3705787" fill="#F47521" stroke-linecap="round"></path>
                <g id="g3979" transform="translate(106.366645, 80.713953) rotate(31.210240) translate(-106.366645, -80.713953) translate(91.336758, 56.747376)" stroke="#010101" stroke-width="3.36092651" fill="#964D22" stroke-linecap="round" stroke-linejoin="round">
                    <path d="M18.7597365,13.0483794 C19.9735015,7.43776311 18.9937153,4.04750801 17.9205001,3.20095977 C15.4945951,0.862796769 12.6251053,0.846548243 9.90428947,0.108865129 C8.29649775,0.114552113 6.41573078,-0.46795757 4.45697088,4.81768817 C2.88898805,9.94166108 2.03025341,16.3606416 1.33725375,22.0403141 C-0.00812426336,33.6303882 0.705998486,44.2211779 3.53242971,45.7745371 C7.0827328,48.0517681 12.451246,37.5072867 16.1258504,24.1526226 C17.1048241,20.6405035 17.9960558,16.8919684 18.7597365,13.0483794 Z" id="path3971"></path>
                    <path d="M28.3642407,19.3560575 C30.5667285,14.3027657 30.1767638,10.8215188 29.2505978,9.74342905 C27.2341556,6.90318658 24.3606037,6.17037802 21.7665264,4.7843787 C20.1562974,4.38710222 18.3746465,3.36019533 15.484846,7.9154698 C13.0166948,12.4154993 11.0270627,18.3283381 9.33721588,23.5766123 C5.95508505,34.3055145 4.80875149,44.5940816 7.36626959,46.7851954 C10.5225459,49.8464179 17.7531403,41.1250211 23.7764692,29.2977185 C25.3736993,26.1877505 26.9254336,22.8324298 28.3642407,19.3560575 Z" id="path3975"></path>
                </g>
                <path d="M69.6281836,108.562089 C66.7863164,109.167347 67.5410605,112.847638 67.9310251,115.059875 C68.1065092,119.885687 68.6418981,124.73506 68.8823763,129.575495 C65.3735071,128.643642 61.929632,126.575205 58.3175847,126.3591 C55.6333282,126.892051 56.7130427,131.300276 59.1925678,131.142666 C62.6323807,132.565224 66.6766389,133.256599 69.7402984,135.134929 C71.4333949,138.469126 72.3221892,142.422393 74.5092408,145.396685 C76.4168178,146.880988 79.5308478,144.249539 77.9596153,142.041365 C77.2918009,139.893309 74.0290969,135.277103 78.139974,137.679448 C82.1184256,138.855841 85.9928866,140.761793 90.033895,141.512475 C92.6263473,141.366238 92.5516041,136.818276 89.9144683,136.793091 C86.468156,135.603699 83.0210312,134.411869 79.5747188,133.222477 C82.0688675,132.186634 85.338071,132.609095 87.409758,130.695831 C88.8079437,128.738696 86.1350612,126.039816 84.263231,127.240582 C80.7616736,128.129377 77.2609287,129.018171 73.7593714,129.906965 C73.2191079,123.215822 73.0785581,116.398753 72.1198951,109.792103 C71.6332517,108.878123 70.5754727,108.393917 69.6281836,108.562089 Z" id="crooks-leg-right" stroke="#010101" stroke-width="2.3705787" fill="#F47521" stroke-linecap="round"></path>
                <path d="M94.0464685,77.3470459 C94.0545928,104.607198 74.4117497,126.712505 50.1795104,126.712505 C25.9480836,126.712505 6.30442809,104.607198 6.3109275,77.3470459 C6.30442809,50.0844565 25.9472712,27.9807742 50.1795104,27.9807742 C74.4109372,27.9807742 94.0537803,50.0844565 94.0464685,77.3470459 Z" id="path3885" stroke="#010101" stroke-width="3.2497052" fill="url(#radialGradient-1)" stroke-linecap="round" stroke-linejoin="round"></path>
                <path d="M93.4233375,62.4731452 C93.456647,63.2311389 93.4761452,64.0021315 93.4761452,64.7682495 C93.4761452,92.0097158 72.8307681,114.116648 47.3888261,114.116648 C27.5030675,114.116648 10.533107,100.600311 4.07431789,81.6910893 C5.19140406,107.873964 25.3972586,128.759819 50.123453,128.759819 C75.5662074,128.759819 96.2115846,106.652075 96.2115846,79.4097963 C96.2107722,73.4620233 95.2277363,67.7547286 93.4233375,62.4731452 Z" id="path3887" fill-opacity="0.3137" fill="#010101"></path>
                <path d="M64.5285837,19.2796885 L55.8794933,36.0441052 C61.4348644,33.5824535 67.1226609,31.4823316 73.3864677,31.9437897 C90.8511959,33.2266108 76.0073549,12.1075891 64.5285837,19.2796885 Z" id="path4090" stroke="#010101" stroke-width="2.19355101" fill="#ED2224" stroke-linecap="round" stroke-linejoin="round"></path>
                <path d="M59.9261887,12.6860367 L55.2661115,34.6434823 C60.1780409,29.7900476 65.2979514,25.2916431 71.5796316,23.4238751 C89.0939178,18.2154101 69.5891872,0.337969341 59.9261887,12.6860367 Z" id="path4092" stroke="#010101" stroke-width="2.38853332" fill="#ED2224" stroke-linecap="round" stroke-linejoin="round"></path>
                <path d="M80.5707534,48.7431407 C80.575628,67.2510243 66.564524,82.2589753 49.2793421,82.2589753 C31.9941601,82.2589753 17.9814313,67.2510243 17.9871183,48.7431407 C17.9814313,30.2344448 31.9941601,15.2273061 49.2793421,15.2273061 C66.564524,15.2273061 80.575628,30.2344448 80.5707534,48.7431407 Z" id="path3984" stroke="#010101" stroke-width="2.4372789" fill="#C7612B" stroke-linecap="round" stroke-linejoin="round"></path>
                <g id="g4080" transform="translate(54.846766, 33.836633)" stroke="#010101">
                    <path d="M18.3373752,10.3625946 C18.1897567,15.6599584 14.057565,19.8530004 9.11065437,19.7267922 C4.16261685,19.5994572 0.274953576,15.2024537 0.423698954,9.90396305 C0.57357119,4.60659926 4.70350913,0.414684082 9.65154665,0.540892281 C14.5995842,0.66710048 18.4895012,5.06523084 18.3373752,10.3625946 Z" id="path4014" stroke-width="3.05333693" fill="#FFFFFF" stroke-linecap="round" stroke-linejoin="round"></path>
                    <path d="M12.3650229,11.8523021 C12.3154411,13.61809 10.9384195,15.0153951 9.28982493,14.9748282 C7.64010348,14.9320075 6.34308886,13.4659641 6.39379751,11.7001762 C6.4433793,9.93438824 7.81927404,8.53708318 9.4689955,8.57990381 C11.1198438,8.62047074 12.4157316,10.0865142 12.3650229,11.8523021 Z" id="path4016" stroke-width="1.12685892" fill="#010101"></path>
                </g>
                <g id="g4084" transform="translate(30.920986, 22.568044)" stroke="#010101">
                    <path d="M17.8370498,12.0100624 C16.1760598,16.8442871 11.1671719,19.6253749 6.65297506,18.2213087 C2.13877823,16.8172425 -0.173536274,11.7598997 1.49196121,6.92454806 C3.15295126,2.0903233 8.1607123,-0.690764518 12.676036,0.714428555 C17.1902328,2.11849477 19.5014205,7.17696446 17.8370498,12.0100624 Z" id="path4012" stroke-width="3.05333693" fill="#FFFFFF" stroke-linecap="round" stroke-linejoin="round"></path>
                    <path d="M12.3898138,11.9920326 C11.8353992,13.6045677 10.1653943,14.5308458 8.66103766,14.0631993 C7.15555414,13.594426 6.38478264,11.9086451 6.93919723,10.2972368 C7.49361182,8.68695541 9.16248988,7.75955052 10.6691003,8.22719697 C12.1723301,8.69597028 12.9453553,10.3817512 12.3898138,11.9920326 Z" id="path4018" stroke-width="1.12685892" fill="#010101"></path>
                </g>
                <path d="M79.8858781,37.3829838 L79.1514447,38.5796877 C79.2481234,39.965687 79.2863075,41.3744342 79.2863075,42.803492 C79.2863075,63.1563957 60.3315895,80.0483633 47.230403,77.8336892 C36.3211426,75.9894815 23.3003863,68.9741804 17.4387305,54.1798975 C20.4211475,72.3124401 39.8332615,85.7507835 49.115232,85.6459805 C69.6972399,85.4144391 81.1703241,69.8158541 81.1703241,49.4629504 C81.1703241,45.2318343 80.7494872,41.1680779 79.8858781,37.3829838 Z" id="path4022" fill-opacity="0.3137" fill="#010101"></path>
                <path d="M31.8714837,55.8088123 L26.7483235,84.2949156 L46.3115488,65.5238059 C48.6050283,53.9938519 40.6075038,48.7675135 31.8714837,55.8088123 Z" id="path3454" stroke="#010101" stroke-width="2.19355101" fill="#ED2224" stroke-linecap="round" stroke-linejoin="round"></path>
                <path d="M35.7922531,46.8810596 L16.364703,68.0902606 L42.9432294,69.0619225 C50.9911243,60.6809328 46.9525532,48.5392217 35.7922531,46.8810596 Z" id="path4088" stroke="#010101" stroke-width="2.5177091" fill="#FEDA00" stroke-linecap="round" stroke-linejoin="round"></path>
                <path d="M53.1830505,7.1420396 L54.7290977,33.7368145 C57.8236295,27.195158 61.1968235,21.0345293 66.2753003,17.7669508 C80.438328,8.65315252 58.5499386,-9.01955678 53.1830505,7.1420396 Z" id="path4094" stroke="#010101" stroke-width="2.4874056" fill="#ED2224" stroke-linecap="round" stroke-linejoin="round"></path>
            </g>
            <path d="M132.41,143.51 C146.907,138.959 161.208,120.22 156.673,111.737 C152.14,103.256 127.479,102.85 115.989,112.793 C106.961,120.606 103.613,129.196 108.147,137.679 C112.681,146.162 121.064,147.07 132.41,143.51 Z" id="crooks-egg" stroke="#010101" stroke-width="3" fill="#D9A86C" stroke-linecap="round" stroke-linejoin="round"></path>
        </g>
    </g>
</svg>